<svg xmlns="http://www.w3.org/2000/svg" xmlns:xlink="http://www.w3.org/1999/xlink" width="1920" zoomAndPan="magnify" viewBox="0 0 1440 809.999993" height="1080" preserveAspectRatio="xMidYMid meet" version="1.0"><defs><g/></defs><path fill="#d59b65" d="M 154.898438 439.863281 C 154.75 436.050781 154.601562 432.242188 154.453125 428.429688 C 161.910156 426.785156 169.488281 425.695312 177.113281 425.160156 C 179.164062 419.65625 185.730469 416.289062 191.390625 417.84375 C 189.316406 413.199219 193.09375 408.230469 194.617188 403.378906 C 195.648438 400.097656 195.628906 396.585938 195.601562 393.148438 C 195.308594 354.867188 195.015625 316.585938 194.71875 278.308594 C 181.472656 286.933594 166.15625 294.902344 150.585938 292.199219 C 135.808594 289.632812 124.0625 277.949219 109.515625 274.289062 C 106.496094 273.527344 101.753906 274.953125 102.890625 277.851562 C 104.820312 277.277344 106.882812 279.632812 106.058594 281.464844 C 105.585938 286.132812 97.847656 286.855469 95.492188 282.792969 C 93.132812 278.734375 95.6875 273.199219 99.753906 270.863281 C 103.832031 268.527344 108.832031 268.621094 113.488281 269.175781 C 119.773438 269.921875 125.980469 271.394531 131.933594 273.554688 C 137.039062 275.40625 142.097656 277.785156 147.523438 278.058594 C 163.742188 278.859375 178.402344 260.863281 193.664062 266.425781 C 194.300781 263.824219 194.9375 261.234375 195.578125 258.632812 C 191.378906 259.136719 187.140625 255.5625 186.929688 251.335938 C 186.714844 247.109375 190.574219 243.128906 194.796875 243.199219 C 199.335938 243.277344 202.980469 247.433594 204.03125 251.859375 C 205.085938 256.277344 204.148438 260.902344 203.214844 265.355469 C 209.207031 262.136719 216.6875 263.78125 222.800781 266.753906 C 228.914062 269.730469 234.460938 273.949219 240.925781 276.058594 C 253.921875 280.296875 267.921875 275.347656 280.757812 270.632812 C 284.660156 269.199219 288.683594 267.761719 292.84375 267.890625 C 297 268.019531 301.363281 270.082031 303.007812 273.910156 C 304.652344 277.730469 302.3125 283.070312 298.171875 283.464844 C 294.03125 283.855469 291.011719 277.449219 294.429688 275.089844 C 267.164062 286.488281 247.066406 302.707031 207.007812 278.527344 C 207.175781 320.773438 205.910156 363.019531 202.839844 405.070312 C 207.257812 407.308594 209.941406 412.542969 209.179688 417.4375 C 212.921875 417.070312 216.824219 416.722656 220.332031 418.0625 C 223.847656 419.398438 226.820312 422.96875 226.167969 426.671875 C 230.375 424.910156 242.660156 427.722656 245.550781 428.019531 C 247.425781 428.210938 245.996094 433.78125 243.96875 437.863281 C 241.6875 442.46875 235.53125 442.832031 230.425781 443.410156 C 204.179688 446.390625 190.945312 447.292969 156.320312 442.417969 C 156.816406 441.734375 150.972656 441.042969 154.894531 439.871094 Z M 154.898438 439.863281 " fill-opacity="1" fill-rule="nonzero"/><path fill="#f3bb57" d="M 104.554688 281.800781 C 102.851562 281.226562 101.148438 280.652344 99.445312 280.070312 C 98.851562 277.121094 100.824219 274.101562 103.484375 272.691406 C 106.132812 271.277344 109.292969 271.175781 112.289062 271.464844 C 128.597656 273.050781 142.917969 285.101562 159.304688 284.785156 C 165.722656 284.664062 171.933594 282.617188 178.027344 280.59375 C 183.847656 278.664062 189.65625 276.730469 195.824219 275.773438 C 195.546875 276.941406 195.273438 278.117188 194.996094 279.285156 C 183.59375 287.683594 170.210938 295.042969 156.09375 293.910156 C 143.753906 292.914062 132.976562 285.632812 122.101562 279.710938 C 117.292969 277.089844 112.066406 274.636719 106.605469 274.988281 C 105.398438 275.0625 104.078125 275.355469 103.375 276.339844 C 102.671875 277.320312 103.207031 279.101562 104.414062 279.082031 C 104.835938 279.078125 105.238281 278.859375 105.664062 278.882812 C 106.648438 278.933594 107.09375 280.300781 106.636719 281.1875 C 106.179688 282.070312 105.21875 282.535156 104.546875 281.804688 Z M 104.554688 281.800781 " fill-opacity="1" fill-rule="nonzero"/><path fill="#f3bb57" d="M 206.15625 278.1875 C 211.933594 274.878906 219.214844 274.335938 225.421875 276.761719 C 228.878906 278.109375 231.933594 280.289062 235.210938 282.023438 C 249.355469 289.515625 267.550781 287.960938 280.804688 278.992188 C 283.472656 277.1875 286.007812 275.082031 289.039062 273.988281 C 292.070312 272.882812 295.832031 273.027344 298.089844 275.320312 C 300.34375 277.625 299.84375 282.316406 296.773438 283.289062 C 295.28125 283.761719 293.277344 282.902344 293.210938 281.335938 C 293.140625 279.507812 295.449219 277.347656 293.949219 276.308594 C 278.488281 280.742188 265.976562 294.796875 249.898438 294.796875 C 233.636719 294.796875 219.601562 280.121094 206.160156 278.1875 Z M 206.15625 278.1875 " fill-opacity="1" fill-rule="nonzero"/><path fill="#f3bb57" d="M 202.09375 268.199219 C 202.878906 314.667969 202.652344 361.152344 201.296875 407.691406 C 205.15625 409.890625 206.476562 415.5625 203.996094 419.238281 C 207.101562 418.457031 210.613281 418.484375 213.28125 420.265625 C 215.953125 422.042969 217.300781 425.953125 215.804688 428.832031 C 219.589844 427.910156 223.472656 427.410156 227.683594 427.46875 C 227.304688 420.414062 219.492188 414.785156 212.683594 416.65625 C 214.015625 410.910156 209.625 404.503906 203.78125 403.675781 C 206.304688 355.621094 207.066406 307.476562 205.039062 259.039062 C 207.582031 256.503906 208.171875 252.238281 206.433594 249.097656 C 204.683594 245.960938 200.75 244.21875 197.253906 245.039062 C 200.433594 245.917969 202.207031 250.066406 200.632812 252.96875 C 200.3125 253.5625 199.878906 254.109375 199.699219 254.761719 C 199.558594 255.285156 199.589844 255.832031 199.628906 256.367188 C 199.96875 261.714844 200.3125 267.066406 202.09375 268.195312 Z M 202.09375 268.199219 " fill-opacity="1" fill-rule="nonzero"/><path fill="#f3bb57" d="M 172.480469 433.445312 C 196.035156 432.445312 219.589844 431.445312 243.136719 430.445312 C 245.722656 432.714844 244.730469 437.269531 242.066406 439.445312 C 239.402344 441.617188 235.757812 442.042969 232.335938 442.332031 C 207.859375 444.390625 183.214844 443.683594 158.75 441.507812 C 158.292969 441.46875 157.800781 441.417969 157.433594 441.140625 C 156.628906 440.535156 156.828125 439.296875 157.164062 438.347656 C 157.917969 436.21875 159.007812 434.039062 158.609375 431.8125 C 158.214844 429.585938 155.339844 427.746094 153.660156 429.261719 C 153.09375 432.347656 152.53125 435.429688 151.964844 438.507812 C 151.824219 439.289062 151.6875 440.132812 152.070312 440.832031 C 152.566406 441.746094 153.71875 442.03125 154.75 442.210938 C 180.75 446.863281 207.445312 447.605469 233.664062 444.410156 C 236.25 444.09375 238.894531 443.722656 241.191406 442.488281 C 246.109375 439.84375 248.296875 433.070312 245.847656 428.042969 C 219.027344 427.855469 192.199219 428.339844 172.476562 433.4375 Z M 172.480469 433.445312 " fill-opacity="1" fill-rule="nonzero"/><path fill="#b16f2f" d="M 81 359.835938 C 82.574219 369.480469 90.480469 377.332031 99.699219 380.570312 C 108.914062 383.808594 119.167969 382.9375 128.488281 380.007812 C 135.855469 377.691406 143.21875 373.742188 146.980469 366.996094 C 148.972656 363.414062 149.683594 358.613281 147.128906 355.402344 C 144.664062 352.3125 140.21875 351.828125 136.265625 351.691406 C 122.980469 351.234375 109.65625 351.949219 96.5 353.828125 C 90.085938 354.746094 83.277344 356.152344 81 359.839844 Z M 81 359.835938 " fill-opacity="1" fill-rule="nonzero"/><path fill="#d59b65" d="M 145.1875 355.222656 C 129.933594 351.117188 113.90625 349.878906 98.199219 351.597656 C 92.914062 352.175781 87.339844 353.226562 83.398438 356.808594 C 82.820312 357.335938 82.265625 357.945312 82.039062 358.699219 C 81.613281 360.136719 82.503906 361.613281 83.484375 362.757812 C 87.8125 367.816406 94.382812 370.414062 100.898438 371.75 C 114.246094 374.484375 128.507812 372.5625 140.660156 366.390625 C 142.921875 365.242188 145.25 363.796875 146.265625 361.472656 C 147.277344 359.144531 146.300781 355.53125 145.1875 355.234375 Z M 145.1875 355.222656 " fill-opacity="1" fill-rule="nonzero"/><path fill="#b16f2f" d="M 319.023438 357.800781 C 319.6875 366.074219 313.890625 373.90625 306.460938 377.59375 C 299.03125 381.285156 290.316406 381.464844 282.097656 380.332031 C 270.863281 378.777344 258.945312 374.019531 253.851562 363.886719 C 252.910156 362.015625 252.261719 359.671875 253.378906 357.90625 C 253.890625 357.09375 254.707031 356.523438 255.539062 356.046875 C 259.113281 353.996094 263.261719 353.214844 267.34375 352.621094 C 278.082031 351.054688 288.96875 350.519531 299.808594 351.023438 C 307.039062 351.355469 314.597656 352.285156 319.023438 357.808594 Z M 319.023438 357.800781 " fill-opacity="1" fill-rule="nonzero"/><path fill="#d59b65" d="M 317.074219 357.597656 C 311.214844 366.503906 300.050781 366.640625 290.296875 366.828125 C 278.902344 367.039062 267.167969 366.054688 256.933594 361.039062 C 256.011719 360.589844 255.003906 359.96875 254.832031 358.964844 C 254.65625 357.945312 255.425781 357.015625 256.238281 356.375 C 258.714844 354.449219 261.945312 353.859375 265.046875 353.375 C 283.015625 350.589844 301.769531 349.472656 317.074219 357.597656 Z M 317.074219 357.597656 " fill-opacity="1" fill-rule="nonzero"/><path fill="#c78241" d="M 113.113281 269.488281 C 111.628906 273.355469 111.410156 277.695312 112.5 281.691406 C 109.976562 282.546875 109.03125 286.25 110.824219 288.21875 C 101.980469 310.757812 93.136719 333.300781 84.296875 355.847656 C 84.84375 355.976562 85.386719 356.105469 85.933594 356.234375 C 95.539062 333.351562 104.605469 310.25 113.132812 286.949219 C 116.730469 313.488281 121.324219 339.898438 126.882812 366.097656 C 127.851562 366.570312 128.359375 364.910156 128.167969 363.855469 C 123.585938 339.042969 119 314.230469 114.421875 289.425781 C 122.75 312.089844 131.074219 334.746094 139.402344 357.410156 C 140.375 357.363281 141.328125 356.929688 142.007812 356.226562 C 133.925781 333.152344 125.199219 310.308594 115.828125 287.726562 C 117.414062 287.785156 118.898438 286.359375 118.90625 284.773438 C 118.910156 283.1875 117.441406 281.746094 115.855469 281.785156 C 117.394531 279.417969 118.996094 276.902344 119.117188 274.078125 C 119.238281 271.25 117.253906 268.128906 113.113281 269.503906 Z M 113.113281 269.488281 " fill-opacity="1" fill-rule="nonzero"/><path fill="#cc8745" d="M 284.492188 270.730469 C 284.691406 273.179688 284.890625 275.625 285.09375 278.078125 C 282.816406 279.152344 281.273438 281.632812 281.3125 284.148438 C 281.351562 286.664062 282.964844 289.097656 285.273438 290.101562 C 277.347656 313.257812 269.78125 336.539062 262.578125 359.929688 C 262.152344 361.3125 262.355469 363.519531 263.789062 363.335938 C 270.207031 339.351562 277.855469 315.695312 286.683594 292.488281 C 283.5 312.230469 281.429688 332.144531 280.488281 352.117188 L 282.488281 352.035156 C 284.503906 332.539062 286.523438 313.035156 288.535156 293.539062 C 288.402344 297.03125 290.695312 300.070312 292.464844 303.074219 C 295.753906 308.6875 297.449219 315.070312 299.101562 321.363281 C 302.796875 335.417969 306.492188 349.472656 310.179688 363.523438 C 310.988281 363.113281 311.792969 362.691406 312.601562 362.28125 C 307.324219 337.539062 299.53125 313.339844 289.382812 290.167969 C 293.097656 287.835938 291.863281 280.953125 287.574219 280.050781 C 288.253906 276.484375 288.347656 272.804688 287.878906 269.207031 C 285.867188 268.425781 283.335938 270.148438 284.480469 270.710938 Z M 284.492188 270.730469 " fill-opacity="1" fill-rule="nonzero"/><path fill="#7b1720" d="M 394.523438 394 C 395.878906 396.78125 394.433594 400.160156 392.535156 402.582031 C 390.648438 405 388.226562 407.128906 387.273438 410.082031 C 386.5625 412.257812 386.738281 414.617188 386.816406 416.914062 C 387.015625 423.230469 386.359375 429.574219 384.875 435.703125 C 386.96875 435.910156 389.59375 434.597656 391.324219 435.84375 C 393.050781 437.089844 394.117188 445.636719 393.863281 448.644531 C 348.59375 487.800781 302.855469 522.574219 257.589844 561.742188 C 256.210938 562.933594 254.753906 564.171875 252.992188 564.554688 C 251.152344 564.960938 249.257812 564.375 247.464844 563.792969 C 201.351562 548.785156 156.46875 529.730469 113.449219 506.890625 C 116.285156 491.105469 119.125 475.3125 121.960938 459.527344 C 151.289062 439.328125 237.996094 369.394531 255.164062 355.75 C 301.171875 367.066406 347.175781 378.382812 393.492188 389.640625 C 392.703125 393.140625 393.382812 396.96875 394.53125 394.007812 Z M 394.523438 394 " fill-opacity="1" fill-rule="nonzero"/><path fill="#731017" d="M 121.949219 459.519531 C 123.195312 461.972656 129.320312 462.417969 131.695312 461.140625 C 134.0625 459.863281 135.660156 457.488281 137.351562 455.347656 C 142.960938 448.257812 150.425781 443.050781 157.648438 437.753906 C 163.703125 433.308594 191.703125 410.96875 193.984375 409.902344 C 195.945312 408.988281 197.46875 407.304688 198.957031 405.695312 C 211.953125 391.683594 227.160156 379.886719 243.949219 370.730469 C 248.335938 364.761719 254.765625 360.441406 261.808594 358.71875 C 259.847656 356.75 256.699219 356.570312 254.132812 357.523438 C 251.566406 358.480469 249.445312 360.371094 247.367188 362.207031 C 219.570312 386.878906 189.910156 409.175781 160.285156 431.4375 C 148.207031 440.519531 133.441406 449.480469 121.949219 459.519531 Z M 121.949219 459.519531 " fill-opacity="1" fill-rule="nonzero"/><path fill="#591218" d="M 147.617188 440.460938 C 150.070312 440.316406 151.550781 439.746094 153.667969 441.035156 C 155.785156 442.328125 158.6875 443.171875 160.53125 441.496094 C 159.484375 439.65625 158.003906 438.089844 156.253906 436.964844 C 157.949219 438.050781 159.757812 439.160156 161.75 439.167969 C 163.742188 439.167969 165.871094 437.554688 165.710938 435.5 C 165.535156 433.230469 162.929688 432.09375 160.738281 431.992188 C 156.203125 431.785156 152.273438 436.289062 147.617188 440.46875 Z M 147.617188 440.460938 " fill-opacity="1" fill-rule="nonzero"/><path fill="#591218" d="M 183.175781 413.304688 C 185.722656 415.019531 188.269531 416.734375 190.824219 418.445312 C 192.589844 416.871094 192.257812 413.46875 190.21875 412.296875 C 191.539062 413.082031 193.125 413.566406 194.605469 413.148438 C 196.074219 412.730469 197.304688 411.199219 197.042969 409.636719 C 196.789062 408.148438 195.28125 407.15625 193.824219 407.078125 C 192.367188 407 190.960938 407.632812 189.667969 408.347656 C 186.386719 410.160156 183.414062 412.582031 183.179688 413.304688 Z M 183.175781 413.304688 " fill-opacity="1" fill-rule="nonzero"/><path fill="#591218" d="M 211.316406 390.75 C 215.0625 393.621094 219.9375 393.832031 224.59375 393.683594 C 223.386719 392.039062 222.175781 390.394531 220.96875 388.753906 C 223.628906 390.070312 226.96875 389.75 229.347656 387.949219 C 227.542969 384.910156 224.035156 383.046875 220.601562 383.304688 C 217.164062 383.5625 213.773438 387.226562 211.316406 390.753906 Z M 211.316406 390.75 " fill-opacity="1" fill-rule="nonzero"/><path fill="#591218" d="M 236.382812 370.75 C 240.125 374.089844 244.511719 372.742188 249.433594 372.273438 C 248.085938 371.136719 246.742188 370.007812 245.394531 368.871094 C 246.820312 369.195312 248.316406 369.519531 249.730469 369.128906 C 251.140625 368.742188 252.425781 367.394531 252.261719 365.890625 C 252.1875 365.164062 251.78125 364.503906 251.28125 363.984375 C 249.335938 361.949219 246.050781 361.910156 243.550781 363.117188 C 241.042969 364.324219 239.820312 369.5625 236.390625 370.75 Z M 236.382812 370.75 " fill-opacity="1" fill-rule="nonzero"/><path fill="#781d24" d="M 381.539062 390.53125 C 380.992188 399.277344 373.605469 405.941406 365.945312 409.65625 C 358.289062 413.375 349.777344 415.269531 342.699219 420.078125 C 336.773438 424.101562 332.234375 429.929688 327.796875 435.65625 C 314.742188 452.496094 301.6875 469.332031 288.632812 486.175781 C 285.203125 490.601562 281.699219 495.09375 277.164062 498.265625 C 272.566406 501.480469 267.089844 503.203125 262.632812 506.628906 C 260.875 507.980469 259.253906 509.609375 257.222656 510.472656 C 252.871094 512.316406 247.988281 510.1875 243.738281 508.109375 C 209.414062 491.34375 174.507812 475.847656 139.117188 461.660156 C 137.640625 461.066406 135.988281 460.289062 135.539062 458.71875 C 135.113281 457.242188 135.957031 455.699219 136.949219 454.558594 C 143.199219 447.308594 154.410156 448.351562 162.710938 443.824219 C 174.734375 437.261719 178.183594 420.714844 188.734375 411.84375 C 198.246094 403.851562 212.132812 403.265625 221.511719 395.097656 C 228.683594 388.859375 232.21875 379.019531 239.324219 372.699219 C 246.679688 366.164062 256.992188 364.253906 266.644531 365.074219 C 276.292969 365.890625 285.574219 369.125 294.910156 371.796875 C 322.382812 379.660156 350.890625 382.703125 381.546875 390.535156 Z M 381.539062 390.53125 " fill-opacity="1" fill-rule="nonzero"/><path fill="#831a22" d="M 360.585938 393.851562 C 338.371094 391.433594 316.167969 389.019531 293.953125 386.601562 C 281.796875 385.277344 266.703125 385.441406 260.839844 396.566406 C 259.582031 398.960938 258.914062 401.722656 259.15625 404.4375 C 259.339844 406.484375 260.027344 408.476562 259.972656 410.527344 C 259.804688 416.632812 253.519531 420.398438 247.890625 422.160156 C 233.269531 426.742188 216.894531 426.375 204.007812 434.875 C 195.789062 440.300781 189.042969 449.261719 179.371094 450.46875 C 173.617188 451.183594 166.445312 449.480469 163.050781 454.347656 C 180.957031 464.621094 200.441406 471.9375 220.539062 475.933594 C 228.527344 477.519531 236.855469 478.679688 243.796875 483.082031 C 247.308594 485.304688 250.40625 488.339844 254.277344 489.789062 C 264.722656 493.710938 275.722656 484.578125 280.945312 474.410156 C 286.167969 464.242188 288.433594 452.339844 295.5 443.449219 C 303.6875 433.148438 316.703125 428.8125 328.214844 422.84375 C 342.511719 415.4375 355.277344 404.871094 360.585938 393.851562 Z M 360.585938 393.851562 " fill-opacity="1" fill-rule="nonzero"/><path fill="#faf0d8" d="M 392.921875 396.859375 C 353.066406 438.140625 308.34375 479.3125 264.90625 516.503906 C 262.820312 518.285156 260.609375 520.125 257.953125 520.601562 C 255.707031 521 253.425781 520.382812 251.230469 519.757812 C 209.0625 507.671875 168.078125 491.164062 129.101562 470.558594 C 126.554688 480.414062 124.007812 490.273438 121.453125 500.132812 C 159.9375 530.453125 214.222656 529.554688 255.238281 556.070312 C 291.59375 513.71875 331.722656 479.390625 376.515625 446.875 C 380.882812 443.707031 392.511719 433.4375 391.324219 434.519531 C 389.957031 435.765625 392.921875 412.324219 392.921875 396.863281 Z M 392.921875 396.859375 " fill-opacity="1" fill-rule="nonzero"/><path fill="#dfd2b0" d="M 392.921875 396.859375 C 346.394531 436.546875 300.695312 478.488281 256.972656 521.472656 C 212.480469 511.550781 168.753906 498.003906 126.308594 480.988281 C 125.546875 483.023438 124.785156 485.054688 124.027344 487.085938 C 164.8125 503.929688 206.527344 518.34375 248.910156 530.238281 C 251.394531 530.9375 253.953125 531.632812 256.515625 531.316406 C 259.90625 530.898438 262.847656 528.769531 265.582031 526.644531 C 312.039062 490.710938 344.640625 439.960938 392.929688 406.714844 C 392.703125 404.742188 395.148438 402.207031 392.929688 396.851562 Z M 392.921875 396.859375 " fill-opacity="1" fill-rule="nonzero"/><path fill="#dfd2b0" d="M 123.605469 501.085938 C 167.636719 519.285156 211.25 538.75 255.417969 556.585938 C 271.117188 531.21875 297.894531 514.085938 320.441406 495.058594 C 343.648438 475.472656 363.796875 451.457031 389.574219 436.578125 C 389.96875 434.964844 392.382812 430.972656 390.777344 430.960938 C 389.167969 430.945312 383.648438 434.410156 382.328125 435.351562 C 336.148438 468.210938 293.050781 505.71875 253.84375 547.1875 C 211.972656 531.417969 170.546875 514.382812 129.628906 496.113281 C 126 494.492188 120.652344 493.492188 123.601562 501.078125 Z M 123.605469 501.085938 " fill-opacity="1" fill-rule="nonzero"/><path fill="#b6a989" d="M 392.109375 403.40625 C 346.480469 442.796875 301.984375 483.609375 258.714844 525.761719 C 258.816406 527.59375 261.609375 526.902344 262.929688 525.683594 C 306.917969 484.988281 350.898438 444.289062 392.117188 403.40625 Z M 392.109375 403.40625 " fill-opacity="1" fill-rule="nonzero"/><path fill="#b6a989" d="M 391.957031 419.722656 C 346.875 454.570312 301.0625 493.777344 260.066406 532.128906 C 215.835938 518.367188 171.832031 503.828125 128.074219 488.511719 C 126.410156 488.878906 127.941406 491.480469 129.519531 492.136719 C 148.378906 499.984375 167.835938 506.15625 187.265625 512.324219 C 209.894531 519.503906 232.527344 526.691406 255.164062 533.871094 C 256.476562 534.285156 257.828125 534.703125 259.183594 534.492188 C 260.726562 534.246094 262.027344 533.21875 263.246094 532.21875 C 306.570312 496.800781 343.210938 455.808594 391.203125 427.605469 C 389.945312 425.625 392.800781 420.023438 391.957031 419.722656 Z M 391.957031 419.722656 " fill-opacity="1" fill-rule="nonzero"/><path fill="#b6a989" d="M 385.410156 436.398438 C 341.339844 472.222656 297.277344 508.054688 253.207031 543.878906 C 209.542969 531.097656 166.824219 514.832031 125.566406 495.273438 C 124.714844 497.886719 127.703125 499.984375 130.164062 501.015625 C 169.21875 517.277344 208.773438 532.234375 248.75 545.859375 C 250.644531 546.503906 252.632812 547.15625 254.597656 546.824219 C 256.824219 546.457031 258.667969 544.902344 260.398438 543.40625 C 302.527344 507.039062 345.492188 471.730469 385.402344 436.398438 Z M 385.410156 436.398438 " fill-opacity="1" fill-rule="nonzero"/><path fill="#b6a989" d="M 128.371094 475.878906 C 167.914062 496.523438 209.835938 512.273438 252.960938 522.683594 C 253.257812 521.273438 253.554688 519.859375 253.84375 518.441406 C 211.90625 509.066406 171.292969 493.335938 133.695312 471.90625 C 131.171875 470.46875 128.667969 469.011719 128.367188 475.878906 Z M 128.371094 475.878906 " fill-opacity="1" fill-rule="nonzero"/><path fill="#951b1e" d="M 392 441.203125 C 348.671875 484.597656 292.210938 517.402344 253.851562 557.1875 C 253.746094 558.554688 252.875 561.523438 252.503906 563.78125 C 252.378906 564.503906 253.199219 565 253.753906 564.535156 L 385.421875 455.21875 C 390.433594 451.054688 395.96875 445.617188 392 441.210938 Z M 392 441.203125 " fill-opacity="1" fill-rule="nonzero"/><path fill="#951b1e" d="M 393.484375 389.632812 C 304.929688 469.492188 274.824219 489.707031 252.296875 513.066406 C 251.824219 515.285156 255.320312 522.960938 256.972656 521.472656 C 303.082031 479.894531 349.234375 435.722656 395.34375 394.136719 C 393.769531 392.761719 393.496094 392.039062 393.484375 389.632812 Z M 393.484375 389.632812 " fill-opacity="1" fill-rule="nonzero"/><path fill="#951b1e" d="M 264.039062 362.3125 C 226.863281 389.8125 187.824219 426.949219 149.488281 452.683594 C 144.800781 455.824219 139.808594 458.902344 134.25 459.449219 C 169.722656 431.386719 205.1875 403.324219 240.660156 375.257812 C 246.316406 370.78125 261.214844 357.71875 264.039062 362.3125 Z M 264.039062 362.3125 " fill-opacity="1" fill-rule="nonzero"/><path fill="#951b1e" d="M 134.804688 466.585938 C 164.195312 477.269531 193.589844 487.949219 222.980469 498.628906 C 232.308594 502.015625 241.660156 505.414062 251.296875 507.679688 C 250.097656 508.589844 248.898438 509.503906 247.695312 510.414062 C 240.757812 506.203125 233.03125 503.632812 225.375 501.09375 C 195.351562 491.136719 165.335938 481.183594 135.3125 471.230469 C 132.390625 470.261719 129.40625 469.28125 134.804688 466.585938 Z M 134.804688 466.585938 " fill-opacity="1" fill-rule="nonzero"/><path fill="#951b1e" d="M 127.390625 469.570312 C 122.789062 481.628906 119.769531 494.332031 118.445312 507.226562 C 116.851562 506.375 115.015625 506.027344 113.234375 506.253906 C 117.277344 490.996094 120.699219 475.558594 127.390625 469.570312 Z M 127.390625 469.570312 " fill-opacity="1" fill-rule="nonzero"/><path fill="#951b1e" d="M 127.667969 513.066406 C 139.316406 513.75 149.980469 519.683594 160.421875 525.085938 C 187.449219 539.046875 215.835938 550.179688 245.007812 558.265625 C 245.699219 561.4375 240.707031 561.875 237.789062 560.675781 C 199.75 544.949219 161.710938 529.21875 127.664062 513.074219 Z M 127.667969 513.066406 " fill-opacity="1" fill-rule="nonzero"/><path fill="#591218" d="M 393.03125 395.105469 C 346.835938 436.664062 300.640625 478.214844 254.445312 519.773438 C 257.449219 519.066406 260.054688 517.1875 262.570312 515.332031 C 303.394531 485.175781 341.402344 450.925781 376.394531 413.617188 C 380.703125 408.472656 385.730469 403.972656 391.285156 400.308594 C 392.808594 399.304688 394.484375 398.226562 395.085938 396.457031 C 395.683594 394.691406 395.34375 393.027344 393.03125 395.105469 Z M 393.03125 395.105469 " fill-opacity="1" fill-rule="nonzero"/><path fill="#591218" d="M 391.324219 435.835938 C 348.890625 478.027344 294.488281 510.355469 255.875 556.320312 C 253.675781 556.117188 254.707031 552.523438 256.308594 550.941406 C 293.507812 514.175781 330.625 481.046875 372.335938 449.921875 C 378.167969 445.566406 386.777344 440.035156 390.085938 433.425781 C 391.074219 432.785156 391.222656 434.753906 391.324219 435.835938 Z M 391.324219 435.835938 " fill-opacity="1" fill-rule="nonzero"/><path fill="#591218" d="M 392.699219 439.425781 C 390.464844 447.480469 385.183594 454.308594 378.527344 459.417969 C 340.21875 488.808594 306.796875 521.9375 268.484375 551.328125 C 261.203125 556.914062 259.777344 563.1875 252.289062 564.65625 C 252.558594 566.84375 256.605469 565.585938 259.433594 562.742188 C 297.835938 524.15625 359.425781 484.410156 392.917969 450.753906 C 393.605469 450.0625 394.472656 448.886719 392.691406 439.429688 Z M 392.699219 439.425781 " fill-opacity="1" fill-rule="nonzero"/><path fill="#591218" d="M 250.050781 553.007812 C 206.761719 535.957031 163.476562 518.90625 120.1875 501.859375 C 120.167969 502.671875 120.15625 503.484375 120.148438 503.957031 C 144.03125 514.3125 167.910156 524.671875 191.792969 535.027344 C 211.308594 543.492188 230.96875 552.007812 251.675781 556.488281 C 252.410156 556.652344 253.371094 556.703125 253.722656 556.011719 C 254.070312 555.320312 252.875 554.121094 250.050781 553.011719 Z M 250.050781 553.007812 " fill-opacity="1" fill-rule="nonzero"/><path fill="#591218" d="M 250.027344 514.273438 C 208.394531 502.214844 167.574219 487.136719 127.964844 469.191406 C 128.527344 470.101562 129.488281 470.640625 130.402344 471.152344 C 168.726562 492.332031 208.933594 511.480469 251.914062 517.9375 C 251.339844 516.867188 250.773438 515.792969 250.027344 514.277344 Z M 250.027344 514.273438 " fill-opacity="1" fill-rule="nonzero"/><path fill="#591218" d="M 128.945312 474.648438 C 129.242188 477.003906 129.546875 479.359375 129.84375 481.71875 C 132.628906 482.261719 135.3125 483.390625 137.6875 485.003906 C 134.195312 484.558594 130.765625 483.65625 127.488281 482.332031 C 127.527344 484.816406 124.308594 487.125 125.644531 489.191406 C 125.96875 489.691406 126.503906 489.996094 127.011719 490.285156 C 129.867188 491.894531 132.726562 493.492188 135.589844 495.097656 C 132.539062 494.054688 129.480469 493.007812 126.429688 491.964844 C 126.039062 491.828125 125.617188 491.691406 125.226562 491.828125 C 123.84375 492.300781 124.859375 494.816406 123.800781 495.847656 C 124.882812 496.558594 125.960938 497.273438 127.042969 497.984375 C 125.871094 497.726562 124.703125 497.464844 123.527344 497.207031 C 123.148438 498.855469 122.769531 500.5 122.386719 502.136719 C 123.753906 502.628906 125.121094 503.117188 126.484375 503.601562 C 123.765625 503.859375 120.988281 503.355469 118.523438 502.144531 C 121.207031 490.648438 124.246094 479.234375 127.628906 467.9375 C 128.132812 469.972656 128.617188 472.011719 128.953125 474.640625 Z M 128.945312 474.648438 " fill-opacity="1" fill-rule="nonzero"/><path fill="#f5f6f6" d="M 215.230469 484.933594 C 210.386719 489.796875 202.710938 490.984375 195.71875 490.453125 C 183.253906 489.511719 171.238281 483.835938 162.859375 474.925781 C 154.480469 466.015625 149.832031 453.972656 150.132812 441.980469 C 150.25 437.308594 151.113281 432.585938 153.292969 428.40625 C 159.703125 416.078125 177.054688 413.078125 190.703125 408.773438 C 245.046875 391.632812 292.605469 358.730469 330.050781 317.644531 C 348.414062 311.847656 371.425781 330.882812 362.746094 359.273438 C 331.902344 372.335938 304.226562 391.671875 279.824219 413.988281 C 255.417969 436.300781 236.53125 463.550781 215.234375 484.9375 Z M 215.230469 484.933594 " fill-opacity="1" fill-rule="nonzero"/><path fill="#edebeb" d="M 221.105469 468.042969 C 246.898438 434.507812 279.886719 407.335938 312.566406 380.472656 C 328.574219 367.3125 344.984375 353.925781 364.417969 346.726562 C 363.421875 351.191406 362.429688 355.648438 361.4375 360.113281 C 349.054688 364.203125 337.921875 371.34375 327.304688 378.917969 C 283.3125 410.296875 245.941406 449.980469 210.476562 490.75 C 215.363281 483.984375 215.902344 474.808594 221.105469 468.035156 Z M 221.105469 468.042969 " fill-opacity="1" fill-rule="nonzero"/><path fill="#efb94d" d="M 255.367188 378.097656 C 268.660156 386.285156 276.605469 402.417969 275 417.949219 C 285.402344 410.4375 295.320312 402.257812 304.667969 393.472656 C 305.59375 392.601562 306.550781 391.664062 306.910156 390.453125 C 307.226562 389.40625 307.058594 388.277344 306.851562 387.207031 C 304.5 374.871094 297.261719 363.542969 287.070312 356.207031 C 280.6875 361.519531 273.714844 366.113281 266.316406 369.886719 C 261.976562 372.105469 257.332031 374.15625 255.367188 378.089844 Z M 255.367188 378.097656 " fill-opacity="1" fill-rule="nonzero"/><path fill="#ecb13a" d="M 270.066406 394.296875 C 282.195312 390.175781 293.226562 382.851562 301.730469 373.273438 C 305.058594 378.949219 307.238281 385.296875 308.097656 391.828125 C 308.195312 392.574219 308.273438 393.363281 308.019531 394.070312 C 307.722656 394.917969 307.015625 395.535156 306.332031 396.109375 C 295.695312 405.109375 284.574219 413.527344 273.039062 421.335938 C 276.179688 415.941406 274.335938 409.140625 272.417969 403.207031 C 271.425781 400.140625 270.4375 397.078125 270.058594 394.296875 Z M 270.066406 394.296875 " fill-opacity="1" fill-rule="nonzero"/><path fill="#e0a62d" d="M 274.050781 409.433594 C 286.085938 403.140625 296.816406 394.382812 305.382812 383.847656 C 306.460938 386.515625 307.355469 389.257812 308.078125 392.046875 C 308.3125 392.957031 308.53125 393.902344 308.335938 394.828125 C 308.039062 396.253906 306.839844 397.289062 305.707031 398.214844 C 295.171875 406.769531 284.265625 414.871094 273.039062 422.484375 C 274 418.207031 274.378906 413.800781 274.058594 409.4375 Z M 274.050781 409.433594 " fill-opacity="1" fill-rule="nonzero"/><path fill="#e0e1e0" d="M 165.101562 421.902344 C 174.75 419.082031 185.644531 421.042969 194.210938 425.964844 C 202.769531 430.890625 209.140625 438.527344 213.4375 446.855469 C 217.550781 454.835938 219.914062 463.777344 218.578125 472.507812 C 217.9375 476.675781 216.359375 480.894531 213.035156 483.835938 C 210.359375 486.203125 206.753906 487.550781 203.089844 488.242188 C 198.246094 489.152344 193.152344 488.976562 188.425781 487.667969 C 177.886719 484.738281 170.152344 476.558594 164.496094 467.984375 C 159.691406 460.699219 155.875 452.605469 155.617188 444.121094 C 155.363281 435.636719 157.5625 424.109375 165.101562 421.910156 Z M 165.101562 421.902344 " fill-opacity="1" fill-rule="nonzero"/><path fill="#c2c2c2" d="M 165.101562 421.902344 C 153.261719 441.742188 166.082031 463.511719 179.351562 472.113281 C 182.828125 474.363281 188.488281 476.609375 192.28125 474.9375 C 197.027344 472.847656 198.222656 466.125 199.300781 461.054688 C 199.945312 458.003906 200.304688 454.835938 199.808594 451.757812 C 199.375 449.09375 198.320312 446.574219 197.09375 444.171875 C 191.449219 433.089844 177.042969 422.117188 165.101562 421.910156 Z M 165.101562 421.902344 " fill-opacity="1" fill-rule="nonzero"/><path fill="#cccccc" d="M 163.484375 423.191406 C 173.828125 427.121094 182.976562 434.46875 188.414062 444.109375 C 197.15625 459.589844 192.5 483.6875 189.050781 484.679688 C 195.90625 484.261719 209.59375 470.875 217.90625 465.714844 C 217.390625 454.390625 212.757812 443.308594 205.070312 434.984375 C 197.382812 426.664062 186.703125 421.167969 175.460938 419.753906 C 170.460938 419.128906 164.566406 419.683594 163.484375 423.191406 Z M 163.484375 423.191406 " fill-opacity="1" fill-rule="nonzero"/><g fill="#000000" fill-opacity="1"><g transform="translate(481.65915, 389.719863)"><g><path d="M 17.421875 -39.359375 C 16.234375 -39.359375 15.191406 -39.035156 14.296875 -38.390625 C 13.398438 -37.742188 12.925781 -36.910156 12.875 -35.890625 C 19.46875 -35.285156 24.707031 -34.023438 28.59375 -32.109375 C 32.476562 -30.191406 34.421875 -27.859375 34.421875 -25.109375 L 34.421875 -8.671875 C 34.421875 -5.859375 33.488281 -3.570312 31.625 -1.8125 C 29.769531 -0.0625 27.351562 0.8125 24.375 0.8125 C 21.570312 0.8125 19.28125 -0.0078125 17.5 -1.65625 C 15.71875 -3.300781 14.828125 -5.394531 14.828125 -7.9375 C 14.828125 -10.53125 15.632812 -12.625 17.25 -14.21875 C 18.875 -15.8125 21.007812 -16.609375 23.65625 -16.609375 L 24.0625 -16.609375 L 24.0625 -23.40625 C 24.0625 -24.976562 21.75 -26.34375 17.125 -27.5 C 12.507812 -28.65625 7.445312 -29.367188 1.9375 -29.640625 C 2 -35.253906 3.242188 -39.628906 5.671875 -42.765625 C 8.097656 -45.898438 11.390625 -47.46875 15.546875 -47.46875 C 17.003906 -47.46875 18.285156 -47.34375 19.390625 -47.09375 C 20.503906 -46.851562 21.707031 -46.519531 23 -46.09375 C 23.757812 -45.820312 24.53125 -45.585938 25.3125 -45.390625 C 26.09375 -45.203125 26.804688 -45.109375 27.453125 -45.109375 C 28.316406 -45.109375 29.070312 -45.363281 29.71875 -45.875 C 30.375 -46.394531 30.835938 -47.0625 31.109375 -47.875 L 38.234375 -45.6875 C 37.523438 -42.875 36.375 -40.6875 34.78125 -39.125 C 33.195312 -37.5625 31.378906 -36.78125 29.328125 -36.78125 C 28.398438 -36.78125 27.53125 -36.882812 26.71875 -37.09375 C 25.914062 -37.3125 24.835938 -37.632812 23.484375 -38.0625 C 20.898438 -38.925781 18.878906 -39.359375 17.421875 -39.359375 Z M 23.578125 -4.296875 C 24.648438 -4.296875 25.523438 -4.628906 26.203125 -5.296875 C 26.878906 -5.972656 27.21875 -6.851562 27.21875 -7.9375 C 27.21875 -9.019531 26.878906 -9.894531 26.203125 -10.5625 C 25.523438 -11.238281 24.648438 -11.578125 23.578125 -11.578125 C 22.546875 -11.578125 21.691406 -11.238281 21.015625 -10.5625 C 20.335938 -9.894531 20 -9.019531 20 -7.9375 C 20 -6.851562 20.335938 -5.972656 21.015625 -5.296875 C 21.691406 -4.628906 22.546875 -4.296875 23.578125 -4.296875 Z M 23.578125 -4.296875 "/></g></g></g><g fill="#000000" fill-opacity="1"><g transform="translate(520.458144, 389.719863)"><g><path d="M -17.09375 28.34375 C -20.332031 28.34375 -22.945312 27.695312 -24.9375 26.40625 C -26.9375 25.113281 -27.9375 23.441406 -27.9375 21.390625 L -27.9375 18.953125 C -28.425781 19.117188 -29.15625 19.203125 -30.125 19.203125 C -32.175781 19.203125 -33.835938 18.539062 -35.109375 17.21875 C -36.378906 15.894531 -37.015625 14.148438 -37.015625 11.984375 C -37.015625 9.878906 -36.269531 8.164062 -34.78125 6.84375 C -33.300781 5.519531 -31.347656 4.859375 -28.921875 4.859375 C -26.378906 4.859375 -24.390625 5.492188 -22.953125 6.765625 C -21.523438 8.035156 -20.8125 9.695312 -20.8125 11.75 L -20.8125 19.359375 C -20.8125 20.273438 -20.472656 21.003906 -19.796875 21.546875 C -19.128906 22.085938 -18.203125 22.359375 -17.015625 22.359375 C -15.878906 22.359375 -14.972656 22.085938 -14.296875 21.546875 C -13.617188 21.003906 -13.28125 20.273438 -13.28125 19.359375 L -13.28125 5.265625 L -5.1875 5.265625 L -5.1875 21.390625 C -5.1875 23.441406 -6.28125 25.113281 -8.46875 26.40625 C -10.65625 27.695312 -13.53125 28.34375 -17.09375 28.34375 Z M -29.96875 14.984375 C -29.101562 14.984375 -28.382812 14.710938 -27.8125 14.171875 C -27.25 13.628906 -26.96875 12.898438 -26.96875 11.984375 C -26.96875 11.117188 -27.25 10.398438 -27.8125 9.828125 C -28.382812 9.265625 -29.101562 8.984375 -29.96875 8.984375 C -30.882812 8.984375 -31.613281 9.265625 -32.15625 9.828125 C -32.695312 10.398438 -32.96875 11.117188 -32.96875 11.984375 C -32.96875 12.898438 -32.695312 13.628906 -32.15625 14.171875 C -31.613281 14.710938 -30.882812 14.984375 -29.96875 14.984375 Z M -29.96875 14.984375 "/></g></g></g><g fill="#000000" fill-opacity="1"><g transform="translate(523.779151, 389.719863)"><g><path d="M 2.921875 -77.671875 C 2.597656 -73.242188 1.15625 -69.34375 -1.40625 -65.96875 C -3.976562 -62.59375 -7.382812 -59.988281 -11.625 -58.15625 C -15.863281 -56.320312 -20.578125 -55.40625 -25.765625 -55.40625 L -29.8125 -55.40625 L -29.8125 -59.703125 C -27 -60.828125 -24.59375 -62.3125 -22.59375 -64.15625 L -22.84375 -64.15625 C -25.050781 -64.15625 -26.816406 -64.800781 -28.140625 -66.09375 C -29.460938 -67.394531 -30.125 -69.175781 -30.125 -71.4375 C -30.125 -73.539062 -29.378906 -75.269531 -27.890625 -76.625 C -26.410156 -77.976562 -24.539062 -78.65625 -22.28125 -78.65625 C -19.957031 -78.65625 -18.066406 -77.9375 -16.609375 -76.5 C -15.148438 -75.070312 -14.421875 -73.171875 -14.421875 -70.796875 C -14.421875 -69.441406 -14.675781 -67.984375 -15.1875 -66.421875 C -15.695312 -64.859375 -16.519531 -63.453125 -17.65625 -62.203125 C -15.382812 -62.796875 -13.34375 -63.929688 -11.53125 -65.609375 C -9.726562 -67.285156 -8.3125 -69.203125 -7.28125 -71.359375 C -6.257812 -73.515625 -5.671875 -75.617188 -5.515625 -77.671875 Z M -25.1875 -71.28125 C -25.1875 -70.414062 -24.914062 -69.722656 -24.375 -69.203125 C -23.84375 -68.691406 -23.144531 -68.4375 -22.28125 -68.4375 C -21.46875 -68.4375 -20.789062 -68.691406 -20.25 -69.203125 C -19.707031 -69.722656 -19.4375 -70.414062 -19.4375 -71.28125 C -19.4375 -72.144531 -19.707031 -72.847656 -20.25 -73.390625 C -20.789062 -73.929688 -21.46875 -74.203125 -22.28125 -74.203125 C -23.144531 -74.203125 -23.84375 -73.929688 -24.375 -73.390625 C -24.914062 -72.847656 -25.1875 -72.144531 -25.1875 -71.28125 Z M -25.1875 -71.28125 "/></g></g></g><g fill="#000000" fill-opacity="1"><g transform="translate(521.997169, 389.719863)"><g><path d="M 28.4375 0.8125 C 25.132812 0.8125 22.484375 0.164062 20.484375 -1.125 C 18.492188 -2.425781 17.253906 -4.347656 16.765625 -6.890625 L 15.640625 -13.28125 C 15.097656 -13.175781 14.609375 -13.125 14.171875 -13.125 C 11.523438 -13.125 9.363281 -13.890625 7.6875 -15.421875 C 6.019531 -16.960938 5.1875 -18.953125 5.1875 -21.390625 C 5.1875 -23.921875 6.0625 -25.914062 7.8125 -27.375 C 9.570312 -28.832031 11.71875 -29.5625 14.25 -29.5625 C 16.363281 -29.5625 18.210938 -28.992188 19.796875 -27.859375 C 21.390625 -26.722656 22.378906 -25.1875 22.765625 -23.25 L 25.359375 -9.3125 C 25.460938 -8.613281 25.769531 -8.070312 26.28125 -7.6875 C 26.789062 -7.3125 27.425781 -7.125 28.1875 -7.125 C 29.914062 -7.125 30.78125 -7.9375 30.78125 -9.5625 L 30.78125 -32.8125 C 30.78125 -34.800781 29.957031 -36.390625 28.3125 -37.578125 C 26.664062 -38.765625 24.488281 -39.359375 21.78125 -39.359375 C 19.132812 -39.359375 16.894531 -38.765625 15.0625 -37.578125 C 13.226562 -36.390625 12.125 -34.851562 11.75 -32.96875 L 1.53125 -32.96875 C 1.863281 -37.34375 3.847656 -40.851562 7.484375 -43.5 C 11.128906 -46.144531 15.976562 -47.46875 22.03125 -47.46875 C 25.8125 -47.46875 29.144531 -46.910156 32.03125 -45.796875 C 34.925781 -44.691406 37.164062 -43.113281 38.75 -41.0625 C 40.34375 -39.007812 41.140625 -36.660156 41.140625 -34.015625 L 41.140625 -9.3125 C 41.140625 -6.019531 40.0625 -3.507812 37.90625 -1.78125 C 35.75 -0.0507812 32.59375 0.8125 28.4375 0.8125 Z M 13.765625 -18.0625 C 14.796875 -18.0625 15.617188 -18.367188 16.234375 -18.984375 C 16.859375 -19.609375 17.171875 -20.4375 17.171875 -21.46875 C 17.171875 -22.488281 16.859375 -23.304688 16.234375 -23.921875 C 15.617188 -24.546875 14.796875 -24.859375 13.765625 -24.859375 C 12.742188 -24.859375 11.90625 -24.546875 11.25 -23.921875 C 10.601562 -23.304688 10.28125 -22.488281 10.28125 -21.46875 C 10.28125 -20.4375 10.601562 -19.609375 11.25 -18.984375 C 11.90625 -18.367188 12.742188 -18.0625 13.765625 -18.0625 Z M 13.765625 -18.0625 "/></g></g></g><g fill="#000000" fill-opacity="1"><g transform="translate(567.519165, 389.719863)"><g><path d="M 6.71875 -75.09375 C 6.71875 -70.820312 5.734375 -67.144531 3.765625 -64.0625 C 1.796875 -60.988281 -0.875 -58.640625 -4.25 -57.015625 C -7.625 -55.398438 -11.421875 -54.59375 -15.640625 -54.59375 C -20.929688 -54.59375 -25.0625 -55.617188 -28.03125 -57.671875 C -31 -59.722656 -32.484375 -62.453125 -32.484375 -65.859375 C -32.484375 -68.390625 -31.660156 -70.410156 -30.015625 -71.921875 C -28.367188 -73.441406 -26.25 -74.203125 -23.65625 -74.203125 C -21.0625 -74.203125 -18.925781 -73.429688 -17.25 -71.890625 C -15.570312 -70.347656 -14.734375 -68.304688 -14.734375 -65.765625 C -14.734375 -63.773438 -15.25 -62.050781 -16.28125 -60.59375 C -11.582031 -60.59375 -7.976562 -61.984375 -5.46875 -64.765625 C -2.957031 -67.546875 -1.675781 -70.988281 -1.625 -75.09375 Z M -27.296875 -65.9375 C -27.296875 -64.851562 -26.957031 -63.972656 -26.28125 -63.296875 C -25.601562 -62.628906 -24.726562 -62.296875 -23.65625 -62.296875 C -22.625 -62.296875 -21.753906 -62.644531 -21.046875 -63.34375 C -20.347656 -64.039062 -20 -64.90625 -20 -65.9375 C -20 -66.957031 -20.335938 -67.789062 -21.015625 -68.4375 C -21.691406 -69.09375 -22.570312 -69.421875 -23.65625 -69.421875 C -24.726562 -69.421875 -25.601562 -69.09375 -26.28125 -68.4375 C -26.957031 -67.789062 -27.296875 -66.957031 -27.296875 -65.9375 Z M -27.296875 -65.9375 "/></g></g></g><g fill="#000000" fill-opacity="1"><g transform="translate(568.248188, 389.719863)"><g><path d="M 5.34375 -18.796875 C 5.34375 -20.734375 5.84375 -22.484375 6.84375 -24.046875 C 7.84375 -25.617188 9.234375 -26.8125 11.015625 -27.625 C 9.285156 -28.101562 6.503906 -28.585938 2.671875 -29.078125 C 2.722656 -32.691406 3.640625 -35.890625 5.421875 -38.671875 C 7.203125 -41.453125 9.6875 -43.613281 12.875 -45.15625 C 16.0625 -46.695312 19.707031 -47.46875 23.8125 -47.46875 C 27.644531 -47.46875 31.03125 -46.765625 33.96875 -45.359375 C 36.914062 -43.953125 39.195312 -41.992188 40.8125 -39.484375 C 42.4375 -36.972656 43.25 -34.070312 43.25 -30.78125 L 43.25 0 L 32.890625 0 L 32.890625 -29.640625 C 32.890625 -32.503906 31.984375 -34.835938 30.171875 -36.640625 C 28.359375 -38.453125 25.96875 -39.359375 23 -39.359375 C 20.519531 -39.359375 18.265625 -38.816406 16.234375 -37.734375 C 14.210938 -36.660156 12.851562 -35.257812 12.15625 -33.53125 C 13.9375 -33.15625 15.675781 -32.671875 17.375 -32.078125 C 19.070312 -31.484375 20.460938 -30.832031 21.546875 -30.125 L 21.546875 -27.21875 C 19.660156 -26.507812 18.21875 -25.476562 17.21875 -24.125 C 16.21875 -22.78125 15.71875 -21.164062 15.71875 -19.28125 L 15.71875 0 L 5.34375 0 Z M 5.34375 -18.796875 "/></g></g></g><g fill="#000000" fill-opacity="1"><g transform="translate(616.605207, 389.719863)"><g/></g></g><g fill="#000000" fill-opacity="1"><g transform="translate(635.478219, 389.719863)"><g><path d="M 54.671875 -46.65625 L 54.671875 0 L 43.328125 0 L 32.5625 -34.59375 L 21.875 0 L 10.453125 0 L 10.453125 -30.046875 L 9.96875 -30.046875 C 7.320312 -30.046875 5.171875 -30.84375 3.515625 -32.4375 C 1.867188 -34.03125 1.046875 -36.125 1.046875 -38.71875 C 1.046875 -41.257812 1.9375 -43.351562 3.71875 -45 C 5.507812 -46.644531 7.804688 -47.46875 10.609375 -47.46875 C 13.578125 -47.46875 15.992188 -46.585938 17.859375 -44.828125 C 19.722656 -43.078125 20.65625 -40.820312 20.65625 -38.0625 L 20.65625 -20.984375 C 20.65625 -19.628906 20.519531 -17.414062 20.25 -14.34375 L 21.953125 -21.296875 L 28.84375 -46.328125 L 36.375 -46.328125 L 43.171875 -21.296875 L 44.875 -14.34375 C 44.601562 -17.414062 44.46875 -19.628906 44.46875 -20.984375 L 44.46875 -46.65625 Z M 9.875 -35.078125 C 10.957031 -35.078125 11.835938 -35.410156 12.515625 -36.078125 C 13.191406 -36.753906 13.53125 -37.632812 13.53125 -38.71875 C 13.53125 -39.800781 13.191406 -40.675781 12.515625 -41.34375 C 11.835938 -42.019531 10.957031 -42.359375 9.875 -42.359375 C 8.851562 -42.359375 7.988281 -42.019531 7.28125 -41.34375 C 6.582031 -40.675781 6.234375 -39.800781 6.234375 -38.71875 C 6.234375 -37.6875 6.582031 -36.820312 7.28125 -36.125 C 7.988281 -35.425781 8.851562 -35.078125 9.875 -35.078125 Z M 9.875 -35.078125 "/></g></g></g><g fill="#000000" fill-opacity="1"><g transform="translate(695.337225, 389.719863)"><g><path d="M 11.828125 0.734375 C 9.828125 0.734375 8.175781 0.0859375 6.875 -1.203125 C 5.582031 -2.503906 4.9375 -4.15625 4.9375 -6.15625 C 4.9375 -8.207031 5.582031 -9.878906 6.875 -11.171875 C 8.175781 -12.472656 9.828125 -13.125 11.828125 -13.125 C 13.828125 -13.125 15.457031 -12.472656 16.71875 -11.171875 C 17.988281 -9.878906 18.625 -8.207031 18.625 -6.15625 C 18.625 -4.15625 17.988281 -2.503906 16.71875 -1.203125 C 15.457031 0.0859375 13.828125 0.734375 11.828125 0.734375 Z M 11.828125 0.734375 "/></g></g></g><g fill="#000000" fill-opacity="1"><g transform="translate(718.90823, 389.719863)"><g><path d="M 17.421875 -39.359375 C 16.234375 -39.359375 15.191406 -39.035156 14.296875 -38.390625 C 13.398438 -37.742188 12.925781 -36.910156 12.875 -35.890625 C 19.46875 -35.285156 24.707031 -34.023438 28.59375 -32.109375 C 32.476562 -30.191406 34.421875 -27.859375 34.421875 -25.109375 L 34.421875 -8.671875 C 34.421875 -5.859375 33.488281 -3.570312 31.625 -1.8125 C 29.769531 -0.0625 27.351562 0.8125 24.375 0.8125 C 21.570312 0.8125 19.28125 -0.0078125 17.5 -1.65625 C 15.71875 -3.300781 14.828125 -5.394531 14.828125 -7.9375 C 14.828125 -10.53125 15.632812 -12.625 17.25 -14.21875 C 18.875 -15.8125 21.007812 -16.609375 23.65625 -16.609375 L 24.0625 -16.609375 L 24.0625 -23.40625 C 24.0625 -24.976562 21.75 -26.34375 17.125 -27.5 C 12.507812 -28.65625 7.445312 -29.367188 1.9375 -29.640625 C 2 -35.253906 3.242188 -39.628906 5.671875 -42.765625 C 8.097656 -45.898438 11.390625 -47.46875 15.546875 -47.46875 C 17.003906 -47.46875 18.285156 -47.34375 19.390625 -47.09375 C 20.503906 -46.851562 21.707031 -46.519531 23 -46.09375 C 23.757812 -45.820312 24.53125 -45.585938 25.3125 -45.390625 C 26.09375 -45.203125 26.804688 -45.109375 27.453125 -45.109375 C 28.316406 -45.109375 29.070312 -45.363281 29.71875 -45.875 C 30.375 -46.394531 30.835938 -47.0625 31.109375 -47.875 L 38.234375 -45.6875 C 37.523438 -42.875 36.375 -40.6875 34.78125 -39.125 C 33.195312 -37.5625 31.378906 -36.78125 29.328125 -36.78125 C 28.398438 -36.78125 27.53125 -36.882812 26.71875 -37.09375 C 25.914062 -37.3125 24.835938 -37.632812 23.484375 -38.0625 C 20.898438 -38.925781 18.878906 -39.359375 17.421875 -39.359375 Z M 23.578125 -4.296875 C 24.648438 -4.296875 25.523438 -4.628906 26.203125 -5.296875 C 26.878906 -5.972656 27.21875 -6.851562 27.21875 -7.9375 C 27.21875 -9.019531 26.878906 -9.894531 26.203125 -10.5625 C 25.523438 -11.238281 24.648438 -11.578125 23.578125 -11.578125 C 22.546875 -11.578125 21.691406 -11.238281 21.015625 -10.5625 C 20.335938 -9.894531 20 -9.019531 20 -7.9375 C 20 -6.851562 20.335938 -5.972656 21.015625 -5.296875 C 21.691406 -4.628906 22.546875 -4.296875 23.578125 -4.296875 Z M 23.578125 -4.296875 "/></g></g></g><g fill="#000000" fill-opacity="1"><g transform="translate(759.246249, 389.719863)"><g><path d="M 11.828125 0.734375 C 9.828125 0.734375 8.175781 0.0859375 6.875 -1.203125 C 5.582031 -2.503906 4.9375 -4.15625 4.9375 -6.15625 C 4.9375 -8.207031 5.582031 -9.878906 6.875 -11.171875 C 8.175781 -12.472656 9.828125 -13.125 11.828125 -13.125 C 13.828125 -13.125 15.457031 -12.472656 16.71875 -11.171875 C 17.988281 -9.878906 18.625 -8.207031 18.625 -6.15625 C 18.625 -4.15625 17.988281 -2.503906 16.71875 -1.203125 C 15.457031 0.0859375 13.828125 0.734375 11.828125 0.734375 Z M 11.828125 0.734375 "/></g></g></g><g fill="#000000" fill-opacity="1"><g transform="translate(782.817254, 389.719863)"><g><path d="M 47.625 -46.734375 L 47.625 -10.53125 C 47.625 -7.019531 45.960938 -4.25 42.640625 -2.21875 C 39.328125 -0.195312 34.78125 0.8125 29 0.8125 C 23.21875 0.8125 18.664062 -0.195312 15.34375 -2.21875 C 12.03125 -4.25 10.375 -7.019531 10.375 -10.53125 L 10.375 -30.046875 L 9.96875 -30.046875 C 7.320312 -30.046875 5.171875 -30.84375 3.515625 -32.4375 C 1.867188 -34.03125 1.046875 -36.125 1.046875 -38.71875 C 1.046875 -41.257812 1.9375 -43.351562 3.71875 -45 C 5.507812 -46.644531 7.804688 -47.46875 10.609375 -47.46875 C 13.578125 -47.46875 15.992188 -46.585938 17.859375 -44.828125 C 19.722656 -43.078125 20.65625 -40.820312 20.65625 -38.0625 L 20.65625 -12.0625 C 20.65625 -10.601562 21.394531 -9.441406 22.875 -8.578125 C 24.363281 -7.722656 26.40625 -7.296875 29 -7.296875 C 31.539062 -7.296875 33.550781 -7.722656 35.03125 -8.578125 C 36.519531 -9.441406 37.265625 -10.601562 37.265625 -12.0625 L 37.265625 -46.734375 Z M 9.875 -35.078125 C 10.957031 -35.078125 11.835938 -35.410156 12.515625 -36.078125 C 13.191406 -36.753906 13.53125 -37.632812 13.53125 -38.71875 C 13.53125 -39.800781 13.191406 -40.675781 12.515625 -41.34375 C 11.835938 -42.019531 10.957031 -42.359375 9.875 -42.359375 C 8.851562 -42.359375 7.988281 -42.019531 7.28125 -41.34375 C 6.582031 -40.675781 6.234375 -39.800781 6.234375 -38.71875 C 6.234375 -37.6875 6.582031 -36.820312 7.28125 -36.125 C 7.988281 -35.425781 8.851562 -35.078125 9.875 -35.078125 Z M 9.875 -35.078125 "/></g></g></g><g fill="#000000" fill-opacity="1"><g transform="translate(835.548262, 389.719863)"><g><path d="M 11.828125 0.734375 C 9.828125 0.734375 8.175781 0.0859375 6.875 -1.203125 C 5.582031 -2.503906 4.9375 -4.15625 4.9375 -6.15625 C 4.9375 -8.207031 5.582031 -9.878906 6.875 -11.171875 C 8.175781 -12.472656 9.828125 -13.125 11.828125 -13.125 C 13.828125 -13.125 15.457031 -12.472656 16.71875 -11.171875 C 17.988281 -9.878906 18.625 -8.207031 18.625 -6.15625 C 18.625 -4.15625 17.988281 -2.503906 16.71875 -1.203125 C 15.457031 0.0859375 13.828125 0.734375 11.828125 0.734375 Z M 11.828125 0.734375 "/></g></g></g><g fill="#000000" fill-opacity="1"><g transform="translate(859.119268, 389.719863)"><g/></g></g><g fill="#000000" fill-opacity="1"><g transform="translate(877.992291, 389.719863)"><g><path d="M 24.296875 -47.46875 C 30.828125 -47.46875 35.984375 -46.050781 39.765625 -43.21875 C 43.546875 -40.382812 45.4375 -36.507812 45.4375 -31.59375 L 45.4375 0 L 35.078125 0 L 35.078125 -30.53125 C 35.078125 -33.289062 34.117188 -35.453125 32.203125 -37.015625 C 30.285156 -38.578125 27.648438 -39.359375 24.296875 -39.359375 C 20.628906 -39.359375 17.726562 -38.519531 15.59375 -36.84375 C 13.457031 -35.175781 12.390625 -32.859375 12.390625 -29.890625 C 12.390625 -28.160156 12.6875 -25.515625 13.28125 -21.953125 C 14.195312 -25.140625 15.585938 -27.609375 17.453125 -29.359375 C 19.316406 -31.117188 21.570312 -32 24.21875 -32 C 26.863281 -32 28.925781 -31.320312 30.40625 -29.96875 C 31.894531 -28.613281 32.640625 -26.722656 32.640625 -24.296875 C 32.640625 -21.921875 31.9375 -20.054688 30.53125 -18.703125 C 29.132812 -17.359375 27.21875 -16.6875 24.78125 -16.6875 C 23.539062 -16.6875 22.394531 -16.898438 21.34375 -17.328125 C 20.289062 -17.765625 19.46875 -18.390625 18.875 -19.203125 C 18.007812 -17.953125 17.304688 -16.421875 16.765625 -14.609375 C 16.222656 -12.804688 15.953125 -11.015625 15.953125 -9.234375 L 15.953125 0 L 5.90625 0 L 5.90625 -12.15625 C 5.90625 -13.34375 5.394531 -15.769531 4.375 -19.4375 C 3.726562 -22.03125 3.242188 -24.082031 2.921875 -25.59375 C 2.597656 -27.101562 2.4375 -28.507812 2.4375 -29.8125 C 2.4375 -35.207031 4.363281 -39.5 8.21875 -42.6875 C 12.082031 -45.875 17.441406 -47.46875 24.296875 -47.46875 Z M 24.625 -27.625 C 23.65625 -27.625 22.859375 -27.328125 22.234375 -26.734375 C 21.609375 -26.140625 21.296875 -25.351562 21.296875 -24.375 C 21.296875 -23.351562 21.609375 -22.546875 22.234375 -21.953125 C 22.859375 -21.359375 23.65625 -21.0625 24.625 -21.0625 C 25.59375 -21.0625 26.375 -21.359375 26.96875 -21.953125 C 27.5625 -22.546875 27.859375 -23.351562 27.859375 -24.375 C 27.859375 -25.351562 27.5625 -26.140625 26.96875 -26.734375 C 26.375 -27.328125 25.59375 -27.625 24.625 -27.625 Z M 24.625 -27.625 "/></g></g></g><g fill="#000000" fill-opacity="1"><g transform="translate(928.53631, 389.719863)"><g><path d="M 23.734375 -47.46875 C 27.671875 -47.46875 31.140625 -46.859375 34.140625 -45.640625 C 37.140625 -44.429688 39.460938 -42.742188 41.109375 -40.578125 C 42.753906 -38.421875 43.578125 -35.910156 43.578125 -33.046875 L 43.578125 -11.34375 C 43.578125 -7.5625 41.914062 -4.585938 38.59375 -2.421875 C 35.269531 -0.265625 30.773438 0.8125 25.109375 0.8125 C 19.390625 0.8125 14.90625 -0.28125 11.65625 -2.46875 C 8.414062 -4.65625 6.796875 -7.613281 6.796875 -11.34375 L 6.796875 -21.875 C 6.796875 -24.675781 7.710938 -26.925781 9.546875 -28.625 C 11.390625 -30.332031 13.769531 -31.1875 16.6875 -31.1875 C 19.550781 -31.1875 21.84375 -30.390625 23.5625 -28.796875 C 25.289062 -27.203125 26.15625 -25.132812 26.15625 -22.59375 C 26.15625 -20.0625 25.332031 -18.023438 23.6875 -16.484375 C 22.039062 -14.941406 19.953125 -14.171875 17.421875 -14.171875 L 17.015625 -14.171875 L 17.015625 -11.90625 C 17.015625 -10.445312 17.78125 -9.3125 19.3125 -8.5 C 20.851562 -7.695312 22.835938 -7.296875 25.265625 -7.296875 C 27.910156 -7.296875 29.894531 -7.765625 31.21875 -8.703125 C 32.539062 -9.648438 33.203125 -10.9375 33.203125 -12.5625 L 33.203125 -32.640625 C 33.203125 -34.640625 32.320312 -36.257812 30.5625 -37.5 C 28.8125 -38.738281 26.484375 -39.359375 23.578125 -39.359375 C 20.765625 -39.359375 18.34375 -38.78125 16.3125 -37.625 C 14.289062 -36.46875 13.09375 -34.914062 12.71875 -32.96875 L 2.671875 -32.96875 C 2.890625 -35.882812 3.914062 -38.4375 5.75 -40.625 C 7.582031 -42.8125 10.050781 -44.5 13.15625 -45.6875 C 16.257812 -46.875 19.785156 -47.46875 23.734375 -47.46875 Z M 17.5 -26.15625 C 16.414062 -26.15625 15.550781 -25.832031 14.90625 -25.1875 C 14.257812 -24.539062 13.9375 -23.707031 13.9375 -22.6875 C 13.9375 -21.601562 14.257812 -20.734375 14.90625 -20.078125 C 15.550781 -19.429688 16.414062 -19.109375 17.5 -19.109375 C 18.519531 -19.109375 19.367188 -19.429688 20.046875 -20.078125 C 20.722656 -20.734375 21.0625 -21.601562 21.0625 -22.6875 C 21.0625 -23.707031 20.722656 -24.539062 20.046875 -25.1875 C 19.367188 -25.832031 18.519531 -26.15625 17.5 -26.15625 Z M 17.5 -26.15625 "/></g></g></g><g fill="#000000" fill-opacity="1"><g transform="translate(977.217322, 389.719863)"><g><path d="M 45.84375 -46.734375 L 45.84375 0.078125 L 36.859375 0.078125 C 35.015625 -1.597656 32.878906 -3.125 30.453125 -4.5 C 28.023438 -5.875 25.625 -6.992188 23.25 -7.859375 C 23.03125 -5.316406 21.9375 -3.234375 19.96875 -1.609375 C 18 0.00390625 15.582031 0.8125 12.71875 0.8125 C 9.75 0.8125 7.332031 -0.078125 5.46875 -1.859375 C 3.601562 -3.640625 2.671875 -5.910156 2.671875 -8.671875 C 2.671875 -11.265625 3.492188 -13.382812 5.140625 -15.03125 C 6.785156 -16.675781 9.015625 -17.601562 11.828125 -17.8125 L 11.828125 -30.046875 L 11.421875 -30.046875 C 8.828125 -30.046875 6.707031 -30.84375 5.0625 -32.4375 C 3.414062 -34.03125 2.59375 -36.125 2.59375 -38.71875 C 2.59375 -41.257812 3.484375 -43.351562 5.265625 -45 C 7.046875 -46.644531 9.34375 -47.46875 12.15625 -47.46875 C 15.125 -47.46875 17.535156 -46.585938 19.390625 -44.828125 C 21.253906 -43.078125 22.1875 -40.820312 22.1875 -38.0625 L 22.1875 -16.6875 C 24.675781 -15.820312 27.132812 -14.863281 29.5625 -13.8125 C 31.988281 -12.757812 33.988281 -11.742188 35.5625 -10.765625 L 35.5625 -46.734375 Z M 11.34375 -35.078125 C 12.414062 -35.078125 13.289062 -35.410156 13.96875 -36.078125 C 14.644531 -36.753906 14.984375 -37.632812 14.984375 -38.71875 C 14.984375 -39.800781 14.644531 -40.675781 13.96875 -41.34375 C 13.289062 -42.019531 12.414062 -42.359375 11.34375 -42.359375 C 10.3125 -42.359375 9.457031 -42.019531 8.78125 -41.34375 C 8.113281 -40.675781 7.78125 -39.800781 7.78125 -38.71875 C 7.78125 -37.632812 8.113281 -36.753906 8.78125 -36.078125 C 9.457031 -35.410156 10.3125 -35.078125 11.34375 -35.078125 Z M 12.234375 -4.859375 C 13.304688 -4.859375 14.179688 -5.195312 14.859375 -5.875 C 15.535156 -6.550781 15.875 -7.425781 15.875 -8.5 C 15.875 -9.582031 15.535156 -10.460938 14.859375 -11.140625 C 14.179688 -11.816406 13.304688 -12.15625 12.234375 -12.15625 C 11.148438 -12.15625 10.269531 -11.816406 9.59375 -11.140625 C 8.925781 -10.460938 8.59375 -9.582031 8.59375 -8.5 C 8.59375 -7.425781 8.925781 -6.550781 9.59375 -5.875 C 10.269531 -5.195312 11.148438 -4.859375 12.234375 -4.859375 Z M 12.234375 -4.859375 "/></g></g></g><g fill="#000000" fill-opacity="1"><g transform="translate(1028.247349, 389.719863)"><g><path d="M 54.671875 -46.65625 L 54.671875 0 L 43.328125 0 L 32.5625 -34.59375 L 21.875 0 L 10.453125 0 L 10.453125 -30.046875 L 9.96875 -30.046875 C 7.320312 -30.046875 5.171875 -30.84375 3.515625 -32.4375 C 1.867188 -34.03125 1.046875 -36.125 1.046875 -38.71875 C 1.046875 -41.257812 1.9375 -43.351562 3.71875 -45 C 5.507812 -46.644531 7.804688 -47.46875 10.609375 -47.46875 C 13.578125 -47.46875 15.992188 -46.585938 17.859375 -44.828125 C 19.722656 -43.078125 20.65625 -40.820312 20.65625 -38.0625 L 20.65625 -20.984375 C 20.65625 -19.628906 20.519531 -17.414062 20.25 -14.34375 L 21.953125 -21.296875 L 28.84375 -46.328125 L 36.375 -46.328125 L 43.171875 -21.296875 L 44.875 -14.34375 C 44.601562 -17.414062 44.46875 -19.628906 44.46875 -20.984375 L 44.46875 -46.65625 Z M 9.875 -35.078125 C 10.957031 -35.078125 11.835938 -35.410156 12.515625 -36.078125 C 13.191406 -36.753906 13.53125 -37.632812 13.53125 -38.71875 C 13.53125 -39.800781 13.191406 -40.675781 12.515625 -41.34375 C 11.835938 -42.019531 10.957031 -42.359375 9.875 -42.359375 C 8.851562 -42.359375 7.988281 -42.019531 7.28125 -41.34375 C 6.582031 -40.675781 6.234375 -39.800781 6.234375 -38.71875 C 6.234375 -37.6875 6.582031 -36.820312 7.28125 -36.125 C 7.988281 -35.425781 8.851562 -35.078125 9.875 -35.078125 Z M 9.875 -35.078125 "/></g></g></g><g fill="#000000" fill-opacity="1"><g transform="translate(1088.106355, 389.719863)"><g><path d="M -4.609375 -52.8125 C -8.015625 -54.269531 -12.726562 -55.484375 -18.75 -56.453125 C -24.769531 -57.429688 -30.453125 -57.921875 -35.796875 -57.921875 C -38.929688 -57.921875 -41.796875 -57.703125 -44.390625 -57.265625 C -44.335938 -60.554688 -43.523438 -63.441406 -41.953125 -65.921875 C -40.390625 -68.410156 -38.175781 -70.34375 -35.3125 -71.71875 C -32.445312 -73.101562 -29.15625 -73.796875 -25.4375 -73.796875 C -19.113281 -73.796875 -14.128906 -71.941406 -10.484375 -68.234375 C -6.835938 -64.535156 -4.878906 -59.394531 -4.609375 -52.8125 Z M -13.203125 -60.421875 C -14.285156 -62.859375 -15.851562 -64.695312 -17.90625 -65.9375 C -19.957031 -67.175781 -22.359375 -67.796875 -25.109375 -67.796875 C -27.597656 -67.796875 -29.742188 -67.347656 -31.546875 -66.453125 C -33.359375 -65.566406 -34.5625 -64.34375 -35.15625 -62.78125 C -34.34375 -62.832031 -33.097656 -62.859375 -31.421875 -62.859375 C -28.296875 -62.859375 -25.097656 -62.640625 -21.828125 -62.203125 C -18.554688 -61.773438 -15.679688 -61.179688 -13.203125 -60.421875 Z M -13.203125 -60.421875 "/></g></g></g><g fill="#000000" fill-opacity="1"><g transform="translate(1088.106355, 389.719863)"><g><path d="M 20.171875 -47.46875 C 25.890625 -47.46875 30.316406 -46.179688 33.453125 -43.609375 C 36.585938 -41.046875 38.15625 -37.472656 38.15625 -32.890625 L 38.15625 -8.671875 C 38.15625 -5.859375 37.222656 -3.570312 35.359375 -1.8125 C 33.492188 -0.0625 31.078125 0.8125 28.109375 0.8125 C 25.296875 0.8125 23 -0.0078125 21.21875 -1.65625 C 19.4375 -3.300781 18.546875 -5.394531 18.546875 -7.9375 C 18.546875 -10.53125 19.367188 -12.625 21.015625 -14.21875 C 22.660156 -15.8125 24.78125 -16.609375 27.375 -16.609375 L 27.78125 -16.609375 L 27.78125 -32.3125 C 27.78125 -34.582031 27.117188 -36.320312 25.796875 -37.53125 C 24.472656 -38.75 22.539062 -39.359375 20 -39.359375 C 17.625 -39.359375 15.691406 -38.671875 14.203125 -37.296875 C 12.722656 -35.921875 11.820312 -34.019531 11.5 -31.59375 L 1.21875 -31.59375 C 1.425781 -36.5625 3.21875 -40.445312 6.59375 -43.25 C 9.96875 -46.0625 14.492188 -47.46875 20.171875 -47.46875 Z M 27.375 -4.296875 C 28.457031 -4.296875 29.332031 -4.644531 30 -5.34375 C 30.675781 -6.050781 31.015625 -6.914062 31.015625 -7.9375 C 31.015625 -9.019531 30.675781 -9.894531 30 -10.5625 C 29.332031 -11.238281 28.457031 -11.578125 27.375 -11.578125 C 26.300781 -11.578125 25.425781 -11.238281 24.75 -10.5625 C 24.070312 -9.894531 23.734375 -9.019531 23.734375 -7.9375 C 23.734375 -6.851562 24.070312 -5.972656 24.75 -5.296875 C 25.425781 -4.628906 26.300781 -4.296875 27.375 -4.296875 Z M 27.375 -4.296875 "/></g></g></g><g fill="#000000" fill-opacity="1"><g transform="translate(1131.441375, 389.719863)"><g><path d="M 16.609375 -16.609375 C 19.203125 -16.609375 21.320312 -15.796875 22.96875 -14.171875 C 24.613281 -12.554688 25.4375 -10.476562 25.4375 -7.9375 C 25.4375 -5.34375 24.546875 -3.234375 22.765625 -1.609375 C 20.984375 0.00390625 18.6875 0.8125 15.875 0.8125 C 12.90625 0.8125 10.488281 -0.0625 8.625 -1.8125 C 6.757812 -3.570312 5.828125 -5.859375 5.828125 -8.671875 L 5.828125 -46.65625 L 16.203125 -46.65625 L 16.203125 -16.609375 Z M 16.609375 -4.296875 C 17.679688 -4.296875 18.554688 -4.628906 19.234375 -5.296875 C 19.910156 -5.972656 20.25 -6.851562 20.25 -7.9375 C 20.25 -9.019531 19.910156 -9.894531 19.234375 -10.5625 C 18.554688 -11.238281 17.679688 -11.578125 16.609375 -11.578125 C 15.578125 -11.578125 14.707031 -11.238281 14 -10.5625 C 13.300781 -9.894531 12.953125 -9.019531 12.953125 -7.9375 C 12.953125 -6.914062 13.300781 -6.050781 14 -5.34375 C 14.707031 -4.644531 15.578125 -4.296875 16.609375 -4.296875 Z M 16.609375 -4.296875 "/></g></g></g><g fill="#000000" fill-opacity="1"><g transform="translate(1157.847379, 389.719863)"><g><path d="M 33.203125 -47.46875 C 37.046875 -46.925781 40.097656 -45.195312 42.359375 -42.28125 C 44.628906 -39.363281 45.765625 -35.742188 45.765625 -31.421875 L 45.765625 0 L 35.390625 0 L 35.390625 -31.421875 C 35.390625 -33.421875 35.160156 -35.023438 34.703125 -36.234375 C 34.242188 -37.453125 33.476562 -38.441406 32.40625 -39.203125 L 24.703125 -34.5 L 16.28125 -39.609375 C 14.925781 -38.691406 13.9375 -37.476562 13.3125 -35.96875 C 12.695312 -34.457031 12.390625 -32.484375 12.390625 -30.046875 C 12.390625 -28.804688 12.523438 -27.535156 12.796875 -26.234375 C 13.066406 -24.941406 13.472656 -23.328125 14.015625 -21.390625 C 14.554688 -19.441406 14.960938 -17.875 15.234375 -16.6875 C 15.503906 -15.5 15.640625 -14.335938 15.640625 -13.203125 L 15.640625 -12.390625 C 16.285156 -13.148438 17.550781 -14.3125 19.4375 -15.875 L 21.546875 -17.65625 C 20.035156 -17.875 18.804688 -18.578125 17.859375 -19.765625 C 16.910156 -20.953125 16.4375 -22.410156 16.4375 -24.140625 C 16.4375 -26.296875 17.191406 -28.0625 18.703125 -29.4375 C 20.222656 -30.820312 22.144531 -31.515625 24.46875 -31.515625 C 26.78125 -31.515625 28.648438 -30.8125 30.078125 -29.40625 C 31.515625 -28 32.234375 -26.160156 32.234375 -23.890625 C 32.234375 -21.890625 31.640625 -20.144531 30.453125 -18.65625 C 29.265625 -17.175781 27.398438 -15.359375 24.859375 -13.203125 C 22.109375 -10.878906 19.988281 -8.757812 18.5 -6.84375 C 17.019531 -4.925781 16.195312 -2.644531 16.03125 0 L 6 0 L 6 -11.984375 C 6 -12.898438 5.78125 -14.222656 5.34375 -15.953125 C 4.914062 -17.679688 4.644531 -18.734375 4.53125 -19.109375 C 3.832031 -21.753906 3.304688 -23.875 2.953125 -25.46875 C 2.609375 -27.0625 2.4375 -28.507812 2.4375 -29.8125 C 2.4375 -34.238281 3.609375 -38.046875 5.953125 -41.234375 C 8.304688 -44.421875 11.859375 -46.5 16.609375 -47.46875 L 24.78125 -41.875 Z M 20.984375 -24.140625 C 20.984375 -23.171875 21.28125 -22.382812 21.875 -21.78125 C 22.46875 -21.1875 23.273438 -20.890625 24.296875 -20.890625 C 25.273438 -20.890625 26.0625 -21.1875 26.65625 -21.78125 C 27.25 -22.382812 27.546875 -23.171875 27.546875 -24.140625 C 27.546875 -25.109375 27.25 -25.898438 26.65625 -26.515625 C 26.0625 -27.140625 25.273438 -27.453125 24.296875 -27.453125 C 23.273438 -27.453125 22.46875 -27.140625 21.875 -26.515625 C 21.28125 -25.898438 20.984375 -25.109375 20.984375 -24.140625 Z M 20.984375 -24.140625 "/></g></g></g><g fill="#000000" fill-opacity="1"><g transform="translate(1208.715404, 389.719863)"><g><path d="M 23.734375 -47.46875 C 27.671875 -47.46875 31.140625 -46.859375 34.140625 -45.640625 C 37.140625 -44.429688 39.460938 -42.742188 41.109375 -40.578125 C 42.753906 -38.421875 43.578125 -35.910156 43.578125 -33.046875 L 43.578125 -11.34375 C 43.578125 -7.5625 41.914062 -4.585938 38.59375 -2.421875 C 35.269531 -0.265625 30.773438 0.8125 25.109375 0.8125 C 19.390625 0.8125 14.90625 -0.28125 11.65625 -2.46875 C 8.414062 -4.65625 6.796875 -7.613281 6.796875 -11.34375 L 6.796875 -21.875 C 6.796875 -24.675781 7.710938 -26.925781 9.546875 -28.625 C 11.390625 -30.332031 13.769531 -31.1875 16.6875 -31.1875 C 19.550781 -31.1875 21.84375 -30.390625 23.5625 -28.796875 C 25.289062 -27.203125 26.15625 -25.132812 26.15625 -22.59375 C 26.15625 -20.0625 25.332031 -18.023438 23.6875 -16.484375 C 22.039062 -14.941406 19.953125 -14.171875 17.421875 -14.171875 L 17.015625 -14.171875 L 17.015625 -11.90625 C 17.015625 -10.445312 17.78125 -9.3125 19.3125 -8.5 C 20.851562 -7.695312 22.835938 -7.296875 25.265625 -7.296875 C 27.910156 -7.296875 29.894531 -7.765625 31.21875 -8.703125 C 32.539062 -9.648438 33.203125 -10.9375 33.203125 -12.5625 L 33.203125 -32.640625 C 33.203125 -34.640625 32.320312 -36.257812 30.5625 -37.5 C 28.8125 -38.738281 26.484375 -39.359375 23.578125 -39.359375 C 20.765625 -39.359375 18.34375 -38.78125 16.3125 -37.625 C 14.289062 -36.46875 13.09375 -34.914062 12.71875 -32.96875 L 2.671875 -32.96875 C 2.890625 -35.882812 3.914062 -38.4375 5.75 -40.625 C 7.582031 -42.8125 10.050781 -44.5 13.15625 -45.6875 C 16.257812 -46.875 19.785156 -47.46875 23.734375 -47.46875 Z M 17.5 -26.15625 C 16.414062 -26.15625 15.550781 -25.832031 14.90625 -25.1875 C 14.257812 -24.539062 13.9375 -23.707031 13.9375 -22.6875 C 13.9375 -21.601562 14.257812 -20.734375 14.90625 -20.078125 C 15.550781 -19.429688 16.414062 -19.109375 17.5 -19.109375 C 18.519531 -19.109375 19.367188 -19.429688 20.046875 -20.078125 C 20.722656 -20.734375 21.0625 -21.601562 21.0625 -22.6875 C 21.0625 -23.707031 20.722656 -24.539062 20.046875 -25.1875 C 19.367188 -25.832031 18.519531 -26.15625 17.5 -26.15625 Z M 17.5 -26.15625 "/></g></g></g><g fill="#000000" fill-opacity="1"><g transform="translate(1257.396416, 389.719863)"><g><path d="M 17.421875 -39.359375 C 16.234375 -39.359375 15.191406 -39.035156 14.296875 -38.390625 C 13.398438 -37.742188 12.925781 -36.910156 12.875 -35.890625 C 19.46875 -35.285156 24.707031 -34.023438 28.59375 -32.109375 C 32.476562 -30.191406 34.421875 -27.859375 34.421875 -25.109375 L 34.421875 -8.671875 C 34.421875 -5.859375 33.488281 -3.570312 31.625 -1.8125 C 29.769531 -0.0625 27.351562 0.8125 24.375 0.8125 C 21.570312 0.8125 19.28125 -0.0078125 17.5 -1.65625 C 15.71875 -3.300781 14.828125 -5.394531 14.828125 -7.9375 C 14.828125 -10.53125 15.632812 -12.625 17.25 -14.21875 C 18.875 -15.8125 21.007812 -16.609375 23.65625 -16.609375 L 24.0625 -16.609375 L 24.0625 -23.40625 C 24.0625 -24.976562 21.75 -26.34375 17.125 -27.5 C 12.507812 -28.65625 7.445312 -29.367188 1.9375 -29.640625 C 2 -35.253906 3.242188 -39.628906 5.671875 -42.765625 C 8.097656 -45.898438 11.390625 -47.46875 15.546875 -47.46875 C 17.003906 -47.46875 18.285156 -47.34375 19.390625 -47.09375 C 20.503906 -46.851562 21.707031 -46.519531 23 -46.09375 C 23.757812 -45.820312 24.53125 -45.585938 25.3125 -45.390625 C 26.09375 -45.203125 26.804688 -45.109375 27.453125 -45.109375 C 28.316406 -45.109375 29.070312 -45.363281 29.71875 -45.875 C 30.375 -46.394531 30.835938 -47.0625 31.109375 -47.875 L 38.234375 -45.6875 C 37.523438 -42.875 36.375 -40.6875 34.78125 -39.125 C 33.195312 -37.5625 31.378906 -36.78125 29.328125 -36.78125 C 28.398438 -36.78125 27.53125 -36.882812 26.71875 -37.09375 C 25.914062 -37.3125 24.835938 -37.632812 23.484375 -38.0625 C 20.898438 -38.925781 18.878906 -39.359375 17.421875 -39.359375 Z M 23.578125 -4.296875 C 24.648438 -4.296875 25.523438 -4.628906 26.203125 -5.296875 C 26.878906 -5.972656 27.21875 -6.851562 27.21875 -7.9375 C 27.21875 -9.019531 26.878906 -9.894531 26.203125 -10.5625 C 25.523438 -11.238281 24.648438 -11.578125 23.578125 -11.578125 C 22.546875 -11.578125 21.691406 -11.238281 21.015625 -10.5625 C 20.335938 -9.894531 20 -9.019531 20 -7.9375 C 20 -6.851562 20.335938 -5.972656 21.015625 -5.296875 C 21.691406 -4.628906 22.546875 -4.296875 23.578125 -4.296875 Z M 23.578125 -4.296875 "/></g></g></g><g fill="#000000" fill-opacity="1"><g transform="translate(1299.51644, 389.719863)"><g><path d="M 0.328125 -79.625 C 0.328125 -76.976562 -0.476562 -74.976562 -2.09375 -73.625 C -3.71875 -72.28125 -6.476562 -70.984375 -10.375 -69.734375 L -11.828125 -69.25 C -10.265625 -67.6875 -9.484375 -65.769531 -9.484375 -63.5 C -9.484375 -61.125 -10.25 -59.179688 -11.78125 -57.671875 C -13.320312 -56.160156 -15.304688 -55.40625 -17.734375 -55.40625 C -20.222656 -55.40625 -22.222656 -56.1875 -23.734375 -57.75 C -25.242188 -59.320312 -26 -61.375 -26 -63.90625 C -26 -66.28125 -25.320312 -68.179688 -23.96875 -69.609375 C -22.625 -71.046875 -21.25 -72.046875 -19.84375 -72.609375 C -18.4375 -73.179688 -16.113281 -73.976562 -12.875 -75 C -11.039062 -75.539062 -9.675781 -76.109375 -8.78125 -76.703125 C -7.894531 -77.296875 -7.425781 -78.269531 -7.375 -79.625 Z M -17.5 -60.1875 C -16.632812 -60.1875 -15.914062 -60.484375 -15.34375 -61.078125 C -14.78125 -61.671875 -14.5 -62.425781 -14.5 -63.34375 C -14.5 -64.257812 -14.78125 -64.988281 -15.34375 -65.53125 C -15.914062 -66.070312 -16.632812 -66.34375 -17.5 -66.34375 C -18.363281 -66.34375 -19.0625 -66.054688 -19.59375 -65.484375 C -20.132812 -64.921875 -20.40625 -64.207031 -20.40625 -63.34375 C -20.40625 -62.425781 -20.132812 -61.671875 -19.59375 -61.078125 C -19.0625 -60.484375 -18.363281 -60.1875 -17.5 -60.1875 Z M -17.5 -60.1875 "/></g></g></g><g fill="#000000" fill-opacity="1"><g transform="translate(1297.734457, 389.719863)"><g><path d="M 33.609375 -46.65625 C 35.929688 -46.65625 37.796875 -45.976562 39.203125 -44.625 C 40.609375 -43.28125 41.3125 -41.5 41.3125 -39.28125 L 41.3125 0 L 31.015625 0 L 31.015625 -36.6875 C 31.015625 -37.601562 30.53125 -38.117188 29.5625 -38.234375 C 27.726562 -35.046875 25.363281 -32.597656 22.46875 -30.890625 C 19.582031 -29.191406 16.492188 -28.34375 13.203125 -28.34375 C 9.585938 -28.34375 6.722656 -29.234375 4.609375 -31.015625 C 2.503906 -32.804688 1.453125 -35.210938 1.453125 -38.234375 C 1.453125 -40.984375 2.328125 -43.207031 4.078125 -44.90625 C 5.835938 -46.613281 8.175781 -47.46875 11.09375 -47.46875 C 14.007812 -47.46875 16.34375 -46.644531 18.09375 -45 C 19.851562 -43.351562 20.734375 -41.234375 20.734375 -38.640625 C 20.734375 -38.253906 20.679688 -37.796875 20.578125 -37.265625 C 22.242188 -38.234375 23.601562 -39.539062 24.65625 -41.1875 C 25.71875 -42.832031 26.410156 -44.65625 26.734375 -46.65625 Z M 11.015625 -35.078125 C 12.046875 -35.078125 12.894531 -35.410156 13.5625 -36.078125 C 14.238281 -36.753906 14.578125 -37.632812 14.578125 -38.71875 C 14.578125 -39.800781 14.238281 -40.675781 13.5625 -41.34375 C 12.894531 -42.019531 12.046875 -42.359375 11.015625 -42.359375 C 9.929688 -42.359375 9.050781 -42.019531 8.375 -41.34375 C 7.707031 -40.675781 7.375 -39.800781 7.375 -38.71875 C 7.375 -37.632812 7.707031 -36.753906 8.375 -36.078125 C 9.050781 -35.410156 9.929688 -35.078125 11.015625 -35.078125 Z M 11.015625 -35.078125 "/></g></g></g><g fill="#000000" fill-opacity="1"><g transform="translate(669.663051, 488.719858)"><g><path d="M 4.359375 -5.375 C 7.617188 -7.726562 10.867188 -10.546875 14.109375 -13.828125 C 17.347656 -17.117188 20.097656 -20.625 22.359375 -24.34375 C 24.628906 -28.0625 25.765625 -31.578125 25.765625 -34.890625 C 25.765625 -37.421875 25.039062 -39.421875 23.59375 -40.890625 C 22.144531 -42.367188 20.175781 -43.109375 17.6875 -43.109375 C 15.414062 -43.109375 13.269531 -42.5625 11.25 -41.46875 C 9.238281 -40.382812 7.640625 -38.9375 6.453125 -37.125 L 3.125 -40.875 C 4.53125 -43.1875 6.535156 -45 9.140625 -46.3125 C 11.753906 -47.625 14.625 -48.28125 17.75 -48.28125 C 22.1875 -48.28125 25.695312 -47.085938 28.28125 -44.703125 C 30.863281 -42.328125 32.15625 -39.125 32.15625 -35.09375 C 32.15625 -30.28125 30.265625 -25.265625 26.484375 -20.046875 C 22.703125 -14.835938 18.066406 -9.8125 12.578125 -4.96875 L 34.265625 -4.96875 L 34.265625 0 L 4.359375 0 Z M 4.359375 -5.375 "/></g></g></g><g fill="#000000" fill-opacity="1"><g transform="translate(707.05877, 488.719858)"><g><path d="M 17.8125 0.6875 C 14.644531 0.6875 11.734375 0.0507812 9.078125 -1.21875 C 6.421875 -2.488281 4.414062 -4.191406 3.0625 -6.328125 L 6.046875 -10.34375 C 7.367188 -8.476562 9.035156 -7.035156 11.046875 -6.015625 C 13.066406 -4.992188 15.253906 -4.484375 17.609375 -4.484375 C 20.785156 -4.484375 23.289062 -5.492188 25.125 -7.515625 C 26.957031 -9.535156 27.875 -12.265625 27.875 -15.703125 C 27.875 -19.015625 27.035156 -21.632812 25.359375 -23.5625 C 23.679688 -25.488281 21.414062 -26.453125 18.5625 -26.453125 C 16.789062 -26.453125 15.125 -26.03125 13.5625 -25.1875 C 12 -24.351562 10.785156 -23.234375 9.921875 -21.828125 L 4.6875 -21.828125 L 6.9375 -47.59375 L 32.703125 -47.59375 L 32.703125 -42.4375 L 12.578125 -42.4375 L 11.359375 -28.5625 C 12.265625 -29.425781 13.519531 -30.101562 15.125 -30.59375 C 16.738281 -31.09375 18.40625 -31.34375 20.125 -31.34375 C 24.4375 -31.34375 27.882812 -29.9375 30.46875 -27.125 C 33.050781 -24.320312 34.34375 -20.5625 34.34375 -15.84375 C 34.34375 -12.53125 33.660156 -9.628906 32.296875 -7.140625 C 30.941406 -4.648438 29.015625 -2.722656 26.515625 -1.359375 C 24.023438 0.00390625 21.125 0.6875 17.8125 0.6875 Z M 17.8125 0.6875 "/></g></g></g><g fill="#000000" fill-opacity="1"><g transform="translate(744.45449, 488.719858)"><g><path d="M 19.109375 0.6875 C 15.847656 0.6875 13.015625 -0.0625 10.609375 -1.5625 C 8.203125 -3.0625 6.34375 -5.171875 5.03125 -7.890625 C 3.71875 -10.609375 3.0625 -13.757812 3.0625 -17.34375 C 3.0625 -22.320312 4.257812 -27.054688 6.65625 -31.546875 C 9.0625 -36.035156 12.347656 -39.785156 16.515625 -42.796875 C 20.691406 -45.816406 25.273438 -47.691406 30.265625 -48.421875 L 30.875 -43.59375 C 26.476562 -42.59375 22.507812 -40.628906 18.96875 -37.703125 C 15.4375 -34.773438 12.96875 -31.320312 11.5625 -27.34375 C 12.238281 -28.25 13.300781 -29.003906 14.75 -29.609375 C 16.207031 -30.222656 17.816406 -30.53125 19.578125 -30.53125 C 22.660156 -30.53125 25.320312 -29.847656 27.5625 -28.484375 C 29.8125 -27.128906 31.515625 -25.269531 32.671875 -22.90625 C 33.828125 -20.550781 34.40625 -17.878906 34.40625 -14.890625 C 34.40625 -11.898438 33.78125 -9.222656 32.53125 -6.859375 C 31.289062 -4.503906 29.523438 -2.65625 27.234375 -1.3125 C 24.941406 0.0195312 22.234375 0.6875 19.109375 0.6875 Z M 18.96875 -4.484375 C 21.820312 -4.484375 24.085938 -5.421875 25.765625 -7.296875 C 27.441406 -9.179688 28.28125 -11.734375 28.28125 -14.953125 C 28.28125 -18.128906 27.441406 -20.65625 25.765625 -22.53125 C 24.085938 -24.414062 21.820312 -25.359375 18.96875 -25.359375 C 16.15625 -25.359375 13.898438 -24.414062 12.203125 -22.53125 C 10.503906 -20.65625 9.65625 -18.128906 9.65625 -14.953125 C 9.65625 -11.785156 10.503906 -9.25 12.203125 -7.34375 C 13.898438 -5.4375 16.15625 -4.484375 18.96875 -4.484375 Z M 18.96875 -4.484375 "/></g></g></g><g fill="#000000" fill-opacity="1"><g transform="translate(781.850209, 488.719858)"><g><path d="M 18.703125 0.6875 C 13.484375 0.6875 9.488281 -1.382812 6.71875 -5.53125 C 3.957031 -9.6875 2.578125 -15.773438 2.578125 -23.796875 C 2.578125 -31.828125 3.957031 -37.914062 6.71875 -42.0625 C 9.488281 -46.207031 13.484375 -48.28125 18.703125 -48.28125 C 23.910156 -48.28125 27.894531 -46.207031 30.65625 -42.0625 C 33.425781 -37.914062 34.8125 -31.828125 34.8125 -23.796875 C 34.8125 -15.773438 33.425781 -9.6875 30.65625 -5.53125 C 27.894531 -1.382812 23.910156 0.6875 18.703125 0.6875 Z M 18.703125 -4.078125 C 21.921875 -4.078125 24.367188 -5.734375 26.046875 -9.046875 C 27.722656 -12.359375 28.5625 -17.273438 28.5625 -23.796875 C 28.5625 -30.328125 27.722656 -35.242188 26.046875 -38.546875 C 24.367188 -41.859375 21.921875 -43.515625 18.703125 -43.515625 C 15.484375 -43.515625 13.035156 -41.859375 11.359375 -38.546875 C 9.679688 -35.242188 8.84375 -30.328125 8.84375 -23.796875 C 8.84375 -17.273438 9.679688 -12.359375 11.359375 -9.046875 C 13.035156 -5.734375 15.484375 -4.078125 18.703125 -4.078125 Z M 18.703125 -4.078125 "/></g></g></g><g fill="#000000" fill-opacity="1"><g transform="translate(819.245929, 488.719858)"><g/></g></g><g fill="#000000" fill-opacity="1"><g transform="translate(835.768038, 488.719858)"><g><path d="M 4.078125 -47.59375 L 19.109375 -47.59375 L 19.109375 -43.109375 L 10.203125 -43.109375 L 10.203125 3.0625 L 19.109375 3.0625 L 19.109375 7.546875 L 4.078125 7.546875 Z M 4.078125 -47.59375 "/></g></g></g><g fill="#000000" fill-opacity="1"><g transform="translate(856.709638, 488.719858)"><g><path d="M 31.078125 -11.90625 C 32.296875 -11.40625 33.28125 -10.597656 34.03125 -9.484375 C 34.78125 -8.367188 35.15625 -7.179688 35.15625 -5.921875 C 35.15625 -3.960938 34.519531 -2.359375 33.25 -1.109375 C 31.976562 0.128906 30.367188 0.75 28.421875 0.75 C 26.296875 0.75 24.5625 0.140625 23.21875 -1.078125 C 21.882812 -2.304688 21.21875 -3.894531 21.21875 -5.84375 L 21.21875 -6.125 C 18.039062 -4.664062 15.59375 -2.625 13.875 0 L 7.8125 0 L 7.8125 -8.765625 C 7.8125 -10.222656 8.109375 -11.472656 8.703125 -12.515625 C 6.847656 -12.554688 5.328125 -13.164062 4.140625 -14.34375 C 2.960938 -15.519531 2.375 -17.0625 2.375 -18.96875 C 2.375 -20.832031 3 -22.351562 4.25 -23.53125 C 5.5 -24.707031 7.097656 -25.296875 9.046875 -25.296875 C 11.085938 -25.296875 12.71875 -24.726562 13.9375 -23.59375 C 15.164062 -22.457031 15.78125 -21.007812 15.78125 -19.25 C 15.78125 -18.5625 15.664062 -17.832031 15.4375 -17.0625 C 15.207031 -16.289062 14.867188 -15.382812 14.421875 -14.34375 C 13.648438 -12.4375 13.265625 -11.054688 13.265625 -10.203125 L 13.265625 -5.578125 C 15.078125 -7.890625 18.539062 -10 23.65625 -11.90625 C 24.84375 -12.3125 25.851562 -13.171875 26.6875 -14.484375 C 27.53125 -15.796875 27.953125 -17.25 27.953125 -18.84375 L 27.953125 -28.484375 C 27.953125 -30.523438 27.097656 -32.144531 25.390625 -33.34375 C 23.691406 -34.550781 21.394531 -35.15625 18.5 -35.15625 C 15.6875 -35.15625 13.316406 -34.550781 11.390625 -33.34375 C 9.460938 -32.144531 8.316406 -30.523438 7.953125 -28.484375 L 2.171875 -28.484375 C 2.441406 -31.929688 4.0625 -34.6875 7.03125 -36.75 C 10 -38.8125 13.84375 -39.84375 18.5625 -39.84375 C 21.550781 -39.84375 24.191406 -39.378906 26.484375 -38.453125 C 28.773438 -37.523438 30.554688 -36.207031 31.828125 -34.5 C 33.097656 -32.800781 33.734375 -30.84375 33.734375 -28.625 L 33.734375 -18.84375 C 33.734375 -17.476562 33.492188 -16.191406 33.015625 -14.984375 C 32.535156 -13.785156 31.890625 -12.757812 31.078125 -11.90625 Z M 9.046875 -15.984375 C 9.910156 -15.984375 10.613281 -16.253906 11.15625 -16.796875 C 11.695312 -17.335938 11.96875 -18.039062 11.96875 -18.90625 C 11.96875 -19.769531 11.695312 -20.472656 11.15625 -21.015625 C 10.613281 -21.554688 9.910156 -21.828125 9.046875 -21.828125 C 8.179688 -21.828125 7.476562 -21.554688 6.9375 -21.015625 C 6.394531 -20.472656 6.125 -19.769531 6.125 -18.90625 C 6.125 -18.039062 6.394531 -17.335938 6.9375 -16.796875 C 7.476562 -16.253906 8.179688 -15.984375 9.046875 -15.984375 Z M 28.15625 -2.78125 C 29.101562 -2.78125 29.859375 -3.0625 30.421875 -3.625 C 30.992188 -4.195312 31.28125 -4.960938 31.28125 -5.921875 C 31.28125 -6.828125 30.992188 -7.570312 30.421875 -8.15625 C 29.859375 -8.75 29.101562 -9.046875 28.15625 -9.046875 C 27.25 -9.046875 26.507812 -8.75 25.9375 -8.15625 C 25.375 -7.570312 25.09375 -6.828125 25.09375 -5.921875 C 25.09375 -4.960938 25.375 -4.195312 25.9375 -3.625 C 26.507812 -3.0625 27.25 -2.78125 28.15625 -2.78125 Z M 28.15625 -2.78125 "/></g></g></g><g fill="#000000" fill-opacity="1"><g transform="translate(895.465202, 488.719858)"><g><path d="M 38.828125 -39.171875 L 38.828125 -8.5 C 38.828125 -5.644531 37.566406 -3.398438 35.046875 -1.765625 C 32.535156 -0.128906 29.054688 0.6875 24.609375 0.6875 C 20.171875 0.6875 16.691406 -0.128906 14.171875 -1.765625 C 11.660156 -3.398438 10.40625 -5.644531 10.40625 -8.5 L 10.40625 -26.3125 C 9.726562 -26.082031 9.070312 -25.96875 8.4375 -25.96875 C 6.4375 -25.96875 4.789062 -26.613281 3.5 -27.90625 C 2.207031 -29.207031 1.5625 -30.898438 1.5625 -32.984375 C 1.5625 -34.972656 2.238281 -36.613281 3.59375 -37.90625 C 4.957031 -39.195312 6.679688 -39.84375 8.765625 -39.84375 C 10.941406 -39.84375 12.722656 -39.175781 14.109375 -37.84375 C 15.492188 -36.507812 16.1875 -34.773438 16.1875 -32.640625 L 16.1875 -9.109375 C 16.1875 -7.523438 16.929688 -6.28125 18.421875 -5.375 C 19.921875 -4.46875 21.984375 -4.015625 24.609375 -4.015625 C 27.242188 -4.015625 29.304688 -4.46875 30.796875 -5.375 C 32.296875 -6.28125 33.046875 -7.523438 33.046875 -9.109375 L 33.046875 -39.171875 Z M 5.296875 -32.90625 C 5.296875 -32 5.601562 -31.238281 6.21875 -30.625 C 6.832031 -30.019531 7.59375 -29.71875 8.5 -29.71875 C 9.445312 -29.71875 10.21875 -30.019531 10.8125 -30.625 C 11.40625 -31.238281 11.703125 -32 11.703125 -32.90625 C 11.703125 -33.8125 11.40625 -34.570312 10.8125 -35.1875 C 10.21875 -35.800781 9.445312 -36.109375 8.5 -36.109375 C 7.59375 -36.109375 6.832031 -35.800781 6.21875 -35.1875 C 5.601562 -34.570312 5.296875 -33.8125 5.296875 -32.90625 Z M 5.296875 -32.90625 "/></g></g><g transform="translate(939.326811, 488.719858)"><g><path d="M 5.171875 -62.484375 C 5.117188 -59.222656 4.367188 -56.359375 2.921875 -53.890625 C 1.472656 -51.421875 -0.53125 -49.515625 -3.09375 -48.171875 C -5.65625 -46.835938 -8.566406 -46.171875 -11.828125 -46.171875 C -14.410156 -46.171875 -16.6875 -46.554688 -18.65625 -47.328125 C -20.632812 -48.097656 -22.164062 -49.171875 -23.25 -50.546875 C -24.34375 -51.929688 -24.890625 -53.488281 -24.890625 -55.21875 C -24.890625 -57.125 -24.253906 -58.6875 -22.984375 -59.90625 C -21.710938 -61.132812 -20.101562 -61.75 -18.15625 -61.75 C -16.207031 -61.75 -14.597656 -61.132812 -13.328125 -59.90625 C -12.054688 -58.6875 -11.421875 -57.097656 -11.421875 -55.140625 C -11.421875 -54.097656 -11.613281 -53.132812 -12 -52.25 C -12.382812 -51.375 -12.914062 -50.640625 -13.59375 -50.046875 C -13.1875 -50.003906 -12.597656 -49.984375 -11.828125 -49.984375 C -8.160156 -49.984375 -5.25 -51.148438 -3.09375 -53.484375 C -0.9375 -55.816406 0.160156 -58.816406 0.203125 -62.484375 Z M -21.359375 -55.28125 C -21.359375 -54.375 -21.050781 -53.625 -20.4375 -53.03125 C -19.820312 -52.445312 -19.0625 -52.15625 -18.15625 -52.15625 C -17.25 -52.15625 -16.5 -52.445312 -15.90625 -53.03125 C -15.320312 -53.625 -15.03125 -54.375 -15.03125 -55.28125 C -15.03125 -56.144531 -15.320312 -56.867188 -15.90625 -57.453125 C -16.5 -58.046875 -17.25 -58.34375 -18.15625 -58.34375 C -19.0625 -58.34375 -19.820312 -58.046875 -20.4375 -57.453125 C -21.050781 -56.867188 -21.359375 -56.144531 -21.359375 -55.28125 Z M -21.359375 -55.28125 "/></g></g></g><g fill="#000000" fill-opacity="1"><g transform="translate(939.320172, 488.719858)"><g><path d="M 38.828125 -39.171875 L 38.828125 -8.5 C 38.828125 -5.644531 37.566406 -3.398438 35.046875 -1.765625 C 32.535156 -0.128906 29.054688 0.6875 24.609375 0.6875 C 20.171875 0.6875 16.691406 -0.128906 14.171875 -1.765625 C 11.660156 -3.398438 10.40625 -5.644531 10.40625 -8.5 L 10.40625 -26.3125 C 9.726562 -26.082031 9.070312 -25.96875 8.4375 -25.96875 C 6.4375 -25.96875 4.789062 -26.613281 3.5 -27.90625 C 2.207031 -29.207031 1.5625 -30.898438 1.5625 -32.984375 C 1.5625 -34.972656 2.238281 -36.613281 3.59375 -37.90625 C 4.957031 -39.195312 6.679688 -39.84375 8.765625 -39.84375 C 10.941406 -39.84375 12.722656 -39.175781 14.109375 -37.84375 C 15.492188 -36.507812 16.1875 -34.773438 16.1875 -32.640625 L 16.1875 -9.109375 C 16.1875 -7.523438 16.929688 -6.28125 18.421875 -5.375 C 19.921875 -4.46875 21.984375 -4.015625 24.609375 -4.015625 C 27.242188 -4.015625 29.304688 -4.46875 30.796875 -5.375 C 32.296875 -6.28125 33.046875 -7.523438 33.046875 -9.109375 L 33.046875 -39.171875 Z M 5.296875 -32.90625 C 5.296875 -32 5.601562 -31.238281 6.21875 -30.625 C 6.832031 -30.019531 7.59375 -29.71875 8.5 -29.71875 C 9.445312 -29.71875 10.21875 -30.019531 10.8125 -30.625 C 11.40625 -31.238281 11.703125 -32 11.703125 -32.90625 C 11.703125 -33.8125 11.40625 -34.570312 10.8125 -35.1875 C 10.21875 -35.800781 9.445312 -36.109375 8.5 -36.109375 C 7.59375 -36.109375 6.832031 -35.800781 6.21875 -35.1875 C 5.601562 -34.570312 5.296875 -33.8125 5.296875 -32.90625 Z M 5.296875 -32.90625 "/></g></g></g><g fill="#000000" fill-opacity="1"><g transform="translate(983.175143, 488.719858)"><g><path d="M 18.765625 -39.84375 C 23.566406 -39.84375 27.375 -38.789062 30.1875 -36.6875 C 33 -34.582031 34.40625 -31.738281 34.40625 -28.15625 L 34.40625 0 L 28.703125 0 L 28.703125 -15.984375 C 28.703125 -18.023438 27.722656 -19.632812 25.765625 -20.8125 C 23.816406 -21.988281 21.644531 -22.578125 19.25 -22.578125 C 16.84375 -22.578125 14.820312 -22 13.1875 -20.84375 C 11.5625 -19.6875 10.75 -18.085938 10.75 -16.046875 L 10.75 -12.859375 C 11.425781 -13.078125 12.082031 -13.1875 12.71875 -13.1875 C 14.707031 -13.1875 16.335938 -12.539062 17.609375 -11.25 C 18.878906 -9.957031 19.515625 -8.269531 19.515625 -6.1875 C 19.515625 -4.195312 18.84375 -2.550781 17.5 -1.25 C 16.164062 0.0390625 14.4375 0.6875 12.3125 0.6875 C 10.132812 0.6875 8.363281 0.0195312 7 -1.3125 C 5.644531 -2.65625 4.96875 -4.394531 4.96875 -6.53125 L 4.96875 -16.046875 C 4.96875 -18.316406 5.578125 -20.265625 6.796875 -21.890625 C 8.023438 -23.523438 9.691406 -24.785156 11.796875 -25.671875 C 13.898438 -26.554688 16.25 -27 18.84375 -27 C 20.65625 -27 22.441406 -26.703125 24.203125 -26.109375 C 25.972656 -25.523438 27.472656 -24.597656 28.703125 -23.328125 L 28.703125 -28.359375 C 28.703125 -30.441406 27.804688 -32.09375 26.015625 -33.3125 C 24.222656 -34.539062 21.804688 -35.15625 18.765625 -35.15625 C 15.867188 -35.15625 13.441406 -34.566406 11.484375 -33.390625 C 9.535156 -32.210938 8.359375 -30.625 7.953125 -28.625 L 2.375 -28.625 C 2.695312 -32.070312 4.332031 -34.800781 7.28125 -36.8125 C 10.226562 -38.832031 14.054688 -39.84375 18.765625 -39.84375 Z M 15.78125 -6.25 C 15.78125 -7.15625 15.484375 -7.914062 14.890625 -8.53125 C 14.304688 -9.144531 13.554688 -9.453125 12.640625 -9.453125 C 11.691406 -9.453125 10.910156 -9.144531 10.296875 -8.53125 C 9.691406 -7.914062 9.390625 -7.15625 9.390625 -6.25 C 9.390625 -5.34375 9.691406 -4.582031 10.296875 -3.96875 C 10.910156 -3.363281 11.691406 -3.0625 12.640625 -3.0625 C 13.554688 -3.0625 14.304688 -3.363281 14.890625 -3.96875 C 15.484375 -4.582031 15.78125 -5.34375 15.78125 -6.25 Z M 15.78125 -6.25 "/></g></g></g><g fill="#000000" fill-opacity="1"><g transform="translate(1022.004578, 488.719858)"><g><path d="M -10.546875 -61.40625 L -5.09375 -61.40625 L -5.09375 -46.859375 L -10.546875 -46.859375 Z M -10.546875 -61.40625 "/></g></g></g><g fill="#000000" fill-opacity="1"><g transform="translate(1022.610634, 488.719858)"><g><path d="M 22.171875 -28.96875 C 22.171875 -30.875 21.546875 -32.378906 20.296875 -33.484375 C 19.046875 -34.597656 17.332031 -35.15625 15.15625 -35.15625 C 12.894531 -35.15625 11.082031 -34.519531 9.71875 -33.25 C 8.363281 -31.976562 7.6875 -30.253906 7.6875 -28.078125 L 2.046875 -28.078125 C 2.046875 -31.710938 3.222656 -34.582031 5.578125 -36.6875 C 7.929688 -38.789062 11.125 -39.84375 15.15625 -39.84375 C 19.101562 -39.84375 22.222656 -38.878906 24.515625 -36.953125 C 26.804688 -35.023438 27.953125 -32.410156 27.953125 -29.109375 L 27.953125 0 L 22.171875 0 Z M 22.171875 -28.96875 "/></g></g></g><g fill="#000000" fill-opacity="1"><g transform="translate(1055.586829, 488.719858)"><g><path d="M 36.25 -42.96875 C 35.695312 -40.800781 34.15625 -38.285156 31.625 -35.421875 C 33.476562 -33.429688 34.40625 -31.007812 34.40625 -28.15625 L 34.40625 0 L 28.703125 0 L 28.703125 -15.5 C 28.703125 -17.539062 27.722656 -19.148438 25.765625 -20.328125 C 23.816406 -21.503906 21.644531 -22.09375 19.25 -22.09375 C 16.84375 -22.09375 14.820312 -21.515625 13.1875 -20.359375 C 11.5625 -19.203125 10.75 -17.609375 10.75 -15.578125 L 10.75 -12.859375 C 11.425781 -13.078125 12.082031 -13.1875 12.71875 -13.1875 C 14.707031 -13.1875 16.335938 -12.539062 17.609375 -11.25 C 18.878906 -9.957031 19.515625 -8.269531 19.515625 -6.1875 C 19.515625 -4.195312 18.84375 -2.550781 17.5 -1.25 C 16.164062 0.0390625 14.4375 0.6875 12.3125 0.6875 C 10.132812 0.6875 8.363281 0.0195312 7 -1.3125 C 5.644531 -2.65625 4.96875 -4.394531 4.96875 -6.53125 L 4.96875 -15.578125 C 4.96875 -18.378906 5.914062 -20.722656 7.8125 -22.609375 C 9.71875 -24.492188 12.210938 -25.707031 15.296875 -26.25 C 19.015625 -28.96875 22.050781 -31.617188 24.40625 -34.203125 C 22.78125 -34.835938 20.898438 -35.15625 18.765625 -35.15625 C 15.867188 -35.15625 13.441406 -34.566406 11.484375 -33.390625 C 9.535156 -32.210938 8.359375 -30.625 7.953125 -28.625 L 2.375 -28.625 C 2.695312 -32.070312 4.332031 -34.800781 7.28125 -36.8125 C 10.226562 -38.832031 14.054688 -39.84375 18.765625 -39.84375 C 22.117188 -39.84375 25.066406 -39.273438 27.609375 -38.140625 C 28.742188 -39.910156 29.421875 -41.519531 29.640625 -42.96875 Z M 28.703125 -28.359375 C 28.703125 -29.535156 28.382812 -30.625 27.75 -31.625 C 25.75 -29.8125 23.546875 -28.066406 21.140625 -26.390625 C 24.316406 -25.972656 26.835938 -24.816406 28.703125 -22.921875 Z M 15.78125 -6.25 C 15.78125 -7.15625 15.484375 -7.914062 14.890625 -8.53125 C 14.304688 -9.144531 13.554688 -9.453125 12.640625 -9.453125 C 11.691406 -9.453125 10.910156 -9.144531 10.296875 -8.53125 C 9.691406 -7.914062 9.390625 -7.15625 9.390625 -6.25 C 9.390625 -5.34375 9.691406 -4.582031 10.296875 -3.96875 C 10.910156 -3.363281 11.691406 -3.0625 12.640625 -3.0625 C 13.554688 -3.0625 14.304688 -3.363281 14.890625 -3.96875 C 15.484375 -4.582031 15.78125 -5.34375 15.78125 -6.25 Z M 15.78125 -6.25 "/></g></g></g><g fill="#000000" fill-opacity="1"><g transform="translate(1095.028249, 488.719858)"><g><path d="M -10.34375 14.953125 C -10.882812 15.140625 -11.539062 15.234375 -12.3125 15.234375 C -13.9375 15.234375 -15.269531 14.710938 -16.3125 13.671875 C -17.363281 12.628906 -17.890625 11.289062 -17.890625 9.65625 C -17.890625 8.019531 -17.285156 6.679688 -16.078125 5.640625 C -14.878906 4.597656 -13.394531 4.078125 -11.625 4.078125 C -9.632812 4.078125 -8.035156 4.609375 -6.828125 5.671875 C -5.628906 6.742188 -5.03125 8.070312 -5.03125 9.65625 L -5.03125 22.4375 L -10.34375 22.4375 Z M -12.234375 12.109375 C -11.515625 12.109375 -10.925781 11.878906 -10.46875 11.421875 C -10.019531 10.972656 -9.796875 10.382812 -9.796875 9.65625 C -9.796875 8.925781 -10.019531 8.332031 -10.46875 7.875 C -10.925781 7.425781 -11.515625 7.203125 -12.234375 7.203125 C -12.960938 7.203125 -13.550781 7.425781 -14 7.875 C -14.457031 8.332031 -14.6875 8.925781 -14.6875 9.65625 C -14.6875 10.382812 -14.457031 10.972656 -14 11.421875 C -13.550781 11.878906 -12.960938 12.109375 -12.234375 12.109375 Z M -12.234375 12.109375 "/></g></g></g><g fill="#000000" fill-opacity="1"><g transform="translate(1095.022298, 488.719858)"><g><path d="M 19.453125 -39.84375 C 24.347656 -39.84375 28.195312 -38.617188 31 -36.171875 C 33.8125 -33.722656 35.21875 -30.367188 35.21875 -26.109375 L 35.21875 0 L 29.4375 0 L 29.4375 -25.640625 C 29.4375 -28.671875 28.539062 -31.015625 26.75 -32.671875 C 24.96875 -34.328125 22.535156 -35.15625 19.453125 -35.15625 C 17.085938 -35.15625 15.085938 -34.703125 13.453125 -33.796875 C 11.828125 -32.890625 10.601562 -31.734375 9.78125 -30.328125 C 8.96875 -28.921875 8.5625 -27.445312 8.5625 -25.90625 C 8.5625 -24.90625 8.6875 -23.816406 8.9375 -22.640625 C 9.1875 -21.460938 9.5625 -19.878906 10.0625 -17.890625 C 10.519531 -16.066406 10.859375 -14.585938 11.078125 -13.453125 C 11.304688 -12.328125 11.421875 -11.3125 11.421875 -10.40625 L 11.421875 -9.109375 C 12.378906 -10.515625 14.125 -12.328125 16.65625 -14.546875 L 18.21875 -16.046875 C 16.675781 -16.273438 15.441406 -16.929688 14.515625 -18.015625 C 13.585938 -19.109375 13.125 -20.425781 13.125 -21.96875 C 13.125 -23.6875 13.703125 -25.113281 14.859375 -26.25 C 16.015625 -27.382812 17.5 -27.953125 19.3125 -27.953125 C 21.082031 -27.953125 22.554688 -27.375 23.734375 -26.21875 C 24.910156 -25.0625 25.5 -23.578125 25.5 -21.765625 C 25.5 -20.035156 24.960938 -18.421875 23.890625 -16.921875 C 22.828125 -15.429688 21.210938 -13.597656 19.046875 -11.421875 C 16.773438 -9.203125 15.035156 -7.253906 13.828125 -5.578125 C 12.628906 -3.898438 11.921875 -2.039062 11.703125 0 L 5.984375 0 L 5.984375 -9.515625 C 5.984375 -10.515625 5.550781 -12.738281 4.6875 -16.1875 C 4.101562 -18.363281 3.648438 -20.234375 3.328125 -21.796875 C 3.015625 -23.359375 2.859375 -24.75 2.859375 -25.96875 C 2.859375 -28.507812 3.515625 -30.832031 4.828125 -32.9375 C 6.140625 -35.050781 8.050781 -36.726562 10.5625 -37.96875 C 13.082031 -39.21875 16.046875 -39.84375 19.453125 -39.84375 Z M 16.390625 -21.96875 C 16.390625 -21.101562 16.660156 -20.398438 17.203125 -19.859375 C 17.742188 -19.316406 18.445312 -19.046875 19.3125 -19.046875 C 20.175781 -19.046875 20.867188 -19.316406 21.390625 -19.859375 C 21.910156 -20.398438 22.171875 -21.101562 22.171875 -21.96875 C 22.171875 -22.820312 21.910156 -23.507812 21.390625 -24.03125 C 20.867188 -24.550781 20.175781 -24.8125 19.3125 -24.8125 C 18.445312 -24.8125 17.742188 -24.550781 17.203125 -24.03125 C 16.660156 -23.507812 16.390625 -22.820312 16.390625 -21.96875 Z M 16.390625 -21.96875 "/></g></g></g><g fill="#000000" fill-opacity="1"><g transform="translate(1135.273684, 488.719858)"><g><path d="M 1.84375 3.0625 L 10.75 3.0625 L 10.75 -43.109375 L 1.84375 -43.109375 L 1.84375 -47.59375 L 16.859375 -47.59375 L 16.859375 7.546875 L 1.84375 7.546875 Z M 1.84375 3.0625 "/></g></g></g></svg>