<?xml version="1.0" encoding="UTF-8"?>
<svg version="1.1" viewBox="0 0 1000 1000" width="1000" height="1000" xmlns="http://www.w3.org/2000/svg">
<path transform="translate(476)" d="m0 0h48l36 3 33 5 27 6 26 7 32 11 24 10 25 12 21 11 23 14 16 11 19 14 11 9 13 11 12 11 15 14 12 13 11 12 9 11 14 18 14 20 13 21 12 21 13 26 13 31 12 36 7 26 7 36 4 31 2 28v42l-2 28-4 31-6 31-6 24-9 29-10 26-12 27-10 20-14 24-14 22-12 16-10 13-11 13-7 8-9 10-28 28-8 7-13 11-17 13-18 13-19 12-21 12-23 12-29 13-36 13-32 9-34 7-27 4-21 2-17 1h-42l-28-2-31-4-36-7-33-9-29-10-26-11-25-12-19-10-23-14-16-11-19-14-11-9-13-11-12-11-15-14-12-13-11-12-9-11-14-18-14-20-12-19-13-23-14-28-13-32-12-36-9-36-6-35-3-28-1-16v-48l3-36 5-33 6-27 7-26 12-35 12-28 8-17 12-22 12-20 15-22 12-16 8-10 11-13 22-24 11-11 8-7 11-10 11-9 18-14 16-11 17-11 24-14 17-9 24-11 28-11 34-11 33-8 35-6 28-3z" fill="#9C090D"/>
<path transform="translate(476)" d="m0 0h48l36 3 33 5 27 6 26 7 32 11 24 10 25 12 21 11 23 14 16 11 19 14 11 9 13 11 12 11 15 14 12 13 11 12 9 11 14 18 14 20 13 21 12 21 13 26 13 31 12 36 7 26 7 36 4 31 2 28v42l-2 28-4 31-6 31-6 24-9 29-10 26-12 27-10 20-14 24-14 22-12 16-10 13-11 13-7 8-9 10-28 28-8 7-13 11-17 13-18 13-19 12-21 12-23 12-29 13-36 13-32 9-34 7-27 4-21 2-17 1h-42l-28-2-31-4-36-7-33-9-29-10-26-11-25-12-19-10-23-14-16-11-19-14-11-9-13-11-12-11-15-14-12-13-11-12-9-11-14-18-14-20-12-19-13-23-14-28-13-32-12-36-9-36-6-35-3-28-1-16v-48l3-36 5-33 6-27 7-26 12-35 12-28 8-17 12-22 12-20 15-22 12-16 8-10 11-13 22-24 11-11 8-7 11-10 11-9 18-14 16-11 17-11 24-14 17-9 24-11 28-11 34-11 33-8 35-6 28-3zm1 125-29 3-27 5-24 6-30 10-23 10-16 8-15 8-16 10-20 14-16 13-10 9-8 7-18 18-9 11-8 9-14 19-11 17-12 21-14 29-10 27-7 24-6 27-4 30-1 12v48l3 29 4 23 7 28 9 27 11 26 10 20 10 17 12 18 12 16 9 11 11 12 7 8 12 12 8 7 14 12 16 12 18 12 15 9 23 12 20 9 25 9 24 7 22 5 26 4 23 2h44l30-3 24-4 32-8 29-10 25-11 25-13 24-15 17-13 14-11 13-12 10-9 7-7 7-8 9-10 13-17 10-14 12-19 13-24 12-27 12-36 7-30 4-26 2-22v-44l-3-30-5-28-7-27-10-29-11-25-12-23-13-21-13-18-13-16-10-11-7-8-14-14-8-7-5-4-1-2h8l5-3 9-11 13-16 3-5v-7l-4-6-8-6-5-2h-8v3l2 7h-5l-6 6h-6l-5 4-1 5 4 5 4 1 5-3 9-11 8-2-1-7 5 1 4 3v6l-6 8-13 16-6 7-4 1-1-8 4-2-1-3-4-1h-3l-5-4h-6l-4 4-1 5-24-16-21-12-24-12-23-9-10-4 2-6v-7l-3-3-7-1-4 4-1 5 4 4h2v2l-26-7-32-6-29-3z" fill="#FDFDFD"/>
<path transform="translate(479,217)" d="m0 0 2 2 4 9 5 4 3 1h14l10-5 4-6 1-4 5 2 7 7 13 8 5 2h6l8-5 2 1-4 8 6 2 14 8 12 9 14 12 11 13 8 13 5 11 4 14 1 7v17l-3 20-6 20-8 18-11 18-13 21-10 18-7 16-3 11v15l4 8 8 7 7 1 5-4 1-3-7-1-8-6-3-4-1-3v-11l5-10 10-10 11-7 2-3 1-11 6-5 3-11 2-1 2 9 1 14 3 7-1 9-3 6v11l4 11 7 9 2 6v15l-5 12-7 9-6 7h9l2 3 1 11 8 7 12 12-2 4-15 15-4 2-1 2h9l2 3 3 12 7 12 8 7 10 5-5 5-10 8-9 12-4 11v13l3 7 4 2 6-1 3-4h2l1 7-4 6-9 6-8 2h-8l-13-4-10-6-7-6-6-9-3-9v-12l5-8 5-3h10l3 1-2-4h-7l-17 8-3 1h-8l7 21 10 20 8 12 11 14 8 8h-3l-11-4-16-3-3-5-1-4-9 3-8 3-9-1-3-4 2-6 5-6-12 3-20 6-12 2-13-1-8-2-12 3h-20l-12-4-19-7-1 1 5 9v5l-3 2h-8l-12-3-4-2-4 8-5 2h-7l-7-1-10 8v-3l10-12 16-24 10-19 6-18-9-1-10-4-10-5-8 1v1h7l8 4 6 9 1 4v7l-4 11-4 6-4 5-10 7-11 4-13 1-10-3-8-7-5-10 1-3 5 4 8 1 4-5 2-5v-8l-4-11-8-11-11-10-5-3 1-3 11-8 8-9 6-12 2-9 1-1h8l-6-7-9-10-3-4 1-4 12-15 5-1v-15h11l-10-11-7-11-3-10v-7l4-10 10-15 1-2v-10l-4-9v-10l3-11-2-8 1-6 2-5 4 4 4 10 4 5 3 11 5 4 8 4 5 4 7 11 2 6 1 8-2 7-5 5-6 3h-6l3 6 3 2h8l6-4 4-8 1-3v-15l-5-15-13-25-16-26-9-16-10-21-6-18-3-15-1-8v-14l2-14 6-18 9-15 12-14 14-12 13-8 16-8 5-1-4-8 2-1 8 4 7-1 14-8 11-10z" fill="#FDCE07"/>
<path transform="translate(476)" d="m0 0h48l36 3 33 5 27 6 26 7 32 11 24 10 25 12 21 11 23 14 16 11 19 14 11 9 13 11 12 11 15 14 12 13 11 12 9 11 14 18 14 20 13 21 12 21 13 26 13 31 12 36 7 26 7 36 4 31 2 28v42l-2 28-4 31-6 31-6 24-9 29-10 26-12 27-10 20-14 24-14 22-12 16-10 13-11 13-7 8-9 10-28 28-8 7-13 11-17 13-18 13-19 12-21 12-23 12-29 13-36 13-32 9-34 7-27 4-21 2-17 1h-42l-28-2-31-4-36-7-33-9-29-10-26-11-25-12-19-10-23-14-16-11-19-14-11-9-13-11-12-11-15-14-12-13-11-12-9-11-14-18-14-20-12-19-13-23-14-28-13-32-12-36-9-36-6-35-3-28-1-16v-48l3-36 5-33 6-27 7-26 12-35 12-28 8-17 12-22 12-20 15-22 12-16 8-10 11-13 22-24 11-11 8-7 11-10 11-9 18-14 16-11 17-11 24-14 17-9 24-11 28-11 34-11 33-8 35-6 28-3zm4 30-28 2-30 4-30 6-30 8-29 10-24 10-29 14-18 10-24 15-18 13-14 11-11 9-12 11-8 7-21 21-7 8-12 14-13 17-13 18-13 21-12 21-11 22-13 31-12 36-8 32-5 27-4 35-1 17v40l2 28 4 30 6 30 7 26 11 33 11 26 14 29 14 24 18 27 9 12 11 14 13 15 15 16 14 14 8 7 10 9 14 11 20 15 20 13 22 13 25 13 30 13 22 8 34 10 33 7 27 4 21 2 20 1h30l32-2 30-4 30-6 30-8 32-11 26-11 21-10 23-13 21-13 17-12 13-10 11-9 14-12 7-7 8-7 11-11 7-8 11-12 11-14 13-17 14-21 12-20 14-26 12-27 9-24 9-28 7-29 5-27 4-36 1-20v-30l-2-32-4-30-5-26-6-24-9-28-9-24-13-29-12-23-14-23-13-19-16-21-11-13-11-12-7-8-17-17-8-7-10-9-14-11-13-10-30-20-21-12-23-12-25-11-27-10-30-9-26-6-29-5-28-3-18-1z" fill="#9C090E"/>
<path transform="translate(458,283)" d="m0 0h11l13 3 14 7 4 3 4-2 6-5 8-4 9-2h11l16 4 13 7 11 9 7 10 4 9 2 9v25l-5 19-7 16-14 27-9 17-10 25-5 17-3 19v12l4 16 7 13 12 15-7 2-7 8-6 8-7 6-7 2v9l-4 8-9 10-11 12-5-2-12-12-8-11-3-8-1-5-7-3-5-4-7-11-5-8-5-2h-4l1-3 7-6 9-14 5-15 2-12-1-14-4-19-7-20-14-29-15-27-8-17-5-17-1-5v-20l4-14 7-12 11-12 12-8 9-3z" fill="#9C090E"/>
<path transform="translate(476)" d="m0 0h48l36 3 33 5 27 6 26 7 32 11 24 10 25 12 21 11 23 14 16 11 19 14 11 9 13 11 12 11 15 14 12 13 11 12 9 11 14 18 14 20 13 21 12 21 13 26 13 31 12 36 7 26 7 36 4 31 2 28v42l-2 28-4 31-6 31-6 24-9 29-10 26-12 27-10 20-14 24-14 22-12 16-10 13-11 13-7 8-9 10-28 28-8 7-13 11-17 13-18 13-19 12-21 12-23 12-29 13-36 13-32 9-34 7-27 4-21 2-17 1h-42l-28-2-31-4-36-7-33-9-29-10-26-11-25-12-19-10-23-14-16-11-19-14-11-9-13-11-12-11-15-14-12-13-11-12-9-11-14-18-14-20-12-19-13-23-14-28-13-32-12-36-9-36-6-35-3-28-1-16v-48l3-36 5-33 6-27 7-26 12-35 12-28 8-17 12-22 12-20 15-22 12-16 8-10 11-13 22-24 11-11 8-7 11-10 11-9 18-14 16-11 17-11 24-14 17-9 24-11 28-11 34-11 33-8 35-6 28-3zm-2 10-33 3-28 4-33 7-31 9-28 10-30 13-26 13-27 16-22 15-16 12-16 13-15 13-8 8-8 7-16 17-9 10-9 11-12 15-14 20-14 22-14 25-11 22-12 29-10 28-8 29-7 32-5 36-2 25v52l3 33 5 33 7 31 9 31 11 30 13 29 14 27 15 25 11 16 14 19 9 11 12 14 11 12 27 27 11 9 9 8 17 13 18 13 19 12 21 12 23 12 25 11 27 10 25 8 28 7 32 6 36 4 15 1h46l35-3 28-4 37-8 30-9 28-10 25-11 23-11 24-14 18-11 18-13 12-9 11-9 14-12 12-11 24-24 7-8 12-14 10-13 13-18 13-20 14-24 11-21 14-32 10-28 8-27 7-30 5-30 3-28 1-16v-45l-3-35-5-33-7-32-8-27-9-26-11-26-13-27-13-23-14-22-13-18-11-14-9-11-9-10-7-8-29-29-8-7-13-11-13-10-18-13-17-11-22-13-27-14-20-9-26-10-27-9-36-9-27-5-35-4-14-1z"/>
<path transform="translate(477,125)" d="m0 0h50l29 3 36 7 22 6v-2l-5-2-1-5 3-5 6-1 5 3 1 1v7l-2 6 28 11 25 12 17 9 19 12 11 8 2 1 2-6 3-3h6l7 5 3-1 3 2-2 4h-2l1 8 5-2 8-9 11-14 5-7v-6l-6-4h-3l1 7-8 2-11 13-4 1-5-3-2-5 3-5 3-2h6l6-6h5l-3-9 1-1h8l10 5 6 7 1 2v7l-8 11-11 13-8 10-3 1h-8l12 12 8 7 14 14 7 8 11 13 12 16 12 18 11 19 12 23 11 27 9 28 6 25 5 30 2 23v44l-3 30-5 28-8 30-9 26-12 27-14 26-18 27-10 13-9 11-11 12-9 10-7 7-8 7-10 9-17 13-18 13-22 13-23 12-26 11-33 11-30 7-26 4-23 2h-44l-30-3-29-5-30-8-26-9-23-10-22-11-23-14-17-12-14-11-14-12-15-14-9-9-7-8-12-14-12-16-12-18-10-17-12-23-9-21-9-25-7-26-5-25-3-24-1-12v-48l3-29 5-28 8-30 10-28 11-24 12-23 12-19 10-14 10-13 12-14 11-12 16-16 8-7 17-14 20-14 16-10 16-9 16-8 20-9 28-10 26-7 26-5 23-3zm-1 9-28 3-31 6-29 8-27 10-28 13-21 12-21 14-12 9-10 8-14 12-26 26-9 11-12 15-14 20-11 19-12 23-11 26-9 27-8 34-4 29-1 12v49l4 36 6 28 7 24 7 20 10 23 13 25 12 19 12 17 11 14 9 10 7 8 21 21 11 9 12 10 18 13 21 13 29 15 24 10 30 10 24 6 31 5 21 2h47l29-3 28-5 30-8 28-10 24-11 21-11 19-12 17-12 16-13 10-9 8-7 17-17 9-11 8-9 14-19 12-19 12-21 13-28 10-28 7-25 6-32 3-28v-48l-3-28-5-28-8-29-10-28-12-26-12-22-18-27-11-14-11-13-11-12-18-18-11-9-12-10-18-13-21-13-20-11-27-12-22-8-29-8-25-5-22-3-12-1z"/>
<path transform="translate(480,24)" d="m0 0h40l28 2 30 4 26 5 31 8 33 11 26 11 25 12 22 12 24 15 18 13 13 10 13 11 11 9 34 34 9 11 12 14 14 19 12 18 15 25 14 27 9 20 10 26 9 28 8 32 4 22 4 30 2 32v30l-2 31-4 31-6 31-9 33-10 29-11 26-12 25-14 25-20 30-12 16-13 16-10 11-7 8-25 25-8 7-13 11-13 10-18 13-17 11-22 13-27 14-28 12-28 10-31 9-27 6-33 5-21 2-20 1h-30l-32-2-30-4-31-6-30-8-32-11-26-11-25-12-25-14-22-14-28-21-13-11-11-9-34-34-9-11-8-9-10-13-13-18-14-22-13-23-13-26-13-32-10-30-10-40-6-38-2-20-1-17v-40l2-28 4-30 5-26 6-24 9-29 13-33 14-29 10-19 13-21 11-16 12-16 8-10 11-13 11-12 12-13 8-7 9-9 11-9 13-11 16-12 27-18 19-11 23-12 21-10 34-13 30-9 29-7 30-5 28-3zm0 6-28 2-30 4-30 6-30 8-29 10-24 10-29 14-18 10-24 15-18 13-14 11-11 9-12 11-8 7-21 21-7 8-12 14-13 17-13 18-13 21-12 21-11 22-13 31-12 36-8 32-5 27-4 35-1 17v40l2 28 4 30 6 30 7 26 11 33 11 26 14 29 14 24 18 27 9 12 11 14 13 15 15 16 14 14 8 7 10 9 14 11 20 15 20 13 22 13 25 13 30 13 22 8 34 10 33 7 27 4 21 2 20 1h30l32-2 30-4 30-6 30-8 32-11 26-11 21-10 23-13 21-13 17-12 13-10 11-9 14-12 7-7 8-7 11-11 7-8 11-12 11-14 13-17 14-21 12-20 14-26 12-27 9-24 9-28 7-29 5-27 4-36 1-20v-30l-2-32-4-30-5-26-6-24-9-28-9-24-13-29-12-23-14-23-13-19-16-21-11-13-11-12-7-8-17-17-8-7-10-9-14-11-13-10-30-20-21-12-23-12-25-11-27-10-30-9-26-6-29-5-28-3-18-1z"/>
<path transform="translate(501,303)" d="m0 0 14 1 17 5 12 7 12 11 7 9 7 14 3 12 1 16-2 13-4 12-6 11-11 13-13 9-13 6-14 3h-15l-15-3-12-5-10-7-10-9-7-10-7-15-3-16v-12l3-15 5-12 7-11 12-12 13-8 14-5z" fill="#FBCA07"/>
<path transform="translate(561,575)" d="m0 0h1l1 39 3 29 5 25 6 20 9 21 9 15 11 12v2h-6l-4-4-3-9-9 1-13 6-2-1 6-8 1-6-2-3-8 1-22 8-18 4h-15l-6-3-15 3h-16l-12-4-14-7-10-3h-9l-1 4 5 10 3 3v2l-8-1-11-3-7 1-2 7-2 1h-6l2-5 6-7 10-16 9-21 6-21 4-20 2-16 1-14v-39l7 6 10 10v31l-3 35-4 23-3 11 5-2 9 1 20 6 15 2h13l19-3 16-6h10l2 1-3-10-3-19-4-44-1-26 9-10z" fill="#9C090D"/>
<path transform="translate(454,270)" d="m0 0h16l17 4 13 6 10-3 14-4 6-1h17l13 3 12 6 11 9 8 10 8 16 4 13 1 7v19l-3 15-5 15-9 19-12 22-10 19-10 25-4 15v22l4 12 6 10 5 6 7 5v2h-8l-6-4-6-7-6-12-3-13v-17l4-20 7-20 12-26 10-19 12-23 5-13 3-15v-19l-4-17-6-11-11-12-12-9-12-5-11-2h-9l-15 3-12 5-3 2-4-1-14-7-9-2h-20l-12 3-14 7-9 8-7 11-5 13-3 15v21l4 17 9 21 14 27 10 19 10 21 6 18 2 14v13l-3 11-7 14-7 8-5 3h-7l2-4 9-10 7-14 2-9v-18l-4-18-8-20-10-20-14-24-9-19-6-18-3-16v-21l4-16 7-14 8-10 8-8 13-8 12-4z" fill="#9C090E"/>
<path transform="translate(571,620)" d="m0 0h53l11 1 8 16 8 10 6 5-6 8-7 8-7 12-2 6v13l3 6 7 6 2 2-6 3h-13l-10-4-11-8-6-8-2-6 1-9 5-6 2-1h6v6h8l3-3v-9l-3-6-5-3h-11l-10 4-8 4-9 1-3-6-3-14 1-4 9-1 5-2 2-4 3 1h7l17-8-3-1h-14l-9-3h-13l-7 7v-11z" fill="#9C090E"/>
<path transform="translate(379,620)" d="m0 0h54l1 5v8l-6-6-2-1h-15l-6 3h-15l-2 1 17 8h7l3-1 4 5 6 2h6v8l-4 14-2 2-9-1-17-8h-11l-6 4-3 6v7l3 4h8l1-3-1-3h7l5 5 2 4v9l-4 8-8 8-10 6-6 2h-14l-5-2v-2l8-6 4-8v-10l-4-11-7-11-11-12 2-4 7-7 9-14 3-8z" fill="#9C090E"/>
<path transform="translate(501,303)" d="m0 0 14 1 17 5 12 7 12 11 7 9 7 14 3 12 1 16-2 13-4 12-6 11-11 13-13 9-13 6-14 3h-15l-15-3-12-5-10-7-10-9-7-10-7-15-3-16v-12l3-15 5-12 7-11 12-12 13-8 14-5zm-9 7-14 4-11 6-11 9-9 12-6 13-3 16 1 16 4 13 5 10 8 10 9 8 12 7 13 4 8 1h11l14-3 10-4 13-9 7-7 7-11 5-11 2-9v-22l-4-14-6-11-9-10-9-8-14-7-11-3z" fill="#FECF07"/>
<path transform="translate(252,533)" d="m0 0 2 2 1 10-3 8v6l4 8v9l-4 8-1 6 8-8h2l2 12 6 9 1 3v10l-3 8-6 5-6 2h-12l-2 6 3 6 2 1-1-6 6 1 3 5v5l-3-1v10l-5 5-2-4-3-7-5-8-2-7 1-7 8-7 5-5v-6l-1-3-7 1-3-5v-9l7 5 7 2 4 5 1 3v8l-5 6 7-1 3-7-2-8-5-9-3-3-1 3-4-2-5-6-1-5-4 4-1 2v13l3 5 7 4-2 5-3 3-8 1-6-4-4-8 8-1-9-9-1-9 1-3h2l3 3-2-7 3-9 5-9 2-4 2 3v6l3-3-1-9v-9l8-7 5-5z" fill="#FECF07"/>
<path transform="translate(752,528)" d="m0 0h1l2 9 7 6 4 4 1 7-2 7 1 8h2v-7l3-2 8 17v9 2l3-2 1 1v9l-4 5-5 5 1 1 6 1-3 6-6 5h-8l-5-4-1-5 7-4 3-4 1-10-2-7-2-2-6 9-5 3-2-3-7 9-3 8 1 8 4 3 5 1-5-7v-8l3-6 5-3 8-3 4-2-1 9-3 4h-6l-2 2v7l12 11 1 8-4 10-6 9-1 6-5-2-1-2v-11l-3 1 1-7 3-3 5-1-1 6 4-3 1-7-1-2-16-2-6-4-4-6-1-3v-11l4-8 4-6 1-9 3-1 5 6v2h2l-1-7-3-7v-9l5-10-3-11v-8z" fill="#FECF07"/>
<path transform="translate(920,437)" d="m0 0 9 1 1 3 1 4 4-4 8 4 3 5 1 2-1 2h-3l-1 4h7l2 7-1 8-8 2 4 3v4l-2 1-2 4-3 1-3 3-4-4h-2v6l-7 2-8-1-2-8-3 1-1 3-4-1-4-2-3-5v-4l3-3-4-1-3-1-1-9 1-6h8l-5-5 4-8 6-4 3 1 4 4v-8z"/>
<path transform="translate(81,437)" d="m0 0 9 1 1 3-1 5 4-1 2-4 4 2 7 7-1 4h-2l-1 3 7 1 1 3 1 5-2 8h-6v4l3 1-4 8-5 3h-3l-2-3-3-1 1 6-1 2-8 1-7-1-1-3 1-5-3 1-2 3-4-1-4-2-4-6v-3l4-3-4-1h-3l-2-9 2-7 7-1-4-4 1-4h2l1-4 4-1 1-3 4 1 4 4v-8z"/>
<path transform="translate(229,399)" d="m0 0h3l4 9 7 9 8 7 9 13 4 11 1 5v14l1-4v-10l-3-13-6-11-9-11-8-14-1-3 5 2 10 6 6 5 5 7 2 12 2-5h2l3 11v11l-3 15 5-6h1v10l-3 12-6 12 10-3 2 1-5 6-7 14-6 4-5-1-4-5 5-2-1-3h-2l-1 3-8 7-11 7h-5l-1-3 14-16 9-14 5-11 2-8v-20l-4-11-6-10-8-8-9-5h-7l-11 4-4 3h-2l2-9 5-7 10-6z" fill="#FDCE07"/>
<path transform="translate(777,395)" d="m0 0 7 1 9 6 4 5 3 8-1 4-9-6-6-2h-9l-10 6-7 7-7 12-3 10v19l4 13 6 12 8 11 9 10 1 5-4 1-8-4-14-13-2 2 4 2-2 4-5 2-6-3-4-6-5-11-3-5 7 1 4 1-5-10-3-13v-10h2l4 6-2-10v-18l3-9h2l2 4 2-10 4-6 9-8 14-7-2 4-8 14-7 7-7 11-4 12-1 6v8l1 4v-12l3-12 5-10 8-10 8-7 8-9z" fill="#FDCE07"/>
<path transform="translate(492,310)" d="m0 0h22l16 5 12 7 13 13 8 14 4 14v22l-3 12-8 15-11 12-14 9-15 5-7 1h-11l-12-2-13-5-13-9-7-7-9-14-4-11-2-13 1-16 4-13 6-11 9-11 12-9 11-5zm10 5-14 2-13 5-10 7-9 9-8 14-3 10-1 7v11l4 16 5 10 8 10 10 8 12 6 13 3h13l14-3 12-6 11-9 8-11 5-11 2-7 1-15-3-16-7-14-9-10-10-8-12-5-7-2z" fill="#9C090E"/>
<path transform="translate(298,332)" d="m0 0h2l2 13-3 5-2 2 1 7 3 7 1 13-3 7-11 6-3 4 10-4 6-3 2 1-3 7-3 3v7l2 4-5 6 1 2 5 3 3 7v6l-5 6-8 1-3-3 5-2-1-5h-5l-2 2 1 17-2 13-2 2v-14l-2-10-2-7v-8l3-6 1-1-1-8-4-10-1-4v-9l2-6-9 5-5 6-2 3-4-7v-7l4-6 21-12 2-6 1-9 6-5 4-1z" fill="#FDCE07"/>
<path transform="translate(711,325)" d="m0 0 2 1 3 11 8 6 1 1 2 14 5 4 14 8 6 7v8l-3 6h-2l-4-6-7-6-4-2 2 6v9l-4 11-3 7 1 5 3 6v7l-4 14-1 18-2-2-1-6v-14l1-9-2-3h-5l-1 5 4 2v2l-7 1-5-3-3-4 1-10 4-5 5-1-4-6-1-3 2-4v-6l-5-6v-5l15 6 2 1-4-5-8-4-4-5v-13l6-15-5-7 1-11z" fill="#FDCE07"/>
<path transform="translate(823,383)" d="m0 0 2 1v6l8 10-1 6-6 12 1-1 7-5 1 2v11l10 20v7l-4 7-2 2 4 1-4 5-4 7-6 4-5 1-4-2v-2l5-5 4-5 2-6v-9l-6-12-3-2 1 8-3 9-9 10-5 6-1 3-1 16-4 4-6-8-1-2v-9l2-2 2 4-1-13 3-8 6-8v-10l4 2 4 5v11l3-8-2-10-4-11v-7l3-8 6-6 1-3v-11z" fill="#FECF07"/>
<path transform="translate(185,386)" d="m0 0 3 3 1 6v10l2 4 4 4 3 8v7l-6 16v9l2 4v-10l4-6 4-2v10l7 10 2 6-1 8-1 6h2v-4h2l1 9-3 6-5 6-3-3-1-7v-9l-3-7-7-7-6-10-1-3v-9-2l-6 7-3 8v8l4 9 7 8-2 2h-7l-6-4-4-7-3-6 3-1-5-6-1-7 4-10 6-10 1-2 1-13 6 4 2 1-6-13 1-7 6-5 2-6z" fill="#FECF07"/>
<path transform="translate(688,650)" d="m0 0 3 1 3 5 1 14 4 6 4 5 1 7-3 7-2 7h2l2-5 5-3-1 8 7 17 1 4v8l-3 9-9 10-10 8-17 9-21 8-8 3-2 1 2-4 26-13 14-9 10-9 4-7v-7l-2-5-6-3v8l-9-3-3-4-3-8 9 2-1-4-4-2-2-3v-6l6-13v-8l5 5 1 2v-7l-6-10v-5l4-6-1-8z" fill="#FECF07"/>
<path transform="translate(311,658)" d="m0 0 1 2v8l3 4v6l-6 9-1 8h2l1-5 4-2v10l5 10v7l-5 5-2 4 8-2-3 9-3 3-9 2 1-7-7 4-2 4 1 8 4 6 4 5 13 10 16 9 14 7 3 3-1 2-4-3-19-7-21-11-9-7-5-4-6-8-3-7v-13l5-12 3-6v-8l4 2 3 5 1-3-4-9 1-9 8-10 1-13 3-5z" fill="#FECF07"/>
<path transform="translate(159,475)" d="m0 0 10 15-2 9v6l2-5 5 5 9 8 2 4v12l4-7 2 3 1 3v12l-4 4-7 1-6 7-3 11v11l3 18 2 9-4-4-5-13-2-8-1 6-4-2-4-7-1-18h2v2h2l1-16-3-13-1-4 8 4 6 5-1-6-6-7-7-6-1-2v-8l4-10-1-8-1-3v-7z" fill="#FECF07"/>
<path transform="translate(847,472)" d="m0 0h1v10l-2 5 1 7 3 8-1 9-13 12-3 8 11-8 4-1-3 10-1 5v12l1 5 3-1v13l-3 8-4 5h-2v-7h-2l-1 8-5 13-4 4 4-19 1-8v-12l-4-11-5-5-7-2-3-3v-11l2-7h2l2 7h2l-1-3v-8l4-6 11-10 2-2 2 7v-8l-1-3v-7l7-9z" fill="#FECF07"/>
<path transform="translate(673,220)" d="m0 0 4 4v2l5 2 12 5 7 10 8 3 11 4 5 6 3 9v-5l5 2 3 3v11l-2 3-4-1-2 4v5l6 5 8 4-1 3h-8l-8-5-6-7v12l6 12-16-5-4-5-2-6-1-18-6-9v-2l12 3 3 2-1-5-12-6-4-5-1-3-1-11-5-5-8-5-5-6z" fill="#FECF07"/>
<path transform="translate(339,228)" d="m0 0 1 3-4 6-8 5-6 4-2 6-1 9-5 6-6 3-5 2-2 5 5-2 8-2h3l-6 9-1 1-1 16-3 9-4 4-8 3-8 1 6-10 1-3v-9l-1-1-7 8-8 4h-6l-2-4 10-4 5-5-1-7h-3l-4-4v-9l4-5 4-1v6h2l1-9 3-5 10-5 11-3 4-4 4-6 7-3 8-3z" fill="#FECF07"/>
<path transform="translate(327,496)" d="m0 0 2 2-1 10 4 7 1 7-3 7-7 10-1 7h2l1-4 8-6-1 7-2 4 1 7 5 12v11l-4 6-4 1-2-6-4 13-4 6-6 5 2-5 4-12v-13l-4-8-3-3h-7l-3 1-3-6-1-6 3-10 4-5 3 6 1-5v-6l4-4 9-4 3-3v-6l-2-5 1-5 3-4z" fill="#FECF07"/>
<path transform="translate(678,489)" d="m0 0 2 3 3 4v7l-2 4 1 6 5 4 8 4 2 2v11h2l2-5 3 3 3 7v10l-4 7-5-2-5 1-4 4-3 6v15l4 11 1 4-7-6-4-9-1-10h-2l-2 7-4-2-3-5v-11l7-16-3-9v-5l8 6 1 4h2l-1-7-9-14v-8l3-6 2-3-1-10z" fill="#FECF07"/>
<path transform="translate(399,902)" d="m0 0h9l10 4 6 8 1 3v12l-4 9-4 5-8 4h-10l-9-4-6-8-1-3v-12l4-9 4-5z"/>
<path transform="translate(605,898)" d="m0 0h11l7 4 6 7 2 6v14l-5 8-5 4-6 2h-9l-8-4-6-7-3-9v-9l5-10 8-5z"/>
<path transform="translate(811,770)" d="m0 0 10 1 7 4 5 5 4 6 1 3v10l-3 6-4 5-7 4h-13l-10-6-6-8-1-3v-12l5-8 8-6z"/>
<path transform="translate(304,438)" d="m0 0h1l1 7 6 8 1 6-3 7-2 4v7l9 15 1 10-2 8-2-2-4-11-4-5-5-3v10l-5 8-6 8-3 7v10l6 12-17-3-6-5-2-9 3-13 2-1 4 5 5 4 1 3-1-7-4-5 1-6 6-9 1-10h2l3 5 2 2 1 9 1-6-4-16v-9l7-9 5-6-2-14z" fill="#FECF07"/>
<path transform="translate(703,432)" d="m0 0 3 4v7l-2 4 1 6 9 11 2 4-1 10-3 9v11l2-10 5-6h1l1 10 6 10v6l-4 5v4l10-9 2 2 2 9-1 10-4 5-2 1-9 1-9 2 6-12v-12l-5-9-6-8-2-5v-9l-6 4-6 10-2 6-2-2-1-11 3-8 7-10 1-2-1-9-3-5v-9l6-8z" fill="#FECF07"/>
<path transform="translate(371,55)" d="m0 0h2l5 16 2 4 2 7-6 9 5 1 4 6 4 13v5l-4 4-21 7-2-1-1-4 4-1-3-10 2-14-3-5h-3l3 3v7l-4 3h-5l-4-4v-8l5-5 5-2 7 1 5 2 6-9 1-5h-15l-10 4-4 2v-10l4-6 8-4h6l1-5z"/>
<path transform="translate(439,561)" d="m0 0h7l8 7 9 12 6 4 8 16 12 13 9 11 4 6 7-10 9-10 8-10 6-12 2-5 8-7 9-11 5-4 6 1-1 4-9 12-7 8-5 3h-2l-2 9-6 10-12 14-9 11-6 8-4-2-11-13-20-25-3-8v-5l-5-1-9-7-12-17z" fill="#9C090E"/>
<path transform="translate(458,37)" d="m0 0 6 1 2 2v8l-2 3 2 4v5l3 1-4 7v4l3 17 1 15-7 1-1-2-3-25-2-4h-5l1-2h-7l-4 2-2 4 1 10 1 4 2-11 4-3h7l3 4v6l-5 4h-5v14l-1 1h-7l-7-18-1-4v-7l3-6 5-4 5-2 14-1 2-4 4-2-6-2h-14l-10 2 1-7 4-6 5-3 9-1z"/>
<path transform="translate(191,646)" d="m0 0 5 2 9 3h8l9-2h11l6 4 3 6v9l5-2 8 26 11 23 8 11 6 7v9l-4-2-12-15-12-19-9-19-7-19-5-8-3-2-5 1-1 4 4 2 1-5 4 3-1 6-3 3-3 1h-8l-7-4-3-3v-2l5-2-9-1-5-4-6-9z" fill="#FECF07"/>
<path transform="translate(810,642)" d="m0 0 1 3-7 9-6 4-8-1 1 2 4 2-5 6-4 2h-8l-6-3-1-2v-6l4-2 1 4 3-1-1-4-1-1h-5l-6 8-5 12-7 16-8 15-13 18-9 10-4 4-1-9 9-10 10-15 8-17 8-23 2-2 3 2 1-10 4-6 4-2h13l7 2h10l11-4z" fill="#FECF07"/>
<path transform="translate(570,578)" d="m0 0h64l7 7 1 4-10 9h-17l-45-2z" fill="#9C090E"/>
<path transform="translate(369,578)" d="m0 0h64v18l-44 2h-17l-11-9 2-4z" fill="#9C090E"/>
<path transform="translate(78,447)" d="m0 0h9l7 3 7 8 1 10-1 6h-2l-2 5-7 5-10 1-6-2-6-4-4-7-1-7 1-7 7-8z" fill="#FEFEFE"/>
<path transform="translate(917,447)" d="m0 0h9l7 3 7 8 1 11-2 6-5 6-4 3-11 1-6-2-5-3-4-6-1-4v-9l4-8 7-5z" fill="#FEFEFE"/>
<path transform="translate(621,447)" d="m0 0 1 2 1 5 2 5-1 7-4 6-9 8-3 6v8l4 7 7 8 2 5v10l-5 9-7 7h-2l-8-11 5-5 4-7v-10l-3-6-4 6h-6l-3-3-1-3v-9l3-10 7-8 14-9 3-5 1-10z" fill="#9C090E"/>
<path transform="translate(381,447)" d="m0 0h2l3 15 5 5 11 7 7 8 3 8v12l-4 5-7-1-3-4-3 5v10l6 9 3 3-8 11-4-2-7-8-3-7v-9l5-8 7-9 1-2v-10l-6-8-7-6-4-8 1-6 2-5z" fill="#9C090E"/>
<path transform="translate(117,644)" d="m0 0 3 3 8 20v10l-5 5-2 1h-8l-4-3h-2l-10 15-1 5h-2l-4-10 1-4 11-16-1-2-12 5-2 4v2h-2l-7-18h2l1 2 8-1 26-11 3-1z"/>
<path transform="translate(304,645)" d="m0 0 1 2-5 8-4 4-3 1h-8l-2 5-4 3h-6l-4-2-4-6 5-1 1-3-10 2v12l5 19 7 16 8 14 1 5-2 3-8-11-9-15-9-19-3-10v-12l4-6 5-4 8-2 12 1 5 2h10z" fill="#FECF07"/>
<path transform="translate(697,638)" d="m0 0 8 6 3 1h9l7-2h12l8 3 5 6 1 2v13l-4 12-11 21-11 16-5 5-1-1v-6l9-14 8-17 5-17 1-10-3-4-7-1v2l5 2-6 7h-8l-4-3v-5h-9l-7-4-5-9z" fill="#FECF07"/>
<path transform="translate(524,64)" d="m0 0h7l5 5-1 17-2 13h14l1-6-6-1-5-4-1-7 4-4 7 1 1 2v6l-1 2h2l1-17 1-5 8 1-1 18 3-4 5 2-1 4-6 5-2 1-2 10-3 3h-10l-20-2-1-1v-5h4l2-19-6-3-1-5 2-5z"/>
<path transform="translate(717,123)" d="m0 0 6 1 4 5-1 6-11 18-4 6 5 2 4 3h5l2-5-4-2-3-4v-7l4-4h5l4 5-2 5-2 3h2l2-5 8-13 5 2 2 1-2 5-8 13 7-3 2 3v3l-5 2-8 1-6 8h-6l-18-11-6-4 2-5 5 1 9-14-2-4-1-6 4-5z"/>
<path transform="translate(205,787)" d="m0 0 4 2 11 11h-3l-4 1-9 9 2 4 5 5 4-1 8-10-1-5 7 6 8 7-1 2-5-2-19 19-6 8 2 5-4-2-12-12h3l5-1 9-9-2-4-7-6-7 7-4 7-1 2-12-11-1-2 7 1 14-14 7-8 3-4z"/>
<path transform="translate(862,270)" d="m0 0h8l3 4v7l-6 5-14 8 10 3 4 2 14-8 4 4-1 4-13 7v8l-7 6-2 1h-8l-4-4-1-4 3-5 8-5-3-2-3-1h-13l-3-4 1-4 18-10h2l-1-8z"/>
<path transform="translate(610,80)" d="m0 0h11l10 4h3l2-3 7 2-2 4-5 4-1 10-7 23-6-1-2-2 1-3v-10l-3-9-2-2h-3l-2 4v3l5 4v6l-3 4h-8l-4-5v-7l4-11 5-4 14-2 1-1-4-2h-8l-5 1-2-2v-3z"/>
<path transform="translate(498,355)" d="m0 0h11l6 4 4 5 1 2v11l-4 7-6 4-9 1-7-3-5-5-2-3-1-8 3-8 7-6z" fill="#9C090E"/>
<path transform="translate(501,533)" d="m0 0 5 5 3 6 3 3 1 3v11l-4 6-8 7-5 1-9-6-5-7-1-8 3-6 5-4 8-5z" fill="#FECF07"/>
<path transform="translate(499,188)" d="m0 0 5 5 9 13 3 8-1 9-4 5-9 3-11-2-5-6v-11l5-10z" fill="#FECF07"/>
<path transform="translate(783,517)" d="m0 0h9l7 4-1-4 5 1 5 6 1 9 6 10v3l6 1 5 6 1 6-4 10h4l-1 12-3 5-5-1-1-2v-14l-2-14-5-12-8-9-8-4-7-1-6 3-1 2v9l-5-5-1-2v-9l4-7z" fill="#FECF07"/>
<path transform="translate(206,520)" d="m0 0v3 2l7-4h9l6 4 3 6v9l-4 6-2 1v-9l-4-4-6-1-11 4-7 6-5 8-4 13-1 7v13l-3 5-5-1-1-2-1-15 4 1-3-7v-9l4-5 7-3 5-9 1-1 2-10 5-6z" fill="#FECF07"/>
<path transform="translate(677,593)" d="m0 0 14 8 6 8 4 4-1-7 2-3 3 2 10 2 3 4 1 7-7-2 1 5 6 7 9 4 14 3v1l-7 1h-11l-13-3-11-6-10-9-7-10-6-13z" fill="#FECF07"/>
<path transform="translate(142,251)" d="m0 0 6 1 18 11 9 6-1 4-2 3-5-2-20-13-6-2 2 8 6 8 9 10 5 5-3 5-4-1-16-10-3-2-1 3-7 1-5-4v-7l4-4h6l9 5-6-9-1-2v-8l4-5z"/>
<path transform="translate(462,611)" d="m0 0 3 1v25l-3 28-4 15-1 2 9 3 10 4 15 3h27l12-3 9-4h7l-3-13-4-30-1-13v-14l2-4h1l1 6 3 39 4 28v3l-10 3-10 4-15 3h-22l-18-4-14-6h-6l1-8 4-24 2-21z" fill="#9C090E"/>
<path transform="translate(326,599)" d="m0 0 1 2-8 16-8 10-8 7-12 6-7 2h-20l-4-2 16-3 8-4 5-5 2-6-5 1-2 1 1-7 5-5 12-2v9l5-5 4-6 12-6h2z" fill="#FECF07"/>
<path transform="translate(222,163)" d="m0 0h8l6 4 10 11 7 9-2 4-3 2-7-6-9-4h-8l-1 3 3 4v2l4-2h6l4 4v6l-4 4h-7l-8-7-4-6v-8l4-5 2-1h11l-8-7-6 1-5 5-2 8h-6l1-9 7-8z"/>
<path transform="translate(169,213)" d="m0 0 6 4 17 14 5 4 1 6-4 6-12 15-6-4-5-5-1-6-6 1-8-5-3-6 2-7 3-2h6l5 5-1 6-1 2 6-1 2-3 4 1-1 4-1 6 3 3 4-1 5-6v-5l-13-11-10-8v-3z"/>
<path transform="translate(262,132)" d="m0 0 4 1 16 23 2 3v7l-10 8-10 7-4-1-5-8v-8l-6-1-6-7-1-2v-6l5-5 4-1 5 3 2 4-1 5-3 3 1 1h5l5-2 1 4-4 3 1 6 3 3 8-6h2l-2-7-14-20-2-4z"/>
<path transform="translate(755,305)" d="m0 0 6 4 3-1 9 6 6 9 3 11v10l-3 16-2 2v-16l-3-10-6-7-7-3-7 1-4 6-2 4-4-5-1-3v-9l4-8z" fill="#FDCE07"/>
<path transform="translate(255,310)" d="m0 0 4 2 7 8 2 5v7l-3 8-3 2-4-9-4-2h-6l-8 5-4 5-3 10-1 14-2-4-1-6v-20l5-12 7-7 6-3 2 1 4-2z" fill="#FDCE07"/>
<path transform="translate(295,114)" d="m0 0h8l6 5 10 18 1 6-2 4-16 9h-7l-4-5-6-11v-5l4-4 2-1h6l4 6-1 5-4 2 4 6 6-2 5-3-1-6-9-16-1-1h-7l-6 4-3 7h-6l1-6 3-5 10-6z"/>
<path transform="translate(222,443)" d="m0 0h7l9 3 8 6 5 9 2 8v8l-2 9-4 8-8 9-4 3-2-1 8-10 3-7v-11l-2-3-5 1h1l4 1v5l-5 2-5-3-1-2v-9l1-9v-2l4 1-3-5-7-6-6-3z" fill="#FDCE07"/>
<path transform="translate(777,439)" d="m0 0h9l2 2-10 5-8 9 5-1v7l1 11-3 5-7 1-2-2 1-5 3-1 1 1 1-2h-5l-2 2-1 4v7l4 10 6 8h-3l-8-8-6-12-1-4v-13l4-11 6-7 9-5z" fill="#FECF07"/>
<path transform="translate(199,351)" d="m0 0h1l3 11 4 7 1 6 2-4 4 5 6 7 1 5-4 5-4 1-1-5-1 1v5l5 5-5 3h-6l-5-3-4-8-2-9v-14l4-16z" fill="#FECF07"/>
<path transform="translate(810,348)" d="m0 0 2 1 3 12v20l-3 10-4 6-3 2h-8l-4-2v-2l5-4v-5l-2-1v5l-5-2-3-4 2-6 9-10 2 2v4h2l-1-7 6-12z" fill="#FECF07"/>
<path transform="translate(816,211)" d="m0 0h9l6 5 6 11 4 2-1 5-5-1-10-15-3-1 6 15v8l-7 7-7 5h-6l-9-10-8-10v-2l5-2v2l9-7 4-3 5 2 2 3-11 9-3 1 6 8 6-1 6-5 1-2v-6l-7-13-2-3z"/>
<path transform="translate(804,776)" d="m0 0h6l10 6 8 7 5 8v6l-4 5-6 1-10-5-10-9-4-6-1-6 3-5z" fill="#FEFEFE"/>
<path transform="translate(888,613)" d="m0 0 15 5v1l-9 2-6 4-2 5 1 7 4 5 12 5 4 1h10l5-3 2-4 1-6-8-2h-5l-3 2 2-9 3-9h2l1 5 11 4v12l-4 11-4 5-8 4h-13l-8-4-5-5-4-8v-10l5-10 2-2z"/>
<path transform="translate(189,589)" d="m0 0 1 3 1 6 1 7h3v8l-2 6 3-3 2-4 8 4 2 3v7l-2 1-4-4 3 8 4 5 9 5 6 2v1h-16l-9-4-8-7-3-5v-4l-5-7-1-3v-10l5-12z" fill="#FECF07"/>
<path transform="translate(813,586)" d="m0 0 4 4 4 11v9l-4 8-4 4 2 2-7 9-7 5-6 2h-17l1-2 10-3 8-7 4-8-3 1-1 2h-2l-1-6 3-5 6-3h3l2 6 2 1-2-6v-8h3l2-14z" fill="#FECF07"/>
<path transform="translate(606,900)" d="m0 0 5 1 5 5 5 12 1 5v11l-2 4-4 2h-6l-5-5-4-8-3-14 1-8 4-4z" fill="#FEFEFE"/>
<path transform="translate(405,904)" d="m0 0 6 1 4 5 1 7-3 16-5 9-3 2h-7l-5-5v-15l3-10 5-8z" fill="#FEFEFE"/>
<path transform="translate(873,661)" d="m0 0 10 4 1 2-9 1-3 3-4 8 5 1 8 4h3l-1-5-5-6 6 2 15 7-4 1-7 1-1 3 11 5h5l3-8-1-6-4-5 1-2 11 7-9 20-5 11-2-1 1-5-5-2-28-13-6 3 2-6 11-23z"/>
<path transform="translate(489,63)" d="m0 0h11l8 4 2 3 1 5v28h-8l-1-31-4-3h-8l-2 2 5 5-4 5-1 22h-8v-21l4-7-5-2-2-1 2-4 6-4z"/>
<path transform="translate(897,575)" d="m0 0 10 1 3 2-9 3-3 7-1 5 9 1 8 2-2-6-7-4 4-1 19 4-2 2-7 1-3 5 9 1 8 1 2-5-1-9-7-6 3-1 10 4-1 9-5 24-2-1v-3l-10-3-24-5h-5l-1 4-1-3z"/>
<path transform="translate(475,800)" d="m0 0h6l-1 5-2 4v12l-2 14-4 1-3-3-4-13-1-4h-2l-2 6 4 4-1 6-3 2-7-1-2-2 1-10 6-8 8-5v-1h-6l-4 3-2 5-5-1 2-7 6-5h12l5 1z" fill="#FBCA07"/>
<path transform="translate(497,461)" d="m0 0 2 2v10l1 9-2 5v7l4 9v7l-5 8-11 11-3 7v9l-5 6h-2l-3-6v-7l4-8 10-11 5-9-1-9-2-5v-9l5-11-1-11 4-2z" fill="#FECF07"/>
<path transform="translate(213,682)" d="m0 0 3 1 17 1 6 4 12 24 4 6h-9l-11-4-10-9v-2l7-2 1-1-12-4-7-6z" fill="#FECF07"/>
<path transform="translate(770,679)" d="m0 0h18l-1 6-4 5-9 4-7 1 4 3 5 1-6 7-8 5-7 2h-10l7-11 9-17 6-5z" fill="#FECF07"/>
<path transform="translate(663,878)" d="m0 0 3 1-2 2 2 9 12 30h-3l-20-12-14-9v3l10 24 6 1-4 3-9 3v-2l3-2-1-6-10-25v-3l-7-1v-2l10-4 5 1 20 12 4 2-8-19-6-1 4-3z"/>
<path transform="translate(273,845)" d="m0 0 5 2 8 5 3 31 9-15 1-5-2-4 11 6-1 2-5 1-13 21-7 12h-2l-3-32v-12h-2l-2 5-11 18-1 4 3 5-5-2-8-5 2-1 5-1 6-9 11-18-1-6z"/>
<path transform="translate(496,913)" d="m0 0h2l16 40 3 2v2h-19l1-2h4l-3-10-14-1-1 10 4 2v1h-13v-2l5-5z"/>
<path transform="translate(139,702)" d="m0 0h7l-6 8-11 13-10 13-1 5h-2l-8-15 1-2 2 2 4-1 3-4-1-4-4-8h-9v7l-3-3-4-7 1-2 2 1h13z"/>
<path transform="translate(255,830)" d="m0 0 1 4-10 35v9l-9-6-6-5 2-1h3l2-9-9-7-5 2-2 2 1 6-4-2-6-4v-2l8-2 28-16z"/>
<path transform="translate(686,866)" d="m0 0 4 2 11 9 14 12 5 4 5 1v2l-15 8-2-1 3-1-1-4-4-4-6 1-7 4 1 8 6 1-3 3-6 3-3-1 2-3-2-25z"/>
<path transform="translate(105,603)" d="m0 0 2 2 5 17h-2l-2-3-7 1-23 7-4 1-1 7 3 5 3 2 10-1 20-6 3-2v-4h2l3 10-1 3-2-3-9 1-17 5h-11l-5-3-4-9v-8l4-6 9-4 22-7h2z"/>
<path transform="translate(88,573)" d="m0 0 9 1 5 5 1 2v9l-1 4h3v2l-9 2h-5l5-4 3-3 1-8-2-3h-6l-3 4-5 14-5 5-5 2-8-1-5-4-2-4v-13l-3-3 12-3 4 1-8 6-2 3v8l3 3h5l4-5 5-13 5-5z"/>
<path transform="translate(598,785)" d="m0 0h2l10 29v2l-6 2-10-5-2 1 1 6-3 3-7 1-3-3-1-7 4-4v-6h-8l-2-3 1-7 4-2 6 1 4 9 2 5 9 2 3 1-7-20 1-4z" fill="#F9C507"/>
<path transform="translate(449,910)" d="m0 0h9l9 4h2l1-2h2l-2 15-2-3-4-8-4-2h-7l-4 2-5 10-1 14 2 7 1 3 4 1h9l8-4-1 4-7 4h-12l-8-4-5-6-2-5v-12l4-9 8-7z"/>
<path transform="translate(780,797)" d="m0 0 7 6 3 4-1 2-7-3-7 1-5 5-1 6 4 10 9 9 6 3h6l6-4 2-5 1-7h2l1 5-3 8-5 6-8 4h-11l-8-5-7-8-2-7v-8l3-8 8-7 7-3z"/>
<path transform="translate(394,781)" d="m0 0 5 1 4 4-1 6-3 8 12-12 6 2 3 3v6l-10 23-5-2 3-9 6-14v-2l-4 2-17 17-5-1-1-2 8-18-4-2-1-1 1-7z" fill="#FBC907"/>
<path transform="translate(178,757)" d="m0 0 4 1 12 14 8 10-2 4-6 5v-3l2-7-4-5-14 12-11 9-2 2v6l-5-4-8-10 1-2 2 2 4-1 11-9 14-12h2l-4-5-5-1-6 2 1-3z"/>
<path transform="translate(549,910)" d="m0 0h7l2 10-2 1-4-6-1-1-7-1 4 39h5v2l-20 2v-2l4-2-2-25-1-10-1-2-6 2-2 2-2 6h-1l-1-12z"/>
<path transform="translate(156,723)" d="m0 0 4 4 13 19 4 7-9 6v-3l2-4-1-6-2-2-16 11-14 10 1 6-5-5-7-10 1-2 4 2 30-20-2-4-3-2-9 1 5-5z"/>
<path transform="translate(382,476)" d="m0 0 5 4 3 6v7l-4 8-8 14v10l5 10 6 7-1 3-4 1-8-8-7-14v-13l5-10 7-9 1-3z" fill="#9C090E"/>
<path transform="translate(849,708)" d="m0 0 2 1-1 5 9 6 20 11h4l4-7-1-8-5-7 5 2 8 6-2 5-14 25-2 1v-6l-22-13-7-4h-5l-3 2 2-5z"/>
<path transform="translate(536,802)" d="m0 0h5l2 18-1 2 3 1 1 2v6l-4 4h-6l-4-5-6 6h-5l-2-14v-6l-7-1-1-2v-6l3-3h6l3 2 2 12v10l11-7z" fill="#F7C207"/>
<path transform="translate(828,742)" d="m0 0v3l1 4 13 10 13 9 5-1 4-7-1-7-4-7 4 2 8 7-2 5-13 18-4 6-2-1 1-5-18-13-10-7-5 1-2 1 2-5z"/>
<path transform="translate(723,844)" d="m0 0 2 1-2 2 1 5 17 26 4 1 7-5 1-2v-9l-1-4 3 1 5 10v3l-27 18-2-1 2-2-1-5-17-25-2-2-4-2z"/>
<path transform="translate(619,477)" d="m0 0h2v12l6 10 6 9 1 2v14l-4 10-9 10-4 2-3-3 8-11 3-6v-11l-5-10-6-10-1-8 4-8z" fill="#9C090E"/>
<path transform="translate(785,567)" d="m0 0 6 2 7 6 4 8 2 11h2l-1 6-3 4-6 1-2 6-9 10-6 5-5-1-2-1v-2l10-6 6-9 3-9v-17l-5-12z" fill="#FECF07"/>
<path transform="translate(790,182)" d="m0 0 9 1 6 5 5 8 4 3-1 3h-5l-6-8-2-5-5-1 6 11 1 6-4 7-8 8-4 2-6-1-4-5 1-6 3-3h7 4l3-4-1-7-6-9-1-3z"/>
<path transform="translate(652,93)" d="m0 0h7l9 5 3 2 5 1v5h-6l-6-4-4-3-6-1v2l5 2 5 5 3 4-1 9-5 11-3 3h-7l-5-4 1-6 3-4 7-1 2-5-1-5-9-7-4-2 2-4z"/>
<path transform="translate(217,571)" d="m0 0 2 1-4 6-3 11v12l3 10 5 8 7 6 3 1-2 4h-5l-9-8-7-11-1-2-6-2-2-3-1-7 4 1v-9l4-9 8-7z" fill="#FECF07"/>
<path transform="translate(345,884)" d="m0 0 9 2 9 3v2h-4v28l12-13 5-7-1-3-2-1 1-2 11 4v2l-7 3-10 11-7 8-9 10-2 1-1-5-1-29-1-11z"/>
<path transform="translate(728,564)" d="m0 0h1l-1 8-5 5 1 1 5 2 3 5-1 6-4 4-5-1-1-2 3-2 1-4-5 1-1 10 4 8 7 6v2l-6-1-8-6-5-8-1-4v-10l3-8 8-7z" fill="#FDCE07"/>
<path transform="translate(630,338)" d="m0 0h1v9l-6 11-2 4 6 1-1 5-5 5-4 2-16 1 2-5 4-5 6-4 1-4-7-1 1-6 5-5 14-7z" fill="#9C090E"/>
<path transform="translate(369,338)" d="m0 0 16 8 5 4 1 6-7 1 2 6 6 4 4 5 1 4-16-1-8-5-2-7h7l-5-9-4-8z" fill="#9C090E"/>
<path transform="translate(275,569)" d="m0 0 8 6 7 6 3 6v14l-4 8-9 8-7 1 2-4 6-4 3-7v-7l-2-3h-3v3l3 3-1 1h-6l-3-4v-7l5-5 6 1-6-5-2-5z" fill="#FECF07"/>
<path transform="translate(613,380)" d="m0 0h12l-2 6-4 6-7 4 2 5v4l-4 2h-14l-8 1 3-7 4-5 11-3 2-3h-10l3-5 8-4z" fill="#9C090E"/>
<path transform="translate(375,380)" d="m0 0h12l11 4 4 5v1h-10l4 4 9 2 5 6 2 6-12-1h-10l-5-3v-2l2-1 1-5-8-5-5-9z" fill="#9C090E"/>
<path transform="translate(256,356)" d="m0 0 11 1-1 2-8 3-3 5-2 12-8 8-2 10h-3l-4-5-2-7 1-8 1-7 5 3 3-10 7-6z" fill="#FECF07"/>
<path transform="translate(117,294)" d="m0 0h9l16 8 6 4 2 2-1 7-4 4-7-1-3-3v-6l1-2-6-2-6-3h-7l-3 4-1 6 2 6-5 3-3-5v-7l3-8 5-6z"/>
<path transform="translate(404,73)" d="m0 0h9l5 3 3 5 4 18v9l-3 3-7 1-4-3-1-8 5-4-1-9-3-8-2-1h-6l-4 2-3 6-6-1 1-5 7-6z"/>
<path transform="translate(748,351)" d="m0 0 10 1 6 4 3 5 1 8 4-3 2 1 1 7v8l-4 8-3 3-2-1-2-10-1-3-5-2-2-3-2-14-4-4-7-3v-1z" fill="#FECF07"/>
<path transform="translate(379,561)" d="m0 0h46l7 1v6l-1 2h-52z" fill="#9C090E"/>
<path transform="translate(578,561)" d="m0 0h46v9h-52l-1-8z" fill="#9C090E"/>
<path transform="translate(276,547)" d="m0 0 8 1 8 5 5 8 2 7v9l5-5h1v15l-4 9h-2l-2-9-4-8-2-15-3-5-7-3-9 1-7 2 1-5 7-6z" fill="#FECF07"/>
<path transform="translate(721,542)" d="m0 0h10l7 6 2 5-9-2h-11l-5 3-2 4-2 15-5 9-2 8-2-1-3-7v-16h2v2l3 1v2h2l-1-9 4-11 9-8z" fill="#FECF07"/>
<path transform="translate(311,867)" d="m0 0 5 2 14 7-2 1h-4l-15 30-1 4 3 4-6-2-13-7 2-1h4l15-30 1-4z"/>
<path transform="translate(800,329)" d="m0 0h2v13l-3 5 5-2v9l-5 8-4 2-5-1-2-2v-3l4-1-5-3-2-4v-9l3-6 3-3h4z" fill="#FECF07"/>
<path transform="translate(209,333)" d="m0 0 5 2 4 3v-2l4 2 3 6v10l-3 5-4 2 4 1-2 5-4 1-6-3-4-7v-10l4 1-2-5z" fill="#FECF07"/>
<path transform="translate(176,486)" d="m0 0 10 1 6 4 3 4v5l5-3 4 10-2 7-6 4h-4l-8-10-1-2-2-12-4-4-6-2v-1z" fill="#FECF07"/>
<path transform="translate(820,484)" d="m0 0h15l-2 2-7 3-2 6-2 10-7 7-2 3-5-1-5-4-1-8 4-8 5 2 1-6 6-5z" fill="#FECF07"/>
<path transform="translate(578,905)" d="m0 0h2v2l-3 1 1 13 5 25 5 1-3 2-17 3v-2l3-1v-8l-5-27-1-3-5-1 2-2z"/>
<path transform="translate(269,275)" d="m0 0 2 3 1 5v7l-3 9-5 5-6 4-4 1h-7l-3-3 1-5 4-5 12-8 6-9z" fill="#FECF07"/>
<path transform="translate(742,270)" d="m0 0h2l5 10 5 5 9 7 4 6-1 5-1 1h-8l-9-4-5-6-3-8v-8z" fill="#FECF07"/>
<path transform="translate(596,268)" d="m0 0 7 6 3 4 1 9 5-3 3 6-1 6-7 10-4 4-2-3v-7l2-6v-10l-6 4-3 6h-2l-2-4v-8l5-9z" fill="#9C090E"/>
<path transform="translate(403,268)" d="m0 0 2 4 6 13-2 8h-3l-4-6-4-2-1 2 1 9 1 3v9l-3 2-10-15v-8l3-3 4 3 1-8 4-6z" fill="#9C090E"/>
<path transform="translate(371,55)" d="m0 0h2l5 16 2 4-2 2-1-2h-15l-10 4-4 2v-10l4-6 8-4h6l1-5z"/>
<path transform="translate(772,290)" d="m0 0 5 2 7 7 3 5-1 6h-2l1 6 5-6 2 1 3 8v6l-7 6-4 4-1-11-4-9-4-5-2-6z" fill="#FECF07"/>
<path transform="translate(238,294)" d="m0 0h2l-2 16-6 10-4 7-2 11-7-6-3-3v-7l4-8 6 6 1-6h-2l-1-5 4-6 7-7z" fill="#FECF07"/>
<path transform="translate(884,271)" d="m0 0h9l5 3 5 6 1 7 5-1 2 6-16 9-2 1-2-13-6-12-3-3v-2z"/>
<path transform="translate(193,191)" d="m0 0 7 1 8 7 10 9 5 5-1 4-4 3-19-19-3-2-7 1-2 3v9l-6 2-1-3v-7l3-6 7-6z"/>
<path transform="translate(841,240)" d="m0 0 9 2 5 5 4 8-1 7-9 8-16 11h-4l-3-5 15-11 10-7v-7l-3-3-8-1-1-6z"/>
<path transform="translate(574,71)" d="m0 0h11l6 3 3 3 1 9-5 25-1 2-7-1 1-9 3-15v-9l-2-2h-8l-4 4-5-2 1-4z"/>
<path transform="translate(327,98)" d="m0 0h9l5 4 10 22 2 7-7 3-12-27-3-3-6 1-3 3-2 6h-6l1-6 4-6z"/>
<path transform="translate(685,107)" d="m0 0 8 1 6 4 4 5v8l-13 26-5-1-2-1 1-5 11-22-1-7-2-1h-8l-4 1-3-4 4-3z"/>
<path transform="translate(504,482)" d="m0 0 2 1-1 8 6 8 2 5v8l-3 6-9 8-8 11-4 3h-2v-7l7-8 8-10 2-4v-9l-4-7v-8l2-3h2z" fill="#FECF07"/>
<path transform="translate(786,472)" d="m0 0 1 2v9l5 8 5 4 1 5-2 4-4-3-5-1 2 13-7-4-4-5-1-3v-12l4-9z" fill="#FECF07"/>
<path transform="translate(623,301)" d="m0 0 2 2v8l-2 4 1 5 5-3v9l-4 7-10 4-4 4-2-1 3-9 4-4v-7l-8 1 1-6 4-5 8-6z" fill="#9C090E"/>
<path transform="translate(376,301)" d="m0 0h2l3 5 8 6 3 5v4l-8-2v7l6 8 1 7-10-6-6-2-3-5-1-9 2-2 4 4v-7l-2-3v-7z" fill="#9C090E"/>
<path transform="translate(219,475)" d="m0 0 3 3 6 11 1 4v12l-5 8-6 4-2-1 2-5v-6h-5l-3 3-2-4 1-5 7-6 4-8z" fill="#FECF07"/>
<path transform="translate(436,249)" d="m0 0 3 1-3 18-2 2-3-6-4 2-2 9-7 8h-2l-3-11-2-3 1-5 5-6 3-1 1 4 4-1 3-2 2-5z" fill="#9C090E"/>
<path transform="translate(482,493)" d="m0 0 3 4 4 6v8l-8 10-5 5-5 12-4 2-5-5 5-12 7-9 8-8z" fill="#FECF07"/>
<path transform="translate(562,249)" d="m0 0 5 2 4 3 2 5 7 3 1-5 7 6 1 6-3 6-1 8-5-2-5-6-2-9-4-2-2 6h-2l-3-14-1-5z" fill="#9C090E"/>
<path transform="translate(519,503)" d="m0 0 4 5v16l4 6 5 7v9l-4 8-8 7-4 1 1-8 6-7 1-6-8-16 2-7 1-1-1-13z" fill="#FECF07"/>
<path transform="translate(242,727)" d="m0 0h11l10 3 7 10 7 8 4 2v2l-9-1-10-4-10-8-7-7z" fill="#FECF07"/>
<path transform="translate(747,722)" d="m0 0h10l-2 4-5 6-12 9-9 4-4 1h-7l4-4 5-4 8-12 6-3z" fill="#FECF07"/>
<path transform="translate(411,603)" d="m0 0h21l1 7-25 1h-28v-6l4-1z" fill="#9C090E"/>
<path transform="translate(571,603)" d="m0 0h22l26 1 4 1v6h-27l-25-1z" fill="#9C090E"/>
<path transform="translate(288,671)" d="m0 0 4 1-6 5-1 5 4 6 1 6-2 3-5 1 1-5-2 1-1 3v11l2 7-4-4-4-8-2-7v-12l5-8z" fill="#FECF07"/>
<path transform="translate(709,664)" d="m0 0 11 4 7 8 1 3v9l-4 13-6 8-1-2 3-9-1-9-3-3 1 6-5-2-1-1 1-7 4-6-1-5-6-5z" fill="#FECF07"/>
<path transform="translate(500,361)" d="m0 0 9 1 5 6v7l-3 5-4 2h-8l-5-5-1-2v-7l5-6z" fill="#FECF07"/>
<path transform="translate(102,283)" d="m0 0 9 1 2 1v2l-6 4-6 8-4 9-1 4-4-2-4-6-1-6 2-7 5-5 3-2z"/>
<path transform="translate(589,414)" d="m0 0h10l9 1-2 4-4 3-6 1-1 4 4-1-2 5-4 3h-15l-4 1 1-4 5-5 7-2 3-4h-7l2-4z" fill="#9C090E"/>
<path transform="translate(401,414)" d="m0 0h10l5 3 2 3h-8l4 4 9 4 4 6-2 1-3-1h-15l-5-5-1-2 4-2-2-2-7-2-3-3 1-3z" fill="#9C090E"/>
<path transform="translate(514,246)" d="m0 0 2 1v7l-5 5h-3l-2-2-4 11-3 1-3-8-1-5-3 3-4-1-3-5v-6l10 2h10z" fill="#9C090E"/>
<path transform="translate(826,446)" d="m0 0 2 3v12l-4 6-6 7-4 10-4 4h-3v-13l4-8 9-9z" fill="#FECF07"/>
<path transform="translate(181,449)" d="m0 0 2 3 5 10 7 7 4 7v16l-5-2-3-6-4-10-7-7-1-3v-11z" fill="#FECF07"/>
<path transform="translate(919,456)" d="m0 0h6l6 5 1 6-3 6-6 3-6-1-5-6v-6l3-5z" fill="#FEFEFE"/>
<path transform="translate(918,452)" d="m0 0h7l6 3 4 5 1 8-4 8-8 4-8-1-6-5-2-4v-8l4-6zm1 4-5 3-2 4v6l5 6 6 1 6-3 3-6-1-6-6-5z"/>
<path transform="translate(80,456)" d="m0 0 8 1 4 5v8l-5 5-6 1-5-3-3-4v-7l5-5z" fill="#FEFEFE"/>
<path transform="translate(79,452)" d="m0 0h7l7 4 3 5v10l-6 7-5 2-8-1-6-5-2-4v-8l3-6zm1 4-5 3-2 3v7l5 6 6 1 6-3 2-3v-8l-4-5z"/>
<path transform="translate(223,132)" d="m0 0 5 5-1 7-6 8-9 6h-8l-4-4v-7l5-4 6 1 4 5 5-5 2-5z"/>
<path transform="translate(787,533)" d="m0 0 6 2 8 6 5 8 2 6v21l-1 3-4-1-2-5-1-16-4-11-6-9z" fill="#FECF07"/>
<path transform="translate(433,469)" d="m0 0h6l2 2-3 4 2 4 7 4 1 9-1 3-4-2-10-3-4-5v-2l5-3 1-2-6-1-5-4 1-3z" fill="#9C090E"/>
<path transform="translate(216,537)" d="m0 0 2 1-7 7-5 10-3 14-1 11-5 3-1-2v-21l4-10 7-8 6-4z" fill="#FECF07"/>
<path transform="translate(561,469)" d="m0 0h7l8 1-1 4-9 6 6 3-4 6-3 2-12 4v-11l3-3 5-2 1-5-3-4z" fill="#9C090E"/>
<path transform="translate(531,382)" d="m0 0h21l2 1v6l-6 10-2 2-4-1-11-16z" fill="#9C090E"/>
<path transform="translate(499,199)" d="m0 0h2l8 12v8l-4 4h-9l-4-4 1-9 5-8z" fill="#9C090E"/>
<path transform="translate(516,325)" d="m0 0 7 1 10 6 1 4-12 9-7 4v-23z" fill="#9C090E"/>
<path transform="translate(486,578)" d="m0 0h2l7 8 5 5v2l5-5 9-10 2 1-3 10-7 11-4 4-3-1-9-13-4-11z" fill="#FECF07"/>
<path transform="translate(516,399)" d="m0 0 7 6 9 9-1 4-9 4-8 1-2-2 1-9z" fill="#9C090E"/>
<path transform="translate(491,324)" d="m0 0 5 1 1 4-3 17-2 2-15-15 1-4 9-4z" fill="#9C090E"/>
<path transform="translate(546,346)" d="m0 0 4 2 3 8 1 9-1 1-11-1-11-2 2-4 11-12z" fill="#9C090E"/>
<path transform="translate(455,377)" d="m0 0 13 2 9 2-6 7-9 9-4-1-3-5-2-8 1-5z" fill="#9C090E"/>
<path transform="translate(491,399)" d="m0 0h1v22l-2 2-5-1-10-6-2-4 10-8z" fill="#9C090E"/>
<path transform="translate(304,496)" d="m0 0 5 5v10l-7 11-6 8-2 6h-2l-1-3v-11l5-8 6-8z" fill="#FECF07"/>
<path transform="translate(710,313)" d="m0 0 17 1 7 2 4 5-1 6-4 4-8-1-4-3 1-3 4-2-9-1-5-4z" fill="#FECF07"/>
<path transform="translate(524,228)" d="m0 0 4 4-11 8-12 4h-12l-11-4-10-7 4-4 11 7 10 3 11-1 12-6z" fill="#9C090E"/>
<path transform="translate(701,490)" d="m0 0h1l2 10 9 13 2 9-2 8h-2l-3-8-9-13-2-4v-10z" fill="#FECF07"/>
<path transform="translate(299,319)" d="m0 0 2 1-5 6-2 1h-10v2l5 1 1 3-5 3h-8l-3-3-1-7 5-5 4-1z" fill="#FECF07"/>
<path transform="translate(463,344)" d="m0 0 4 1 11 15v2h-22l-1-1 1-7 5-8z" fill="#9C090E"/>
<path transform="translate(521,785)" d="m0 0h11l7 5 3 4v2l-30 2 2-7z" fill="#FECF07"/>
<path transform="translate(818,175)" d="m0 0 7 1 6 3h5 4l2 4-2 2-5 1-7-3-4-3v8l-4 3-7-1-2-3v-6l5-5z"/>
<path transform="translate(738,388)" d="m0 0 4 2 4 5v8l-7 10-3 6-4-3-1-3v-8l3-5 3-4z" fill="#FECF07"/>
<path transform="translate(569,495)" d="m0 0h1v5l-4 5-2 4 7-2 1 7-4 5-3 6-4-2-4-7 1-5 3-1 1-5-5 2v-5l3-3z" fill="#9C090E"/>
<path transform="translate(430,495)" d="m0 0h2v2l10 3 1 7-4-1 2 4 2 2-1 7-5 6h-2l-4-8-3-4 1-5h3l4 1-3-6-3-4z" fill="#9C090E"/>
<path transform="translate(268,394)" d="m0 0h2l2 8 5 7 1 7-3 7-4 1-2-7-6-8v-9z" fill="#FECF07"/>
<path transform="translate(528,511)" d="m0 0 2 3 2 5 2 7 6 7 2 6-1 10-3 6-1 1h-6l4-9v-9l-6-10-3-3v-5l1-1v-7z" fill="#FECF07"/>
<path transform="translate(408,441)" d="m0 0h14l6 4 1 2h-7l4 5 9 3 4 6-2 1-8-1h-8l-4-4 6-1-3-5-8-4z" fill="#9C090E"/>
<path transform="translate(578,441)" d="m0 0h14l-3 5-4 3-6 3-1 3 5 2v2l-3 2h-14l-4 1 1-4 4-4 9-3 1-4h-5l2-4z" fill="#9C090E"/>
<path transform="translate(120,659)" d="m0 0h2l2 4-1 7-5 4-7 1-5-4-2-5z" fill="#FEFEFE"/>
<path transform="translate(492,547)" d="m0 0h9l5 4 1 2v6l-3 4h-2l-1-3v-7l-1-1h-8v4h6l1 2-4 5-5-1-3-4v-6z" fill="#9C090E"/>
<path transform="translate(551,247)" d="m0 0 2 1 2 6 4 5-3 7-5 1-7-5-1-7 5-6z" fill="#9C090E"/>
<path transform="translate(448,247)" d="m0 0 5 3 4 4v7l-6 5-5 1-4-5v-5l5-6z" fill="#9C090E"/>
<path transform="translate(694,736)" d="m0 0v3l-9 11-11 8-16 8-15 5 2-4 5-3 13-5 11-6 13-10z" fill="#FECF07"/>
<path transform="translate(370,95)" d="m0 0 5 1 3 5 3 9v5l-6 3h-3l-3-10z" fill="#FEFEFE"/>
<path transform="translate(304,742)" d="m0 0 5 5 10 9 14 9 13 6 7 3 2 2-1 3-14-6-14-7-9-7-9-9-4-6z" fill="#FECF07"/>
<path transform="translate(458,538)" d="m0 0 5 2 5 5 3 8 4 4v7l-11-7-4-5-1-11z" fill="#FECF07"/>
<path transform="translate(462,237)" d="m0 0h8l8 7-4 4-4-1-2-3-4 2-9-1-4-4 9-3z" fill="#9C090E"/>
<path transform="translate(531,237)" d="m0 0h7l6 3 6 1-4 4-9 1-4-2-3 4-5-1-2-3z" fill="#9C090E"/>
<path transform="translate(538,557)" d="m0 0 4 1-7 6-4 4-5 2h-9l1-4 5-4 10-4z" fill="#FECF07"/>
<path transform="translate(512,523)" d="m0 0 2 1 1 5 6 9v7l-4 4-3-1-2-5 1-4-3-8 1-6z" fill="#FECF07"/>
<path transform="translate(720,144)" d="m0 0 1 2v7l4 5 2 1-2 5-5 1-9-6 2-5z" fill="#FEFEFE"/>
<path transform="translate(402,824)" d="m0 0h6l3 3v7l-3 7-5-2 1-4-4-2-1-1v-5z" fill="#F3BA07"/>
<path transform="translate(723,300)" d="m0 0 9 1 5 2h11l-2 4-5 4h-8l-5-4z" fill="#FECF07"/>
<path transform="translate(535,85)" d="m0 0 7 6 6 2v6l-1 1h-12l-2-1 1-13z" fill="#FEFEFE"/>
<path transform="translate(282,306)" d="m0 0h6l-6 8-5 3-8-1-5-5v-2h9z" fill="#FECF07"/>
<path transform="translate(574,517)" d="m0 0 5 5 4 5v6l-3 2-4-6-4 2-2 2-1-1v-7z" fill="#9C090E"/>
<path transform="translate(425,517)" d="m0 0 5 5 1 3v8h-2l-1-4-5 1-2 5-3-1-1-6z" fill="#9C090E"/>
<path transform="translate(773,424)" d="m0 0 4 1-10 5-5 5v5l-7 7-4 7-1-2 3-10 5-8 8-7z" fill="#FECF07"/>
<path transform="translate(589,532)" d="m0 0 7 6 1 4-5 3-9-1-1-5z" fill="#9C090E"/>
<path transform="translate(233,429)" d="m0 0 6 1 8 6 6 7 4 13-1 3-6-10-5-5v-5l-5-5-7-4z" fill="#FECF07"/>
<path transform="translate(410,532)" d="m0 0 7 6 1 5-5 2-8-1-2-3z" fill="#9C090E"/>
<path transform="translate(306,566)" d="m0 0 4 2 3 7-1 11-4 10-1-3 1-5v-8l-3-10z" fill="#FECF07"/>
<path transform="translate(696,560)" d="m0 0h3l-1 6-2 6v17l-2-2-3-11v-8l3-6z" fill="#FECF07"/>
<path transform="translate(493,928)" d="m0 0 2 2 4 10v2h-12l5-13z" fill="#FEFEFE"/>
<path transform="translate(690,881)" d="m0 0 4 2 8 7-3 3-7 3-2-13z" fill="#FEFEFE"/>
<path transform="translate(124,706)" d="m0 0h7l-6 8-3 3h-2l-4-7v-3z" fill="#FEFEFE"/>
<path transform="translate(243,840)" d="m0 0 1 2-4 13-9-6v-2z" fill="#FEFEFE"/>
<path transform="translate(244,339)" d="m0 0 6 3 1 5-7 1-3 5-2 4v-9l4-8z" fill="#FECF07"/>
<path transform="translate(765,335)" d="m0 0 4 2 2 5v11h-1l-3-9-8-2 1-5z" fill="#FECF07"/>
<path transform="translate(250,389)" d="m0 0 4 5 5 4-1 4-4 1-5-5v-7z" fill="#FECF07"/>
<path transform="translate(501,367)" d="m0 0h5l2 2v5l-3 3-5-1-2-5z" fill="#9C090E"/>
<path transform="translate(503,337)" d="m0 0h2l4 7-2 4h-6l-2-2 1-5z" fill="#9C090E"/>
<path transform="translate(519,258)" d="m0 0 4 2 2 3v3l-14 3 2-4z" fill="#9C090E"/>
<path transform="translate(479,258)" d="m0 0 4 2 7 8-2 1-12-3 1-5z" fill="#9C090E"/>
<path transform="translate(758,385)" d="m0 0 2 1v7l-5 5-4-1-1-4 6-5z" fill="#FECF07"/>
<path transform="translate(530,367)" d="m0 0 5 1 4 4-5 4-4 1-2-2v-6z" fill="#9C090E"/>
<path transform="translate(481,385)" d="m0 0 4 1 2 2v5l-5 2h-5l2-8z" fill="#9C090E"/>
<path transform="translate(475,367)" d="m0 0h4l1 2v6l-1 1-7-1-3-2v-2z" fill="#9C090E"/>
<path transform="translate(479,347)" d="m0 0 8 1 2 2-1 4-3 3-4-1-2-4z" fill="#9C090E"/>
<path transform="translate(501,396)" d="m0 0h6l2 4-4 7-5-5-1-4z" fill="#9C090E"/>
<path transform="translate(523,387)" d="m0 0 4 1 2 4v5l-9-2-1-4z" fill="#9C090E"/>
<path transform="translate(524,349)" d="m0 0h7l-2 8-4 2-4-4 1-5z" fill="#9C090E"/>
<path transform="translate(362,65)" d="m0 0 6 1 3 4-13 2-5 1 2-5z" fill="#FEFEFE"/>
<path transform="translate(446,47)" d="m0 0h7l5 3 1 3h-18l2-4z" fill="#FEFEFE"/>
<path transform="translate(890,276)" d="m0 0 5 1 4 5v8l-1 2h-2l-3-10-3-4z" fill="#FEFEFE"/>
<path transform="translate(99,288)" d="m0 0h4l-2 4-4 5-3 6-2-2v-6l5-6z" fill="#FEFEFE"/>
<path transform="translate(481,670)" d="m0 0 5 4-1 5-4 2-3-2 1-7z" fill="#9C090E"/>
<path transform="translate(524,644)" d="m0 0h5l3 3-2 4-6 1-2-2 1-5z" fill="#9C090E"/>
<path transform="translate(474,644)" d="m0 0h5l2 2-1 5-5 1-4-3 2-4z" fill="#9C090E"/>
<path transform="translate(487,680)" d="m0 0h5l3 3-2 4-5 1-3-2 1-5z" fill="#9C090E"/>
<path transform="translate(508,665)" d="m0 0 5 1 2 4-3 3h-5l-2-2 1-5z" fill="#9C090E"/>
<path transform="translate(518,634)" d="m0 0 5 5-1 4-4 2-3-2 1-7z" fill="#9C090E"/>
<path transform="translate(484,634)" d="m0 0 4 3 1 4-3 4-5-2-1-3 3-5z" fill="#9C090E"/>
<path transform="translate(526,624)" d="m0 0 5 1 1 5-2 2h-5l-3-3 2-4z" fill="#9C090E"/>
<path transform="translate(473,624)" d="m0 0 5 1 3 2-2 4-1 1-7-1v-5z" fill="#9C090E"/>
<path transform="translate(511,680)" d="m0 0h5l2 2-1 5-5 1-4-3 2-4z" fill="#9C090E"/>
<path transform="translate(501,672)" d="m0 0 4 2 1 4-5 5-3-3v-6z" fill="#9C090E"/>
<path transform="translate(521,670)" d="m0 0 5 5-2 5-3 1-3-2v-6z" fill="#9C090E"/>
<path transform="translate(530,660)" d="m0 0 5 1 1 5-2 2h-5l-3-4z" fill="#9C090E"/>
<path transform="translate(470,660)" d="m0 0 5 2 2 3-3 3h-6l-2-4z" fill="#9C090E"/>
<path transform="translate(490,644)" d="m0 0 6 1 2 4h-2v2l-6 1-2-2 1-5z" fill="#9C090E"/>
<path transform="translate(492,665)" d="m0 0 5 1 1 5-2 2h-5l-3-4z" fill="#9C090E"/>
<path transform="translate(517,651)" d="m0 0 4 1 2 2-1 5-4 2-3-3v-5z" fill="#9C090E"/>
<path transform="translate(483,651)" d="m0 0 4 1 1 1-1 7-3 1-3-2-1-4z" fill="#9C090E"/>
<path transform="translate(509,644)" d="m0 0 6 1v5l-2 2-5-1-3-3z" fill="#9C090E"/>
<path transform="translate(719,621)" d="m0 0 5 1 8 3 6 1-3 2h-9l-6-3z" fill="#FECF07"/>
<path transform="translate(282,626)" d="m0 0 2 2-5 5h-14v-2l11-2z" fill="#FECF07"/>
<path transform="translate(501,656)" d="m0 0 4 2 1 4-1 3-5 1-2-2v-5z" fill="#9C090E"/>
<path transform="translate(527,680)" d="m0 0h5l3 4-9 3-1-5z" fill="#9C090E"/>
<path transform="translate(574,545)" d="m0 0 7 5-1 2h-9v-3z" fill="#9C090E"/>
<path transform="translate(425,545)" d="m0 0 5 5-1 2h-9v-3z" fill="#9C090E"/>
<path transform="translate(393,545)" d="m0 0 7 5-1 2h-9v-3z" fill="#9C090E"/>
<path transform="translate(421,629)" d="m0 0 5 1-2 2 1 5 2 2-5-1-4-4 1-4z" fill="#9C090E"/>
<path transform="translate(578,629)" d="m0 0 6 1 1 5-3 3-5 1 1-2h2l-1-5-2-2z" fill="#9C090E"/>
<path transform="translate(605,546)" d="m0 0 4 1 2 4-1 1h-8l-2-2z" fill="#9C090E"/>
<path transform="translate(205,147)" d="m0 0 5 1 1 3-2 3-5-1-1-4z" fill="#FEFEFE"/>
<path transform="translate(864,309)" d="m0 0h2l-1 5-5 3-4-1 1-3z" fill="#FEFEFE"/>
<path transform="translate(472,680)" d="m0 0h5l2 4-1 2-5-1-3-1v-3z" fill="#9C090E"/>
<path transform="translate(730,192)" d="m0 0 5 1v4l-1 1h-5l-1-4z" fill="#FEFEFE"/>
<path transform="translate(625,93)" d="m0 0 4 1-3 9-2-3-3-6z" fill="#FEFEFE"/>
<path transform="translate(529,254)" d="m0 0 5 2 2 6-2 1-5-4z" fill="#9C090E"/>
<path transform="translate(523,789)" d="m0 0h7l3 3-14 1z" fill="#9C090E"/>
<path transform="translate(130,275)" d="m0 0 4 1 1 3-2 3-4-1-1-4z" fill="#FEFEFE"/>
<path transform="translate(864,274)" d="m0 0 5 1-1 5-5-1v-4z" fill="#FEFEFE"/>
<path transform="translate(470,254)" d="m0 0h1l-1 7-5 2 1-7z" fill="#9C090E"/>
<path transform="translate(291,134)" d="m0 0 5 1 1 3-4 3-3-2z" fill="#FEFEFE"/>
<path transform="translate(718,127)" d="m0 0 4 2-1 5-5-1v-4z" fill="#FEFEFE"/>
<path transform="translate(141,308)" d="m0 0 4 1 1 3-2 3-5-2 1-4z" fill="#FEFEFE"/>
<path transform="translate(230,194)" d="m0 0 5 1 1 4-5 1-2-4z" fill="#FEFEFE"/>
<path transform="translate(817,181)" d="m0 0 4 2-1 4-4 1-2-4z" fill="#FEFEFE"/>
<path transform="translate(613,130)" d="m0 0 5 1 1 2-4 4-3-2z" fill="#FEFEFE"/>
<path transform="translate(607,108)" d="m0 0 5 1-1 5h-5v-5z" fill="#FEFEFE"/>
<path transform="translate(416,101)" d="m0 0 4 1 1 3-3 3-3-1-1-4z" fill="#FEFEFE"/>
<path transform="translate(526,68)" d="m0 0 5 1-1 5h-5v-5z" fill="#FEFEFE"/>
<path transform="translate(471,811)" d="m0 0h2v7l-2 3-3-6v-3z" fill="#9C090E"/>
<path transform="translate(782,211)" d="m0 0 5 1-1 4-4 1-2-4z" fill="#FEFEFE"/>
<path transform="translate(458,41)" d="m0 0 5 1-1 5-5-1z" fill="#FEFEFE"/>
<path transform="translate(561,824)" d="m0 0 2 1v5l-5 1-1-6z" fill="#FECF07"/>
<path transform="translate(159,232)" d="m0 0 5 1v4l-4 1-2-4z" fill="#FEFEFE"/>
<path transform="translate(248,147)" d="m0 0 5 1-1 5h-4l-1-5z" fill="#FEFEFE"/>
<path transform="translate(652,124)" d="m0 0 5 1-1 5-5-1z" fill="#FEFEFE"/>
<path transform="translate(448,82)" d="m0 0 5 1-1 5h-4l-1-5z" fill="#FEFEFE"/>
<path transform="translate(489,831)" d="m0 0h5v6h-5z" fill="#FECF07"/>
<path transform="translate(588,550)" d="m0 0 5 1 1 3-6 1-2-1z" fill="#9C090E"/>
<path transform="translate(409,550)" d="m0 0 4 1v4l-7-1 1-3z" fill="#9C090E"/>
<path transform="translate(424,821)" d="m0 0 6 1-2 5-5-1z" fill="#FECF07"/>
<path transform="translate(622,804)" d="m0 0h3l1 5-5 1-2-4z" fill="#FECF07"/>
<path transform="translate(353,95)" d="m0 0 4 1 1 3-1 2-5-1-1-3z" fill="#FEFEFE"/>
<path transform="translate(533,632)" d="m0 0h2v9l-4-3 1-5z" fill="#9C090E"/>
<path transform="translate(725,145)" d="m0 0 4 1-1 5-4-1z" fill="#FEFEFE"/>
<path transform="translate(541,80)" d="m0 0 4 1-1 5-4-1z" fill="#FEFEFE"/>
</svg>
